# https://github.com/mikedh/trimesh
v 0.00691976 0.01761446 -0.00600000
v 0.00546062 0.01863710 -0.00600000
v 0.00546062 0.01863710 0.00600000
v 0.00691976 0.01761446 0.00600000
v 0.00380250 0.01939906 -0.00600000
v 0.00380250 0.01939906 0.00600000
v 0.00196083 0.01985717 -0.00600000
v 0.00196083 0.01985717 0.00600000
v -0.00006285 0.02000833 -0.00600000
v -0.00006285 0.02000833 0.00600000
v 0.01208693 0.00585648 -0.00600000
v 0.01208693 0.00585648 0.00600000
v 0.01234760 0.00303690 -0.00600000
v 0.01165041 0.00845085 -0.00600000
v 0.01165041 0.00845085 0.00600000
v 0.01104578 0.01080615 0.00600000
v 0.01027610 0.01290849 0.00600000
v 0.01027610 0.01290849 -0.00600000
v 0.00933984 0.01475942 0.00600000
v 0.00933984 0.01475942 -0.00600000
v 0.00821232 0.01632190 -0.00600000
v 0.00821232 0.01632190 0.00600000
v 0.00509506 0.01313523 -0.00600000
v 0.00577373 0.01193830 -0.00600000
v 0.00577373 0.01193830 0.00600000
v 0.00509506 0.01313523 0.00600000
v 0.00431150 0.01411468 -0.00600000
v 0.00431150 0.01411468 0.00600000
v 0.00342306 0.01487664 0.00600000
v 0.00342306 0.01487664 -0.00600000
v 0.00239271 0.01542112 0.00600000
v 0.00239271 0.01542112 -0.00600000
v 0.00122971 0.01574657 0.00600000
v 0.00122971 0.01574657 -0.00600000
v -0.00006285 0.01585609 0.00600000
v -0.00006285 0.01585609 -0.00600000
v -0.00135541 0.01574657 0.00600000
v -0.00135541 0.01574657 -0.00600000
v 0.01104578 0.01080615 -0.00600000
v 0.00710640 0.00700251 -0.00600000
v 0.00732388 0.00490325 -0.00600000
v 0.00732388 0.00490325 0.00600000
v 0.00710640 0.00700251 0.00600000
v 0.00676706 0.00887348 -0.00600000
v 0.00676706 0.00887348 0.00600000
v 0.00632284 0.01051926 -0.00600000
v 0.00632284 0.01051926 0.00600000
v 0.01234760 0.00303690 0.00600000
v 0.01235685 -0.00303567 -0.00600000
v 0.01235685 -0.00303567 0.00600000
v 0.01212086 -0.00584445 0.00600000
v 0.01212086 -0.00584445 -0.00600000
v 0.01243397 -0.00001095 -0.00600000
v 0.01243397 -0.00001095 0.00600000
v 0.00710640 -0.00698431 -0.00600000
v 0.00676706 -0.00887842 0.00600000
v 0.00710640 -0.00698431 0.00600000
v 0.00732388 -0.00488197 -0.00600000
v 0.00732388 -0.00488197 0.00600000
v 0.00745499 -0.00254518 -0.00600000
v 0.00745499 -0.00254518 0.00600000
v 0.00749817 0.00002760 -0.00600000
v 0.00749817 0.00002760 0.00600000
v 0.00745499 0.00257880 -0.00600000
v 0.00745499 0.00257880 0.00600000
v 0.01172908 -0.00843420 -0.00600000
v 0.01172908 -0.00843420 0.00600000
v 0.01119385 -0.01078487 0.00600000
v 0.01119385 -0.01078487 -0.00600000
v 0.00717118 -0.01761015 -0.00600000
v 0.00717118 -0.01761015 0.00600000
v 0.00569661 -0.01865901 0.00600000
v 0.00569661 -0.01865901 -0.00600000
v 0.00846528 -0.01629137 -0.00600000
v 0.00846528 -0.01629137 0.00600000
v 0.00957429 -0.01470266 -0.00600000
v 0.00957429 -0.01470266 0.00600000
v 0.01047508 -0.01287487 -0.00600000
v 0.01047508 -0.01287487 0.00600000
v 0.00577373 -0.01196021 -0.00600000
v 0.00509506 -0.01315714 -0.00600000
v 0.00509506 -0.01315714 0.00600000
v 0.00577373 -0.01196021 0.00600000
v 0.00632284 -0.01053654 -0.00600000
v 0.00632284 -0.01053654 0.00600000
v 0.00676706 -0.00887842 -0.00600000
v 0.00207497 -0.01984360 -0.00600000
v 0.00207497 -0.01984360 0.00600000
v -0.00006285 -0.01999167 0.00600000
v -0.00006285 -0.01999167 -0.00600000
v 0.00399376 -0.01939938 -0.00600000
v 0.00399376 -0.01939938 0.00600000
v -0.00135541 -0.01576848 -0.00600000
v -0.00251841 -0.01544303 0.00600000
v -0.00135541 -0.01576848 0.00600000
v -0.00006285 -0.01587800 -0.00600000
v -0.00006285 -0.01587800 0.00600000
v 0.00122971 -0.01576848 -0.00600000
v 0.00122971 -0.01576848 0.00600000
v 0.00239271 -0.01544303 -0.00600000
v 0.00239271 -0.01544303 0.00600000
v 0.00342306 -0.01489855 -0.00600000
v 0.00342306 -0.01489855 0.00600000
v 0.00431150 -0.01413659 -0.00600000
v 0.00431150 -0.01413659 0.00600000
v -0.00217444 0.01985717 0.00600000
v -0.00217444 0.01985717 -0.00600000
v -0.00406856 0.01939906 -0.00600000
v -0.00406856 0.01939906 0.00600000
v -0.00574364 0.01863710 -0.00600000
v -0.00574364 0.01863710 0.00600000
v -0.00723210 0.01759287 -0.00600000
v -0.00723210 0.01759287 0.00600000
v -0.00851231 0.01628642 0.00600000
v -0.00851231 0.01628642 -0.00600000
v -0.00958276 0.01471931 -0.00600000
v -0.00958276 0.01471931 0.00600000
v -0.01048508 0.01286993 -0.00600000
v -0.01048508 0.01286993 0.00600000
v -0.00251841 0.01542112 -0.00600000
v -0.00251841 0.01542112 0.00600000
v -0.00355030 0.01487664 0.00600000
v -0.00355030 0.01487664 -0.00600000
v -0.00442949 0.01411468 0.00600000
v -0.00442949 0.01411468 -0.00600000
v -0.00518682 0.01313523 0.00600000
v -0.00518682 0.01313523 -0.00600000
v -0.00582231 0.01193830 0.00600000
v -0.00582231 0.01193830 -0.00600000
v -0.01120232 0.01076759 0.00600000
v -0.01120232 0.01076759 -0.00600000
v -0.01173755 0.00841229 -0.00600000
v -0.01173755 0.00841229 0.00600000
v -0.01210773 0.00582254 -0.00600000
v -0.01210773 0.00582254 0.00600000
v -0.00636678 0.01051926 0.00600000
v -0.00636678 0.01051926 -0.00600000
v -0.00679712 0.00887348 0.00600000
v -0.00679712 0.00887348 -0.00600000
v -0.00711486 0.00700251 0.00600000
v -0.00711486 0.00700251 -0.00600000
v -0.00733235 0.00490325 0.00600000
v -0.00733235 0.00490325 -0.00600000
v -0.01232985 0.00301376 0.00600000
v -0.01232985 0.00301376 -0.00600000
v -0.01240388 -0.00001095 -0.00600000
v -0.01240388 -0.00001095 0.00600000
v -0.01232059 -0.00303567 -0.00600000
v -0.01232059 -0.00303567 0.00600000
v -0.01207380 -0.00584445 -0.00600000
v -0.01207380 -0.00584445 0.00600000
v -0.01166042 -0.00843420 0.00600000
v -0.00746345 0.00257880 0.00600000
v -0.00750664 0.00002760 0.00600000
v -0.00750664 0.00002760 -0.00600000
v -0.00746345 0.00257880 -0.00600000
v -0.00746345 -0.00252204 0.00600000
v -0.00746345 -0.00252204 -0.00600000
v -0.00733235 -0.00484649 0.00600000
v -0.00733235 -0.00484649 -0.00600000
v -0.00711486 -0.00694575 0.00600000
v -0.00711486 -0.00694575 -0.00600000
v -0.01166042 -0.00843420 -0.00600000
v -0.01107584 -0.01078487 -0.00600000
v -0.01107584 -0.01078487 0.00600000
v -0.01031851 -0.01287487 -0.00600000
v -0.01031851 -0.01287487 0.00600000
v -0.00679712 -0.00882135 -0.00600000
v -0.00679712 -0.00882135 0.00600000
v -0.00636678 -0.01047947 0.00600000
v -0.00636678 -0.01047947 -0.00600000
v -0.00582231 -0.01192165 0.00600000
v -0.00582231 -0.01192165 -0.00600000
v -0.00518682 -0.01312321 0.00600000
v -0.00518682 -0.01312321 -0.00600000
v -0.00442949 -0.01411499 0.00600000
v -0.00442949 -0.01411499 -0.00600000
v -0.00938687 -0.01470266 0.00600000
v -0.00938687 -0.01470266 -0.00600000
v -0.00827786 -0.01629137 -0.00600000
v -0.00827786 -0.01629137 0.00600000
v -0.00698376 -0.01761015 -0.00600000
v -0.00698376 -0.01761015 0.00600000
v -0.00550919 -0.01865901 -0.00600000
v -0.00550919 -0.01865901 0.00600000
v -0.00387575 -0.01939938 -0.00600000
v -0.00387575 -0.01939938 0.00600000
v -0.00206184 -0.01984360 -0.00600000
v -0.00206184 -0.01984360 0.00600000
v -0.00355030 -0.01489855 -0.00600000
v -0.00355030 -0.01489855 0.00600000
v -0.00251841 -0.01544303 -0.00600000
f 74 75 71
f 65 42 64
f 41 64 42
f 66 67 68
f 66 68 69
f 70 71 72
f 70 72 73
f 55 86 56
f 84 80 83
f 84 83 85
f 90 93 96
f 96 98 90
f 105 82 104
f 182 190 184
f 190 192 184
f 180 177 182
f 186 184 192
f 166 173 179
f 192 93 186
f 153 155 156
f 155 154 157
f 155 157 158
f 158 157 159
f 158 159 160
f 171 170 172
f 171 172 173
f 150 163 152
f 190 182 177
f 190 177 176
f 190 176 191
f 89 189 90
f 184 185 183
f 184 183 182
f 186 187 185
f 179 180 181
f 179 181 178
f 173 172 174
f 173 174 175
f 175 174 176
f 175 176 177
f 178 167 179
f 166 179 167
f 188 187 186
f 188 90 189
f 81 104 82
f 106 10 107
f 9 107 10
f 186 185 184
f 188 189 187
f 180 182 183
f 180 183 181
f 116 119 117
f 110 112 113
f 110 113 111
f 114 113 115
f 160 161 162
f 156 143 153
f 142 153 143
f 107 108 109
f 107 109 106
f 108 110 111
f 108 111 109
f 115 116 117
f 115 117 114
f 116 118 119
f 112 115 113
f 177 180 175
f 163 168 164
f 164 171 166
f 90 188 93
f 180 179 175
f 188 186 93
f 8 33 6
f 192 191 94
f 93 192 94
f 98 97 99
f 100 98 99
f 100 99 101
f 102 100 101
f 102 101 103
f 104 102 103
f 104 103 105
f 192 190 191
f 98 96 97
f 171 164 168
f 173 166 171
f 175 179 173
f 162 168 163
f 146 145 156
f 143 156 145
f 134 143 145
f 156 155 146
f 155 158 146
f 158 160 148
f 163 150 162
f 160 162 150
f 134 132 141
f 134 141 143
f 150 148 160
f 118 116 129
f 131 118 137
f 139 131 137
f 141 132 139
f 148 146 158
f 131 139 132
f 129 137 118
f 96 93 95
f 96 95 97
f 127 129 116
f 120 123 110
f 112 110 123
f 125 112 123
f 86 69 84
f 125 127 115
f 112 125 115
f 116 115 127
f 9 38 107
f 104 70 102
f 91 100 73
f 81 74 104
f 107 120 108
f 110 108 120
f 120 107 38
f 102 73 100
f 87 100 91
f 55 66 86
f 62 53 60
f 66 55 52
f 100 87 98
f 17 47 16
f 25 47 17
f 45 16 47
f 87 88 89
f 87 89 90
f 91 92 88
f 91 88 87
f 91 73 92
f 72 92 73
f 93 94 95
f 73 102 70
f 78 84 69
f 163 164 165
f 163 165 152
f 164 166 167
f 164 167 165
f 160 159 161
f 1 30 2
f 81 80 76
f 69 86 66
f 78 76 80
f 84 78 80
f 70 104 74
f 76 74 81
f 90 98 87
f 38 9 36
f 52 58 49
f 49 60 53
f 62 64 53
f 20 18 24
f 46 24 18
f 44 46 39
f 21 27 1
f 41 13 64
f 44 14 40
f 13 41 11
f 58 52 55
f 60 49 58
f 13 53 64
f 23 20 24
f 130 119 131
f 118 131 119
f 131 132 133
f 131 133 130
f 132 134 135
f 1 2 3
f 26 25 19
f 15 16 45
f 67 51 57
f 42 12 43
f 45 43 15
f 31 29 3
f 17 19 25
f 54 48 65
f 63 61 54
f 50 54 61
f 61 59 50
f 51 50 59
f 82 105 75
f 75 77 82
f 83 82 77
f 15 43 12
f 111 121 109
f 113 122 111
f 106 109 121
f 10 106 37
f 79 68 85
f 71 75 105
f 65 63 54
f 10 33 8
f 37 35 10
f 19 22 26
f 28 26 22
f 22 4 28
f 59 57 51
f 42 65 48
f 48 12 42
f 29 28 4
f 4 3 29
f 3 6 31
f 33 31 6
f 35 33 10
f 136 128 119
f 119 130 136
f 138 136 130
f 130 133 138
f 140 138 133
f 126 124 114
f 114 117 126
f 133 135 140
f 128 117 119
f 121 111 122
f 121 37 106
f 124 122 113
f 113 114 124
f 178 181 174
f 165 167 170
f 154 153 147
f 89 88 99
f 103 101 72
f 92 72 101
f 88 92 101
f 105 103 71
f 72 71 103
f 187 189 95
f 128 126 117
f 77 79 83
f 85 83 79
f 95 89 97
f 99 97 89
f 67 56 68
f 56 85 68
f 56 67 57
f 101 99 88
f 32 33 34
f 27 28 29
f 27 29 30
f 23 24 25
f 23 25 26
f 27 23 26
f 21 19 20
f 21 4 22
f 17 18 19
f 20 19 18
f 21 22 19
f 16 15 14
f 30 31 32
f 32 31 33
f 142 140 135
f 153 142 144
f 11 12 13
f 7 9 10
f 7 10 8
f 27 26 28
f 4 21 1
f 1 3 4
f 2 5 6
f 2 6 3
f 5 7 8
f 5 8 6
f 14 15 12
f 64 62 63
f 64 63 65
f 58 55 57
f 58 57 59
f 60 58 59
f 60 59 61
f 62 60 61
f 62 61 63
f 48 54 53
f 48 53 13
f 55 56 57
f 49 50 51
f 49 51 52
f 53 54 50
f 53 50 49
f 46 45 47
f 40 42 43
f 44 40 43
f 44 43 45
f 46 44 45
f 40 41 42
f 27 21 23
f 2 32 5
f 5 34 7
f 7 34 9
f 34 5 32
f 20 23 21
f 36 9 34
f 120 122 123
f 123 122 124
f 40 11 41
f 14 44 39
f 18 39 46
f 11 40 14
f 147 146 148
f 147 148 149
f 148 150 151
f 148 151 149
f 150 152 151
f 153 154 155
f 141 140 142
f 120 121 122
f 144 135 145
f 134 145 135
f 145 146 147
f 145 147 144
f 132 135 133
f 128 136 137
f 128 137 129
f 37 121 38
f 74 71 70
f 76 77 75
f 76 75 74
f 78 79 77
f 152 165 169
f 170 169 165
f 66 52 67
f 51 67 52
f 159 157 149
f 149 151 159
f 172 170 167
f 167 178 172
f 174 172 178
f 161 159 151
f 151 152 161
f 169 161 152
f 14 12 11
f 157 154 147
f 144 147 153
f 135 144 142
f 147 149 157
f 183 185 191
f 94 191 185
f 94 185 187
f 89 95 189
f 24 46 25
f 12 48 13
f 94 187 95
f 176 174 181
f 181 183 176
f 191 176 183
f 39 18 16
f 17 16 18
f 34 33 35
f 34 35 36
f 36 35 37
f 36 37 38
f 30 29 31
f 47 25 46
f 86 84 85
f 86 85 56
f 78 77 76
f 78 69 79
f 68 79 69
f 80 81 82
f 80 82 83
f 39 16 14
f 137 138 139
f 139 138 140
f 139 140 141
f 168 162 169
f 161 169 162
f 168 169 170
f 168 170 171
f 141 142 143
f 30 1 27
f 32 2 30
f 137 136 138
f 127 126 128
f 127 128 129
f 123 124 125
f 125 124 126
f 125 126 127
f 120 38 121

