# https://github.com/mikedh/trimesh
v 0.00385587 0.01756225 0.00600000
v 0.00385587 0.01756225 -0.00600000
v -0.00025748 0.01756225 -0.00600000
v -0.00025748 0.01756225 0.00600000
v 0.00385587 -0.02243775 0.00600000
v -0.01070041 0.00937682 0.00600000
v -0.00104491 0.01209154 0.00600000
v -0.00104491 0.01209154 -0.00600000
v -0.00074010 0.01240111 0.00600000
v -0.00074010 0.01240111 -0.00600000
v -0.00076709 0.01175180 -0.00600000
v -0.00079408 0.01103899 -0.00600000
v -0.00079408 0.01103899 0.00600000
v -0.00076709 0.01175180 0.00600000
v -0.00082107 0.01026426 -0.00600000
v -0.00082107 0.01026426 0.00600000
v -0.00084806 0.00944509 -0.00600000
v -0.00084806 0.00944509 0.00600000
v -0.00227368 0.01086912 -0.00600000
v -0.00227368 0.01086912 0.00600000
v -0.00254198 0.01065004 0.00600000
v -0.00254198 0.01065004 -0.00600000
v -0.00203078 0.01108820 0.00600000
v -0.00281027 0.01042143 0.00600000
v -0.00281027 0.01042143 -0.00600000
v -0.00203078 0.01108820 -0.00600000
v -0.00178947 0.01131681 -0.00600000
v -0.00178947 0.01131681 0.00600000
v -0.00154658 0.01155494 0.00600000
v -0.00308015 0.01018330 0.00600000
v -0.00308015 0.01018330 -0.00600000
v -0.00154658 0.01155494 -0.00600000
v -0.00131479 0.01181054 0.00600000
v -0.00131479 0.01181054 -0.00600000
v -0.00368819 0.00964670 -0.00600000
v -0.00368819 0.00964670 0.00600000
v -0.00404698 0.00933713 0.00600000
v -0.00404698 0.00933713 -0.00600000
v -0.00336591 0.00992770 -0.00600000
v -0.00336591 0.00992770 0.00600000
v -0.00087504 0.00859733 0.00600000
v -0.00087504 0.00859733 -0.00600000
v -0.00090203 0.00772418 -0.00600000
v -0.00090203 0.00772418 0.00600000
v -0.00092426 0.00683673 -0.00600000
v -0.00092426 0.00683673 0.00600000
v -0.00093696 0.00594929 -0.00600000
v -0.00093696 0.00594929 0.00600000
v -0.00094172 0.00506185 -0.00600000
v -0.00094172 0.00506185 0.00600000
v -0.00807936 0.00603026 -0.00600000
v -0.00807936 0.00603026 0.00600000
v -0.00094172 -0.02243775 -0.00600000
v -0.00094172 -0.02243775 0.00600000
v 0.00385587 -0.02243775 -0.00600000
v -0.01070041 0.00937682 -0.00600000
f 56 51 52
f 56 52 6
f 47 45 2
f 49 47 2
f 53 49 55
f 43 2 45
f 42 2 43
f 17 2 42
f 27 28 23
f 27 23 26
f 29 28 27
f 22 21 24
f 7 8 9
f 10 9 8
f 11 12 13
f 11 13 14
f 22 24 25
f 9 11 14
f 23 20 19
f 25 30 31
f 32 29 27
f 10 11 9
f 26 23 19
f 6 4 3
f 31 39 56
f 5 2 1
f 19 3 26
f 10 2 11
f 17 15 2
f 23 28 4
f 8 3 10
f 2 10 3
f 13 16 1
f 18 1 16
f 15 17 18
f 20 23 4
f 24 21 6
f 28 29 4
f 1 2 3
f 1 3 4
f 22 3 19
f 25 31 56
f 12 15 16
f 12 16 13
f 1 9 14
f 14 13 1
f 1 4 9
f 33 4 29
f 19 21 22
f 38 37 51
f 5 55 2
f 15 18 16
f 27 3 32
f 51 56 38
f 35 38 56
f 39 35 56
f 49 54 50
f 49 53 54
f 17 42 18
f 41 18 42
f 43 46 44
f 47 50 48
f 47 49 50
f 45 48 46
f 3 22 56
f 2 55 49
f 34 33 32
f 3 56 6
f 44 46 1
f 46 48 1
f 39 31 40
f 39 36 35
f 52 51 37
f 45 47 48
f 30 40 31
f 29 32 33
f 4 6 21
f 25 56 22
f 8 34 3
f 26 3 27
f 30 24 6
f 37 36 6
f 36 40 6
f 34 32 3
f 4 7 9
f 21 20 4
f 33 7 4
f 40 30 6
f 11 2 12
f 15 12 2
f 50 54 5
f 52 37 6
f 44 1 41
f 18 41 1
f 5 1 50
f 48 50 1
f 43 45 46
f 8 7 33
f 35 37 38
f 35 36 37
f 8 33 34
f 42 43 44
f 19 20 21
f 42 44 41
f 25 24 30
f 55 54 53
f 55 5 54
f 39 40 36

