# https://github.com/mikedh/trimesh
v 0.00606717 0.01992178 -0.00600000
v 0.00606717 0.01992178 0.00600000
v 0.00711444 0.01909211 0.00600000
v 0.00488840 0.02061057 -0.00600000
v 0.00488840 0.02061057 0.00600000
v 0.00357656 0.02115848 -0.00600000
v 0.00357656 0.02115848 0.00600000
v 0.00211758 0.02157958 -0.00600000
v 0.00211758 0.02157958 0.00600000
v 0.00055370 0.02183005 -0.00600000
v 0.00055370 0.02183005 0.00600000
v -0.00111661 0.02191458 -0.00600000
v -0.00111661 0.02191458 0.00600000
v -0.00226408 0.02187075 -0.00600000
v -0.00226408 0.02187075 0.00600000
v -0.00337710 0.02173769 -0.00600000
v -0.00337710 0.02173769 0.00600000
v -0.00445569 0.02151696 -0.00600000
v -0.00445569 0.02151696 0.00600000
v -0.00549827 0.02125240 -0.00600000
v -0.00549827 0.02125240 0.00600000
v -0.00650641 0.02093305 -0.00600000
v -0.00650641 0.02093305 0.00600000
v -0.00747854 0.02056205 -0.00600000
v -0.00747854 0.02056205 0.00600000
v -0.00840998 0.02011590 -0.00600000
v -0.00840998 0.02011590 0.00600000
v -0.00929758 0.01962592 -0.00600000
v -0.00929758 0.01962592 0.00600000
v 0.01008408 0.01292429 -0.00600000
v 0.01008408 0.01292429 0.00600000
v 0.01017644 0.01133850 -0.00600000
v 0.00980543 0.01439580 -0.00600000
v 0.00980543 0.01439580 0.00600000
v 0.00934206 0.01575146 -0.00600000
v 0.00934206 0.01575146 0.00600000
v 0.00874093 0.01698816 -0.00600000
v 0.00874093 0.01698816 0.00600000
v 0.00799892 0.01810118 -0.00600000
v 0.00799892 0.01810118 0.00600000
v 0.00711444 0.01909211 -0.00600000
v 0.00472872 0.01396217 -0.00600000
v 0.00497293 0.01310431 -0.00600000
v 0.00497293 0.01310431 0.00600000
v 0.00472872 0.01396217 0.00600000
v 0.00437180 0.01471828 -0.00600000
v 0.00437180 0.01471828 0.00600000
v 0.00393348 0.01539298 -0.00600000
v 0.00393348 0.01539298 0.00600000
v 0.00341689 0.01598941 -0.00600000
v 0.00341689 0.01598941 0.00600000
v 0.00280324 0.01652479 0.00600000
v 0.00280324 0.01652479 -0.00600000
v 0.00212697 0.01696155 0.00600000
v 0.00212697 0.01696155 -0.00600000
v 0.00946103 0.00696468 -0.00600000
v 0.00946103 0.00696468 0.00600000
v 0.00892252 0.00559492 -0.00600000
v 0.00985865 0.00838609 -0.00600000
v 0.00985865 0.00838609 0.00600000
v 0.01009660 0.00984508 -0.00600000
v 0.01009660 0.00984508 0.00600000
v 0.01017644 0.01133850 0.00600000
v 0.00490092 0.00856299 -0.00600000
v 0.00457061 0.00736230 -0.00600000
v 0.00457061 0.00736230 0.00600000
v 0.00490092 0.00856299 0.00600000
v 0.00509973 0.00983568 -0.00600000
v 0.00509973 0.00983568 0.00600000
v 0.00516704 0.01117883 -0.00600000
v 0.00516704 0.01117883 0.00600000
v 0.00511851 0.01217758 -0.00600000
v 0.00511851 0.01217758 0.00600000
v -0.01014135 0.01909211 0.00600000
v -0.01014135 0.01909211 -0.00600000
v -0.01094598 0.01849880 -0.00600000
v -0.01094598 0.01849880 0.00600000
v -0.01244880 0.01726211 -0.00600000
v -0.00970459 0.01404201 -0.00600000
v -0.00970459 0.01404201 0.00600000
v -0.01244880 0.01726211 0.00600000
v 0.00138965 0.01730281 -0.00600000
v 0.00138965 0.01730281 0.00600000
v 0.00058971 0.01752353 0.00600000
v 0.00058971 0.01752353 -0.00600000
v -0.00027128 0.01765503 0.00600000
v -0.00027128 0.01765503 -0.00600000
v -0.00119488 0.01770043 0.00600000
v -0.00119488 0.01770043 -0.00600000
v -0.00283859 0.01758459 0.00600000
v -0.00283859 0.01758459 -0.00600000
v -0.00437585 0.01724019 0.00600000
v -0.00437585 0.01724019 -0.00600000
v -0.00580822 0.01666568 0.00600000
v -0.00580822 0.01666568 -0.00600000
v -0.00715919 0.01593305 0.00600000
v -0.00715919 0.01593305 -0.00600000
v -0.00845851 0.01505797 0.00600000
v -0.00845851 0.01505797 -0.00600000
v 0.00329322 -0.00251716 -0.00600000
v 0.00329322 -0.00251716 0.00600000
v 0.00203461 -0.00392136 0.00600000
v 0.00203461 -0.00392136 -0.00600000
v 0.00449078 -0.00114741 -0.00600000
v 0.00449078 -0.00114741 0.00600000
v 0.00559910 0.00020513 -0.00600000
v 0.00559910 0.00020513 0.00600000
v 0.00659315 0.00155609 -0.00600000
v 0.00659315 0.00155609 0.00600000
v 0.00747293 0.00290863 -0.00600000
v 0.00747293 0.00290863 0.00600000
v 0.00825878 0.00424239 -0.00600000
v 0.00825878 0.00424239 0.00600000
v 0.00892252 0.00559492 0.00600000
v 0.00285959 0.00390268 -0.00600000
v 0.00206591 0.00274896 -0.00600000
v 0.00206591 0.00274896 0.00600000
v 0.00285959 0.00390268 0.00600000
v 0.00354525 0.00504702 -0.00600000
v 0.00354525 0.00504702 0.00600000
v 0.00411507 0.00619918 -0.00600000
v 0.00411507 0.00619918 0.00600000
v 0.00071338 -0.00536156 -0.00600000
v 0.00071338 -0.00536156 0.00600000
v -0.00684141 -0.01339381 -0.00600000
v -0.00215919 -0.00219938 -0.00600000
v -0.00346164 -0.00361297 -0.00600000
v -0.00346164 -0.00361297 0.00600000
v -0.00215919 -0.00219938 0.00600000
v -0.00095224 -0.00087346 -0.00600000
v -0.00095224 -0.00087346 0.00600000
v 0.00015608 0.00036324 -0.00600000
v 0.00015608 0.00036324 0.00600000
v 0.00116423 0.00157019 -0.00600000
v 0.00116423 0.00157019 0.00600000
v -0.00684141 -0.01339381 0.00600000
v -0.01284642 -0.01391040 -0.00600000
v -0.01284642 -0.01391040 0.00600000
v -0.00684141 -0.01363332 0.00600000
v -0.00684141 -0.01363332 -0.00600000
v 0.01172778 -0.01363332 0.00600000
v 0.01172778 -0.01363332 -0.00600000
v 0.01172778 -0.01808542 0.00600000
v 0.01172778 -0.01808542 -0.00600000
v -0.01171461 0.01788985 0.00600000
v -0.01171461 0.01788985 -0.00600000
v -0.01284642 -0.01808542 0.00600000
v -0.01284642 -0.01808542 -0.00600000
f 1 5 2
f 4 6 7
f 4 7 5
f 33 34 31
f 35 36 34
f 20 22 23
f 20 23 21
f 37 38 36
f 37 36 35
f 39 40 38
f 39 38 37
f 41 3 40
f 41 40 39
f 14 17 15
f 16 18 19
f 35 34 33
f 30 31 32
f 33 31 30
f 24 27 25
f 26 28 29
f 26 29 27
f 10 12 13
f 10 13 11
f 62 63 71
f 31 73 63
f 69 67 60
f 137 140 148
f 84 83 9
f 9 11 84
f 13 15 88
f 38 40 47
f 47 45 38
f 5 7 54
f 52 51 2
f 60 62 69
f 44 73 31
f 71 63 73
f 69 62 71
f 66 122 114
f 114 57 66
f 54 52 5
f 2 5 52
f 49 47 40
f 40 3 49
f 51 49 3
f 3 2 51
f 95 94 96
f 95 96 97
f 97 96 98
f 87 86 88
f 119 118 120
f 57 114 58
f 54 83 55
f 87 88 89
f 132 130 131
f 132 131 133
f 82 83 84
f 82 84 85
f 85 84 86
f 85 86 87
f 82 55 83
f 99 98 80
f 99 80 79
f 89 88 90
f 89 90 91
f 91 90 92
f 91 92 93
f 93 92 94
f 93 94 95
f 58 114 113
f 58 113 112
f 100 101 102
f 100 102 103
f 104 105 101
f 104 101 100
f 97 98 99
f 133 131 101
f 117 135 107
f 118 117 107
f 129 128 124
f 136 138 139
f 124 128 136
f 138 136 128
f 131 129 102
f 101 105 133
f 105 107 135
f 19 21 92
f 113 114 122
f 122 120 113
f 118 109 120
f 107 109 118
f 111 120 109
f 113 120 111
f 83 54 7
f 7 9 83
f 57 60 67
f 77 145 98
f 80 98 145
f 135 133 105
f 112 113 111
f 112 111 110
f 116 106 134
f 45 44 34
f 34 36 45
f 36 38 45
f 78 146 79
f 121 120 122
f 122 66 121
f 106 107 105
f 106 105 104
f 108 109 107
f 108 107 106
f 110 111 109
f 110 109 108
f 123 103 124
f 102 124 103
f 121 119 120
f 134 132 133
f 134 133 135
f 65 121 66
f 115 116 117
f 115 117 118
f 119 115 118
f 98 96 74
f 74 77 98
f 90 88 15
f 15 17 90
f 17 19 90
f 92 90 19
f 147 139 138
f 102 101 131
f 124 102 129
f 145 77 146
f 76 146 77
f 11 13 86
f 88 86 13
f 141 140 139
f 135 117 134
f 126 127 128
f 126 128 129
f 130 126 129
f 130 129 131
f 123 124 125
f 127 138 128
f 146 78 81
f 141 143 144
f 141 144 142
f 125 136 139
f 125 139 140
f 141 142 140
f 99 79 146
f 76 75 99
f 116 134 117
f 124 136 125
f 127 137 138
f 125 140 137
f 144 148 140
f 146 81 145
f 137 147 138
f 97 99 75
f 97 75 28
f 142 144 140
f 76 99 146
f 137 127 125
f 130 103 126
f 132 100 130
f 134 104 132
f 123 126 103
f 103 130 100
f 125 127 123
f 126 123 127
f 24 22 95
f 93 95 22
f 55 4 53
f 53 1 50
f 67 66 57
f 143 141 139
f 147 143 139
f 81 80 145
f 6 82 8
f 4 55 6
f 95 97 26
f 50 41 48
f 18 16 91
f 16 14 91
f 89 91 14
f 12 89 14
f 10 87 12
f 8 85 10
f 20 18 93
f 22 20 93
f 91 93 18
f 23 25 94
f 25 27 94
f 106 115 108
f 104 134 106
f 26 24 95
f 1 53 4
f 31 34 44
f 28 26 97
f 94 92 23
f 21 23 92
f 58 112 121
f 96 94 27
f 27 29 96
f 29 74 96
f 86 84 11
f 110 119 112
f 108 119 110
f 143 147 148
f 143 148 144
f 100 132 104
f 119 108 115
f 58 121 65
f 68 59 64
f 115 106 116
f 119 121 112
f 64 56 65
f 59 68 61
f 56 64 59
f 73 44 72
f 43 72 44
f 33 42 35
f 1 41 50
f 75 76 77
f 75 77 74
f 78 79 80
f 78 80 81
f 137 148 147
f 70 61 68
f 28 75 29
f 74 29 75
f 30 43 33
f 32 72 30
f 39 48 41
f 37 46 39
f 35 42 37
f 70 68 69
f 70 69 71
f 43 30 72
f 46 37 42
f 42 33 43
f 48 39 46
f 82 6 55
f 61 60 59
f 50 51 52
f 72 70 71
f 72 71 73
f 64 65 66
f 64 66 67
f 68 64 67
f 68 67 69
f 32 63 62
f 32 62 61
f 31 63 32
f 59 60 57
f 59 57 56
f 61 62 60
f 50 52 53
f 53 52 54
f 53 54 55
f 56 57 58
f 50 49 51
f 42 43 44
f 87 10 85
f 48 46 47
f 48 47 49
f 50 48 49
f 32 61 70
f 32 70 72
f 42 44 45
f 46 42 45
f 46 45 47
f 41 1 3
f 22 24 25
f 22 25 23
f 24 26 27
f 12 14 15
f 12 15 13
f 14 16 17
f 85 8 82
f 89 12 87
f 58 65 56
f 16 19 17
f 18 20 21
f 18 21 19
f 8 11 9
f 8 10 11
f 1 2 3
f 1 4 5
f 6 9 7
f 6 8 9

