# https://github.com/mikedh/trimesh
v 0.00815597 -0.01542473 -0.00600000
v 0.00815597 -0.01542473 0.00600000
v 0.00710147 -0.01653172 0.00600000
v 0.00710147 -0.01653172 -0.00600000
v 0.00901748 -0.01419576 -0.00600000
v -0.00220994 -0.01557294 -0.00600000
v -0.00376159 -0.01563007 -0.00600000
v -0.00376159 -0.01563007 0.00600000
v -0.00220994 -0.01557294 0.00600000
v -0.00079879 -0.01540311 -0.00600000
v -0.00079879 -0.01540311 0.00600000
v 0.00047340 -0.01512057 -0.00600000
v 0.00047340 -0.01512057 0.00600000
v 0.00158503 -0.01471143 -0.00600000
v 0.00158503 -0.01471143 0.00600000
v -0.00368285 -0.01974771 -0.00600000
v -0.00368285 -0.01974771 0.00600000
v -0.00558342 -0.01969522 -0.00600000
v -0.00135615 -0.01965662 -0.00600000
v -0.00135615 -0.01965662 0.00600000
v 0.00076057 -0.01938180 -0.00600000
v 0.00076057 -0.01938180 0.00600000
v -0.01237205 -0.01388698 -0.00600000
v -0.01395766 -0.01315979 -0.00600000
v -0.01395766 -0.01315979 0.00600000
v -0.01237205 -0.01388698 0.00600000
v -0.01069844 -0.01450146 -0.00600000
v -0.01069844 -0.01450146 0.00600000
v -0.01395766 -0.01766959 -0.00600000
v -0.00893837 -0.01500323 -0.00600000
v -0.00893837 -0.01500323 0.00600000
v -0.00717829 -0.01535062 -0.00600000
v -0.00717829 -0.01535062 0.00600000
v -0.00545218 -0.01556059 -0.00600000
v -0.00545218 -0.01556059 0.00600000
v -0.01395766 -0.01766959 0.00600000
v -0.01243227 -0.01837053 -0.00600000
v -0.01243227 -0.01837053 0.00600000
v -0.01083739 -0.01890627 -0.00600000
v -0.01083739 -0.01890627 0.00600000
v -0.00917304 -0.01927682 -0.00600000
v -0.00917304 -0.01927682 0.00600000
v -0.00741297 -0.01953928 -0.00600000
v -0.00741297 -0.01953928 0.00600000
v -0.00558342 -0.01969522 0.00600000
v 0.00929230 0.01192127 -0.00600000
v 0.00937567 0.01056571 -0.00600000
v 0.00438262 0.01113696 -0.00600000
v 0.00443511 0.01025229 -0.00600000
v 0.00930619 0.00929814 -0.00600000
v 0.00909622 0.00810777 -0.00600000
v 0.00436872 0.00920705 -0.00600000
v 0.01059074 -0.00817909 -0.00600000
v 0.00557144 -0.00688064 -0.00600000
v 0.01031746 -0.00577365 -0.00600000
v 0.00533676 -0.00586165 -0.00600000
v 0.00949301 -0.00368163 -0.00600000
v 0.00374189 -0.00344696 -0.00600000
v 0.00622452 -0.00051041 -0.00600000
v 0.00440886 -0.00415253 -0.00600000
v 0.00968909 -0.01284637 -0.00600000
v 0.00540624 -0.01021861 -0.00600000
v 0.01019086 -0.01138582 -0.00600000
v 0.00510054 -0.01119900 -0.00600000
v -0.00984002 0.01865278 -0.00600000
v -0.00889977 0.01903722 -0.00600000
v -0.00725240 0.01523299 -0.00600000
v -0.00788850 0.01937688 -0.00600000
v -0.00571774 0.01571161 -0.00600000
v -0.00684171 0.01966405 -0.00600000
v -0.00576097 0.01989873 -0.00600000
v -0.00463699 0.02009481 -0.00600000
v -0.00404567 0.01600032 -0.00600000
v -0.00346052 0.02021369 -0.00600000
v -0.00223310 0.02025229 -0.00600000
v -0.00223310 0.01609604 -0.00600000
v -0.00040201 0.02016891 -0.00600000
v -0.00126506 0.01605127 -0.00600000
v 0.00127161 0.01992189 -0.00600000
v -0.00034951 0.01592158 -0.00600000
v 0.00278774 0.01950657 -0.00600000
v 0.00051354 0.01570389 -0.00600000
v 0.00414640 0.01897083 -0.00600000
v 0.00128396 0.01540282 -0.00600000
v 0.00534911 0.01830385 -0.00600000
v 0.00197718 0.01502301 -0.00600000
v 0.00360139 0.01341579 -0.00600000
v 0.00805098 0.01557265 -0.00600000
v 0.00396421 0.01272257 -0.00600000
v 0.00639590 0.01750719 -0.00600000
v 0.00730527 0.01659164 -0.00600000
v 0.00314439 0.01403027 -0.00600000
v 0.00259167 0.01456601 -0.00600000
v 0.00422514 0.01195987 -0.00600000
v 0.00862995 0.01444868 -0.00600000
v -0.00866818 0.01457528 -0.00600000
v 0.00417264 0.00821276 -0.00600000
v 0.00827794 0.00599569 -0.00600000
v 0.00384533 0.00727251 -0.00600000
v 0.00339296 0.00642181 -0.00600000
v 0.00702273 0.00425260 -0.00600000
v 0.00770206 0.00508014 -0.00600000
v 0.00904373 0.01321508 -0.00600000
v 0.00874729 0.00699769 -0.00600000
v -0.01072932 0.01823438 -0.00600000
v -0.01004073 0.01380332 -0.00600000
v -0.01156612 0.01778201 -0.00600000
v -0.01237205 0.01729876 -0.00600000
v -0.01380173 0.01625198 -0.00600000
v -0.01311622 0.01678772 -0.00600000
v -0.01137005 0.01291864 -0.00600000
v 0.00624305 0.00351151 -0.00600000
v 0.00536610 0.00285843 -0.00600000
v 0.00281708 0.00565139 -0.00600000
v 0.00439497 0.00229181 -0.00600000
v 0.00212077 0.00495817 -0.00600000
v 0.00331422 0.00184253 -0.00600000
v 0.00094430 0.00123268 -0.00600000
v 0.00037768 0.00384346 -0.00600000
v 0.00216400 0.00149051 -0.00600000
v 0.00294368 -0.00284637 -0.00600000
v 0.00383298 0.00048387 -0.00600000
v -0.00066447 0.00342814 -0.00600000
v -0.00183940 0.00314560 -0.00600000
v 0.00130558 0.00435295 -0.00600000
v 0.00094430 0.00107520 -0.00600000
v -0.00299117 -0.00128083 -0.00600000
v 0.00092268 -0.00194009 -0.00600000
v 0.00494461 -0.00496309 -0.00600000
v 0.00558842 -0.00915948 -0.00600000
v 0.01049038 -0.00983108 -0.00600000
v 0.00812046 -0.00190457 -0.00600000
v -0.00027232 -0.00162976 -0.00600000
v 0.00199417 -0.00234459 -0.00600000
v -0.00157848 -0.00141206 -0.00600000
v -0.00450730 -0.00123760 -0.00600000
v -0.00450730 0.00291865 -0.00600000
v -0.00803671 -0.00123760 -0.00600000
v -0.00803671 0.00291865 -0.00600000
v -0.00312086 0.00297577 -0.00600000
v 0.00341458 -0.01363068 -0.00600000
v 0.00582464 -0.01747815 -0.00600000
v 0.00256542 -0.01421429 -0.00600000
v 0.00466979 -0.01211301 -0.00600000
v 0.00266886 -0.01892480 -0.00600000
v 0.00410780 -0.01292357 -0.00600000
v 0.00434711 -0.01827481 -0.00600000
v 0.00565018 -0.00802161 -0.00600000
v 0.00930619 0.00929814 0.00600000
v 0.00436872 0.00920705 0.00600000
v 0.00909622 0.00810777 0.00600000
v 0.00937567 0.01056571 0.00600000
v 0.00443511 0.01025229 0.00600000
v 0.00929230 0.01192127 0.00600000
v 0.00438262 0.01113696 0.00600000
v 0.00862995 0.01444868 0.00600000
v 0.00805098 0.01557265 0.00600000
v 0.00396421 0.01272257 0.00600000
v 0.00360139 0.01341579 0.00600000
v 0.00949301 -0.00368163 0.00600000
v 0.00812046 -0.00190457 0.00600000
v 0.00494461 -0.00496309 0.00600000
v 0.00533676 -0.00586165 0.00600000
v 0.01019086 -0.01138582 0.00600000
v 0.01049038 -0.00983108 0.00600000
v 0.00540624 -0.01021861 0.00600000
v 0.00558842 -0.00915948 0.00600000
v -0.00788850 0.01937688 0.00600000
v -0.00889977 0.01903722 0.00600000
v -0.00725240 0.01523299 0.00600000
v -0.00571774 0.01571161 0.00600000
v -0.00984002 0.01865278 0.00600000
v -0.00866818 0.01457528 0.00600000
v -0.01072932 0.01823438 0.00600000
v -0.01156612 0.01778201 0.00600000
v -0.01004073 0.01380332 0.00600000
v -0.01237205 0.01729876 0.00600000
v -0.01311622 0.01678772 0.00600000
v 0.00278774 0.01950657 0.00600000
v 0.00127161 0.01992189 0.00600000
v 0.00051354 0.01570389 0.00600000
v -0.00040201 0.02016891 0.00600000
v -0.00034951 0.01592158 0.00600000
v -0.00223310 0.02025229 0.00600000
v -0.00126506 0.01605127 0.00600000
v 0.00904373 0.01321508 0.00600000
v 0.00422514 0.01195987 0.00600000
v 0.00730527 0.01659164 0.00600000
v 0.00874729 0.00699769 0.00600000
v 0.00259167 0.01456601 0.00600000
v 0.00314439 0.01403027 0.00600000
v 0.00639590 0.01750719 0.00600000
v 0.00534911 0.01830385 0.00600000
v 0.00414640 0.01897083 0.00600000
v 0.00197718 0.01502301 0.00600000
v 0.00128396 0.01540282 0.00600000
v -0.00223310 0.01609604 0.00600000
v -0.00346052 0.02021369 0.00600000
v 0.00339296 0.00642181 0.00600000
v 0.00281708 0.00565139 0.00600000
v 0.00624305 0.00351151 0.00600000
v 0.01031746 -0.00577365 0.00600000
v 0.00702273 0.00425260 0.00600000
v 0.00417264 0.00821276 0.00600000
v 0.00901748 -0.01419576 0.00600000
v 0.00827794 0.00599569 0.00600000
v 0.00968909 -0.01284637 0.00600000
v -0.00404567 0.01600032 0.00600000
v 0.01059074 -0.00817909 0.00600000
v -0.00463699 0.02009481 0.00600000
v -0.00576097 0.01989873 0.00600000
v -0.00684171 0.01966405 0.00600000
v -0.01137005 0.01291864 0.00600000
v -0.01380173 0.01625198 0.00600000
v 0.00384533 0.00727251 0.00600000
v 0.00770206 0.00508014 0.00600000
v 0.00536610 0.00285843 0.00600000
v 0.00212077 0.00495817 0.00600000
v 0.00439497 0.00229181 0.00600000
v 0.00331422 0.00184253 0.00600000
v -0.00299117 -0.00128083 0.00600000
v -0.00157848 -0.00141206 0.00600000
v 0.00094430 0.00107520 0.00600000
v -0.00066447 0.00342814 0.00600000
v -0.00183940 0.00314560 0.00600000
v 0.00094430 0.00123268 0.00600000
v 0.00037768 0.00384346 0.00600000
v 0.00216400 0.00149051 0.00600000
v 0.00130558 0.00435295 0.00600000
v -0.00027232 -0.00162976 0.00600000
v 0.00557144 -0.00688064 0.00600000
v 0.00565018 -0.00802161 0.00600000
v 0.00622452 -0.00051041 0.00600000
v 0.00440886 -0.00415253 0.00600000
v 0.00294368 -0.00284637 0.00600000
v 0.00374189 -0.00344696 0.00600000
v 0.00383298 0.00048387 0.00600000
v 0.00092268 -0.00194009 0.00600000
v 0.00199417 -0.00234459 0.00600000
v -0.00312086 0.00297577 0.00600000
v -0.00450730 0.00291865 0.00600000
v -0.00450730 -0.00123760 0.00600000
v -0.00803671 0.00291865 0.00600000
v -0.00803671 -0.00123760 0.00600000
v 0.00256542 -0.01421429 0.00600000
v 0.00434711 -0.01827481 0.00600000
v 0.00582464 -0.01747815 0.00600000
v 0.00341458 -0.01363068 0.00600000
v 0.00410780 -0.01292357 0.00600000
v 0.00466979 -0.01211301 0.00600000
v 0.00510054 -0.01119900 0.00600000
v 0.00266886 -0.01892480 0.00600000
f 58 236 235
f 34 32 33
f 34 33 35
f 29 36 25
f 35 8 34
f 7 34 8
f 30 27 28
f 30 28 31
f 211 212 171
f 212 168 171
f 213 176 178
f 213 178 214
f 85 83 194
f 85 194 193
f 83 81 179
f 83 179 194
f 81 79 180
f 81 180 179
f 79 77 182
f 79 182 180
f 204 215 206
f 203 216 215
f 215 199 203
f 216 206 215
f 201 200 217
f 218 219 200
f 220 219 218
f 217 200 219
f 77 75 184
f 77 184 182
f 75 74 198
f 75 198 184
f 59 237 233
f 124 140 240
f 124 240 225
f 232 231 148
f 54 148 231
f 64 144 250
f 64 250 251
f 145 252 22
f 41 42 40
f 41 40 39
f 43 44 42
f 119 224 227
f 125 119 227
f 120 228 118
f 228 120 117
f 59 122 237
f 2 1 5
f 6 7 8
f 6 8 9
f 1 2 3
f 37 38 36
f 37 36 29
f 39 40 38
f 39 38 37
f 32 30 31
f 19 20 17
f 10 6 9
f 10 9 11
f 12 10 11
f 12 11 13
f 14 12 13
f 14 13 15
f 64 5 144
f 62 61 64
f 145 14 147
f 53 131 130
f 147 143 142
f 53 54 55
f 55 56 57
f 58 59 60
f 143 147 14
f 146 144 1
f 54 53 148
f 131 63 62
f 10 19 6
f 14 145 12
f 12 21 10
f 16 6 19
f 6 16 7
f 29 24 23
f 27 37 23
f 30 39 27
f 32 34 43
f 18 43 34
f 18 7 16
f 19 10 21
f 148 53 130
f 4 146 1
f 37 27 39
f 41 39 30
f 30 32 41
f 29 23 37
f 43 41 32
f 18 34 7
f 140 127 137
f 66 68 67
f 69 67 68
f 70 69 68
f 71 69 70
f 72 73 71
f 119 118 123
f 118 127 124
f 21 12 145
f 146 4 141
f 127 126 135
f 57 129 132
f 132 60 59
f 136 137 127
f 138 139 136
f 139 137 136
f 87 88 89
f 65 66 67
f 62 130 131
f 121 59 58
f 60 132 129
f 124 127 140
f 141 142 143
f 5 1 144
f 61 62 63
f 74 73 72
f 75 76 74
f 77 78 75
f 79 80 77
f 81 82 79
f 83 84 81
f 85 86 83
f 160 161 162
f 162 163 160
f 42 31 40
f 44 33 42
f 45 35 44
f 67 170 173
f 67 173 96
f 96 173 176
f 177 178 176
f 179 180 181
f 182 183 180
f 123 118 124
f 116 117 125
f 125 120 119
f 120 125 117
f 126 127 118
f 114 100 112
f 101 112 100
f 52 51 97
f 118 119 120
f 59 121 122
f 174 175 173
f 176 173 175
f 175 177 176
f 122 128 126
f 56 55 54
f 129 57 56
f 133 126 128
f 128 122 134
f 135 126 133
f 134 122 121
f 117 116 115
f 112 113 114
f 113 115 114
f 116 114 115
f 184 185 182
f 154 186 187
f 103 186 154
f 105 65 96
f 96 106 107
f 154 155 152
f 156 157 158
f 159 158 157
f 108 107 106
f 107 105 96
f 109 110 111
f 106 111 110
f 108 106 110
f 50 149 151
f 50 151 51
f 47 152 149
f 47 149 50
f 190 193 195
f 154 152 47
f 149 150 151
f 152 153 149
f 96 176 106
f 106 176 213
f 69 170 67
f 17 8 45
f 35 45 8
f 31 28 40
f 31 42 33
f 35 33 44
f 252 13 22
f 20 22 11
f 106 213 111
f 117 220 228
f 52 204 150
f 49 52 150
f 49 150 153
f 48 49 153
f 108 110 178
f 108 178 177
f 155 187 48
f 94 48 187
f 11 9 20
f 17 20 9
f 98 206 216
f 98 216 102
f 109 111 213
f 109 213 214
f 252 246 15
f 15 13 252
f 11 22 13
f 189 206 98
f 189 98 104
f 107 108 177
f 173 170 172
f 172 174 173
f 25 36 26
f 28 26 38
f 36 38 26
f 110 109 214
f 110 214 178
f 38 40 28
f 104 97 51
f 164 165 166
f 167 166 165
f 168 169 170
f 170 171 168
f 169 172 170
f 100 99 101
f 102 101 99
f 76 197 208
f 76 208 73
f 151 204 189
f 61 207 205
f 61 205 5
f 63 164 207
f 63 207 61
f 131 165 164
f 250 249 2
f 3 2 249
f 82 183 80
f 80 183 185
f 80 185 78
f 245 15 246
f 78 185 197
f 78 197 76
f 48 153 155
f 9 8 17
f 247 3 248
f 248 245 247
f 246 247 245
f 73 208 69
f 249 248 3
f 116 200 114
f 207 164 166
f 52 97 204
f 100 114 200
f 100 200 199
f 205 207 251
f 251 250 205
f 2 205 250
f 99 100 199
f 244 242 243
f 82 181 183
f 208 171 69
f 69 171 170
f 97 215 204
f 232 167 209
f 165 209 167
f 166 251 207
f 196 179 181
f 181 180 183
f 185 183 182
f 69 71 73
f 67 96 65
f 97 98 99
f 191 159 188
f 158 187 156
f 49 50 52
f 102 99 98
f 103 46 94
f 98 97 104
f 95 103 94
f 89 95 94
f 154 47 46
f 196 195 194
f 193 194 195
f 188 192 191
f 82 81 84
f 78 77 80
f 76 75 78
f 80 79 82
f 73 74 76
f 103 154 46
f 234 162 161
f 89 94 187
f 157 188 159
f 157 156 95
f 51 151 189
f 51 189 104
f 190 191 192
f 193 190 192
f 92 159 191
f 233 237 235
f 90 192 188
f 90 188 91
f 90 85 192
f 202 160 163
f 231 232 209
f 161 233 234
f 99 199 215
f 97 99 215
f 89 187 158
f 87 89 158
f 87 158 159
f 235 236 233
f 236 234 233
f 92 87 159
f 239 235 237
f 230 238 223
f 190 195 86
f 190 86 93
f 72 71 211
f 72 211 210
f 71 70 212
f 71 212 211
f 84 181 82
f 240 241 221
f 242 221 241
f 243 242 241
f 92 191 190
f 92 190 93
f 237 223 238
f 238 239 237
f 86 85 93
f 90 93 85
f 153 152 155
f 206 189 204
f 225 240 221
f 86 195 196
f 86 196 84
f 84 196 181
f 95 156 186
f 95 186 103
f 131 164 63
f 48 94 46
f 87 92 91
f 91 88 87
f 95 89 88
f 84 83 86
f 91 188 157
f 91 157 88
f 163 231 202
f 65 105 174
f 65 174 172
f 223 226 221
f 226 225 221
f 222 230 223
f 93 90 92
f 197 185 184
f 184 198 197
f 194 179 196
f 199 200 201
f 55 202 53
f 88 157 95
f 209 202 231
f 57 160 202
f 57 202 55
f 204 151 150
f 150 149 153
f 2 5 205
f 186 156 187
f 155 154 187
f 90 91 92
f 224 225 226
f 70 68 168
f 70 168 212
f 227 228 229
f 221 222 223
f 74 72 210
f 74 210 198
f 201 203 199
f 136 244 138
f 129 56 163
f 129 163 162
f 60 129 162
f 60 162 234
f 58 60 234
f 58 234 236
f 241 240 137
f 118 223 126
f 58 235 121
f 121 235 239
f 121 239 134
f 134 239 238
f 134 238 128
f 128 238 230
f 136 242 244
f 218 229 220
f 228 220 229
f 227 224 226
f 101 203 201
f 101 201 112
f 101 102 203
f 216 203 102
f 118 226 223
f 105 107 175
f 105 175 174
f 107 177 175
f 68 66 169
f 68 169 168
f 66 65 172
f 66 172 169
f 226 228 227
f 208 197 198
f 53 209 165
f 53 165 131
f 198 210 208
f 202 209 53
f 210 211 208
f 85 193 192
f 171 208 211
f 116 125 229
f 116 229 218
f 116 218 200
f 136 127 242
f 228 226 118
f 128 230 133
f 133 230 222
f 133 222 135
f 223 237 126
f 122 126 237
f 56 54 231
f 56 231 163
f 112 201 217
f 112 217 113
f 135 222 221
f 125 227 229
f 140 137 240
f 244 243 138
f 139 138 243
f 221 242 127
f 132 59 233
f 132 233 161
f 137 139 243
f 137 243 241
f 113 217 219
f 113 219 115
f 46 47 48
f 49 48 47
f 50 49 47
f 51 52 50
f 5 64 61
f 4 142 141
f 143 14 15
f 143 15 245
f 141 143 245
f 141 245 248
f 146 141 248
f 146 248 249
f 144 146 249
f 144 249 250
f 142 246 147
f 142 4 247
f 3 247 4
f 246 252 145
f 130 62 166
f 135 221 127
f 132 161 160
f 132 160 57
f 145 22 21
f 62 64 251
f 62 251 166
f 130 166 167
f 147 246 145
f 148 130 167
f 148 167 232
f 142 247 246
f 32 31 33
f 19 17 16
f 27 26 28
f 29 25 24
f 115 219 220
f 115 220 117
f 123 124 225
f 123 225 224
f 119 123 224
f 17 45 18
f 43 42 41
f 18 45 44
f 18 44 43
f 27 23 26
f 23 25 26
f 21 22 20
f 21 20 19
f 23 24 25
f 1 3 4
f 16 17 18

