# https://github.com/mikedh/trimesh
v 0.01308896 -0.00568864 -0.00600000
v 0.00727133 -0.01018258 -0.00600000
v 0.00727133 -0.00568864 -0.00600000
v 0.01308896 -0.01018258 -0.00600000
v 0.00249622 -0.01018258 -0.00600000
v 0.00249622 -0.00568864 -0.00600000
v 0.00280898 0.01510826 -0.00600000
v 0.00727133 0.02091168 -0.00600000
v 0.00278213 0.01433268 -0.00600000
v 0.00273790 0.01344969 -0.00600000
v 0.00281688 0.01577643 -0.00600000
v 0.00256257 0.00832234 -0.00600000
v 0.00257678 0.01577643 -0.00600000
v 0.00213450 0.02091168 -0.00600000
v 0.00209501 0.01457278 -0.00600000
v 0.00227350 0.01499138 -0.00600000
v 0.00243462 0.01539259 -0.00600000
v 0.00190387 0.01412260 -0.00600000
v 0.00170327 0.01368189 -0.00600000
v 0.00149318 0.01324909 -0.00600000
v 0.00125308 0.01279890 -0.00600000
v 0.00101141 0.01235819 -0.00600000
v 0.00077131 0.01192539 -0.00600000
v 0.00251360 0.00612512 -0.00600000
v 0.00253571 0.00723084 -0.00600000
v 0.00258942 0.00940593 -0.00600000
v 0.00261627 0.01048006 -0.00600000
v 0.00264786 0.01152417 -0.00600000
v 0.00268735 0.01251300 -0.00600000
v -0.01587917 -0.00588925 -0.00600000
v 0.00012999 0.01088128 -0.00600000
v 0.00034324 0.01119403 -0.00600000
v 0.00055648 0.01154154 -0.00600000
v -0.01106457 -0.00568864 -0.00600000
v 0.00249622 0.00402111 -0.00600000
v 0.00250096 0.00505574 -0.00600000
v -0.01587917 -0.01018258 -0.00600000
v 0.00249622 -0.01908832 -0.00600000
v 0.00727133 -0.01908832 -0.00600000
v 0.00251360 0.00612512 0.00600000
v 0.00727133 -0.00568864 0.00600000
v 0.00253571 0.00723084 0.00600000
v 0.01308896 -0.00568864 0.00600000
v 0.01308896 -0.01018258 0.00600000
v 0.00727133 0.02091168 0.00600000
v 0.00727133 -0.01018258 0.00600000
v 0.00727133 -0.01908832 0.00600000
v 0.00213450 0.02091168 0.00600000
v 0.00268735 0.01251300 0.00600000
v 0.00273790 0.01344969 0.00600000
v 0.00278213 0.01433268 0.00600000
v 0.00280898 0.01510826 0.00600000
v 0.00125308 0.01279890 0.00600000
v 0.00101141 0.01235819 0.00600000
v 0.00149318 0.01324909 0.00600000
v 0.00281688 0.01577643 0.00600000
v 0.00257678 0.01577643 0.00600000
v 0.00170327 0.01368189 0.00600000
v 0.00190387 0.01412260 0.00600000
v 0.00227350 0.01499138 0.00600000
v 0.00209501 0.01457278 0.00600000
v 0.00243462 0.01539259 0.00600000
v 0.00264786 0.01152417 0.00600000
v 0.00261627 0.01048006 0.00600000
v 0.00258942 0.00940593 0.00600000
v 0.00256257 0.00832234 0.00600000
v 0.00249622 0.00402111 0.00600000
v 0.00250096 0.00505574 0.00600000
v 0.00055648 0.01154154 0.00600000
v 0.00034324 0.01119403 0.00600000
v 0.00077131 0.01192539 0.00600000
v 0.00012999 0.01088128 0.00600000
v -0.01587917 -0.00588925 0.00600000
v 0.00249622 -0.00568864 0.00600000
v -0.01106457 -0.00568864 0.00600000
v 0.00249622 -0.01018258 0.00600000
v 0.00249622 -0.01908832 0.00600000
v -0.01587917 -0.01018258 0.00600000
f 19 20 14
f 1 2 3
f 39 38 2
f 35 3 6
f 37 34 5
f 34 6 5
f 28 27 64
f 28 64 63
f 27 26 65
f 34 75 74
f 24 36 68
f 24 68 40
f 6 34 74
f 36 35 67
f 36 67 68
f 48 30 73
f 30 37 73
f 37 78 73
f 5 38 77
f 4 46 2
f 43 44 4
f 43 4 1
f 2 46 47
f 2 47 39
f 48 45 14
f 8 14 45
f 45 41 3
f 43 1 3
f 53 55 48
f 58 48 55
f 59 48 58
f 24 3 36
f 35 36 3
f 3 2 6
f 34 37 30
f 5 2 38
f 20 21 14
f 21 22 14
f 22 23 14
f 15 18 14
f 7 8 9
f 9 8 10
f 11 8 7
f 3 12 8
f 13 14 11
f 19 55 20
f 18 59 58
f 18 58 19
f 11 56 57
f 19 58 55
f 32 31 14
f 33 32 14
f 31 34 30
f 23 33 14
f 57 48 62
f 45 48 56
f 27 8 26
f 28 8 27
f 29 8 28
f 10 8 29
f 60 16 17
f 15 61 59
f 15 59 18
f 11 52 56
f 20 55 53
f 20 53 21
f 11 7 52
f 63 45 49
f 50 49 45
f 64 45 63
f 65 45 64
f 66 45 65
f 42 41 66
f 67 41 68
f 68 41 40
f 69 48 70
f 71 48 69
f 72 70 48
f 54 48 71
f 48 73 72
f 57 56 48
f 44 41 46
f 51 50 45
f 51 45 52
f 56 52 45
f 3 24 25
f 3 25 12
f 30 14 31
f 15 14 16
f 8 11 14
f 16 14 17
f 13 17 14
f 18 19 14
f 16 60 61
f 16 61 15
f 26 8 12
f 60 62 48
f 61 60 48
f 59 61 48
f 54 53 48
f 43 3 41
f 1 4 2
f 2 5 6
f 17 62 60
f 11 57 13
f 13 57 62
f 13 62 17
f 63 49 28
f 29 28 49
f 21 53 54
f 21 54 22
f 9 50 51
f 7 9 51
f 7 51 52
f 10 29 49
f 3 8 45
f 5 77 76
f 35 6 74
f 35 74 67
f 75 34 31
f 47 77 38
f 47 38 39
f 5 76 78
f 5 78 37
f 10 49 50
f 9 10 50
f 14 30 48
f 4 44 46
f 47 46 76
f 26 12 66
f 26 66 65
f 12 25 42
f 12 42 66
f 25 24 40
f 23 71 69
f 23 69 33
f 54 71 23
f 54 23 22
f 25 40 42
f 32 70 72
f 32 72 31
f 31 72 75
f 40 41 42
f 33 69 70
f 33 70 32
f 43 41 44
f 45 66 41
f 67 74 41
f 27 65 64
f 78 76 75
f 74 75 76
f 73 78 75
f 46 74 76
f 46 41 74
f 75 72 73
f 47 76 77

