# https://github.com/mikedh/trimesh
v 0.01215716 -0.00917531 -0.00600000
v 0.01183937 -0.01101782 -0.00600000
v 0.00718220 -0.00914869 -0.00600000
v 0.01130869 -0.01272728 -0.00600000
v 0.00697087 -0.01040887 -0.00600000
v 0.01060268 -0.01428332 -0.00600000
v 0.00661708 -0.01153442 -0.00600000
v 0.00970099 -0.01566090 -0.00600000
v 0.00615371 -0.01251594 -0.00600000
v 0.00860518 -0.01686316 -0.00600000
v 0.00555728 -0.01339102 -0.00600000
v 0.00729804 -0.01791357 -0.00600000
v 0.00482778 -0.01415965 -0.00600000
v 0.00306041 -0.01530711 -0.00600000
v 0.00415152 -0.01948683 -0.00600000
v 0.00200374 -0.01570943 -0.00600000
v 0.00400123 -0.01479052 -0.00600000
v 0.00228709 -0.01997368 -0.00600000
v 0.00581244 -0.01878864 -0.00600000
v -0.00499375 0.01514530 -0.00600000
v 0.00936128 0.01963810 -0.00600000
v 0.00936128 0.01514530 -0.00600000
v -0.00924861 0.01963810 -0.00600000
v -0.00540390 0.00392425 -0.00600000
v -0.00535067 -0.00008326 -0.00600000
v -0.00602694 0.00381311 -0.00600000
v -0.00464936 0.00404323 -0.00600000
v -0.00477303 -0.00000811 -0.00600000
v -0.00376176 0.00417159 -0.00600000
v -0.00364122 0.00011555 -0.00600000
v -0.00277084 0.00428117 -0.00600000
v -0.00307610 0.00013747 -0.00600000
v -0.00165781 0.00434849 -0.00600000
v -0.00205074 0.00015469 -0.00600000
v -0.00042112 0.00437041 -0.00600000
v -0.00254542 0.00015156 -0.00600000
v -0.00420321 0.00005763 -0.00600000
v -0.00590327 -0.00014118 -0.00600000
v -0.00644648 -0.00020693 -0.00600000
v -0.00698186 -0.00028206 -0.00600000
v -0.00746401 -0.00037912 -0.00600000
v -0.01072012 0.00099063 -0.00600000
v -0.00790077 -0.00045896 -0.00600000
v -0.00829369 -0.00052001 -0.00600000
v -0.00427835 -0.01602722 -0.00600000
v -0.00556357 -0.02010517 -0.00600000
v -0.00517534 -0.01590041 -0.00600000
v -0.00340327 -0.01611644 -0.00600000
v -0.00467597 -0.02020223 -0.00600000
v -0.00181279 -0.01618689 -0.00600000
v -0.00197246 -0.02036190 -0.00600000
v -0.00258142 -0.01616967 -0.00600000
v -0.00289137 -0.02034469 -0.00600000
v -0.00043364 -0.01613366 -0.00600000
v -0.00379150 -0.02029146 -0.00600000
v -0.00642456 -0.01997368 -0.00600000
v 0.00024576 -0.02026485 -0.00600000
v 0.00083749 -0.01597556 -0.00600000
v -0.01024736 -0.01438038 -0.00600000
v -0.01155449 -0.01825483 -0.00600000
v -0.01093615 -0.01400937 -0.00600000
v -0.01155449 -0.01360236 -0.00600000
v -0.00948655 -0.01471538 -0.00600000
v -0.00804635 -0.01965120 -0.00600000
v -0.00881498 -0.01945239 -0.00600000
v -0.00694272 -0.01551062 -0.00600000
v -0.00726050 -0.01980461 -0.00600000
v -0.00606295 -0.01572665 -0.00600000
v -0.00780841 -0.01528050 -0.00600000
v -0.01028179 -0.01890762 -0.00600000
v -0.00865687 -0.01501594 -0.00600000
v -0.00956639 -0.01920818 -0.00600000
v -0.01094397 -0.01858983 -0.00600000
v 0.00936128 0.01963810 0.00600000
v -0.00924861 0.01963810 0.00600000
v -0.00499375 0.01514530 0.00600000
v -0.01072012 0.00099063 0.00600000
v -0.00464936 0.00404323 0.00600000
v -0.00540390 0.00392425 0.00600000
v -0.00477303 -0.00000811 0.00600000
v -0.00420321 0.00005763 0.00600000
v -0.00535067 -0.00008326 0.00600000
v -0.00602694 0.00381311 0.00600000
v -0.00042112 0.00437041 0.00600000
v -0.00165781 0.00434849 0.00600000
v -0.00205074 0.00015469 0.00600000
v -0.00277084 0.00428117 0.00600000
v -0.00307610 0.00013747 0.00600000
v -0.00254542 0.00015156 0.00600000
v -0.00364122 0.00011555 0.00600000
v -0.00376176 0.00417159 0.00600000
v -0.00590327 -0.00014118 0.00600000
v -0.00644648 -0.00020693 0.00600000
v -0.00698186 -0.00028206 0.00600000
v 0.00661708 -0.01153442 0.00600000
v 0.00697087 -0.01040887 0.00600000
v -0.00746401 -0.00037912 0.00600000
v -0.00790077 -0.00045896 0.00600000
v -0.00829369 -0.00052001 0.00600000
v 0.00718220 -0.00914869 0.00600000
v 0.00725265 -0.00775702 0.00600000
v 0.00729804 -0.01791357 0.00600000
v -0.00881498 -0.01945239 0.00600000
v -0.00804635 -0.01965120 0.00600000
v -0.00694272 -0.01551062 0.00600000
v 0.00860518 -0.01686316 0.00600000
v -0.00726050 -0.01980461 0.00600000
v 0.00970099 -0.01566090 0.00600000
v -0.00642456 -0.01997368 0.00600000
v -0.00606295 -0.01572665 0.00600000
v -0.00379150 -0.02029146 0.00600000
v -0.00289137 -0.02034469 0.00600000
v -0.00340327 -0.01611644 0.00600000
v -0.00258142 -0.01616967 0.00600000
v -0.00197246 -0.02036190 0.00600000
v -0.00181279 -0.01618689 0.00600000
v -0.00043364 -0.01613366 0.00600000
v 0.00024576 -0.02026485 0.00600000
v 0.01060268 -0.01428332 0.00600000
v 0.01130869 -0.01272728 0.00600000
v 0.01183937 -0.01101782 0.00600000
v 0.01215716 -0.00917531 0.00600000
v 0.01226360 -0.00720129 0.00600000
v 0.00083749 -0.01597556 0.00600000
v 0.00200374 -0.01570943 0.00600000
v 0.00306041 -0.01530711 0.00600000
v 0.00400123 -0.01479052 0.00600000
v 0.00482778 -0.01415965 0.00600000
v 0.00555728 -0.01339102 0.00600000
v 0.00615371 -0.01251594 0.00600000
v 0.00415152 -0.01948683 0.00600000
v 0.00228709 -0.01997368 0.00600000
v 0.00581244 -0.01878864 0.00600000
v 0.00073261 -0.00007073 0.00600000
v -0.00517534 -0.01590041 0.00600000
v -0.00427835 -0.01602722 0.00600000
v -0.00556357 -0.02010517 0.00600000
v -0.00467597 -0.02020223 0.00600000
v -0.01155449 -0.01360236 0.00600000
v -0.01093615 -0.01400937 0.00600000
v -0.01024736 -0.01438038 0.00600000
v -0.00948655 -0.01471538 0.00600000
v -0.00865687 -0.01501594 0.00600000
v -0.00780841 -0.01528050 0.00600000
v -0.01155449 -0.01825483 0.00600000
v -0.01094397 -0.01858983 0.00600000
v -0.01028179 -0.01890762 0.00600000
v -0.00956639 -0.01920818 0.00600000
v 0.01126955 -0.00219033 -0.00600000
v 0.00619285 -0.00342703 -0.00600000
v 0.01054945 -0.00083466 -0.00600000
v 0.00860518 0.00142739 -0.00600000
v 0.00486692 -0.00187255 -0.00600000
v 0.00737632 0.00230716 -0.00600000
v 0.00602535 0.00303509 -0.00600000
v 0.00454914 0.00361430 -0.00600000
v 0.00303849 -0.00074544 -0.00600000
v 0.00297275 0.00403384 -0.00600000
v 0.00073261 -0.00007073 -0.00600000
v 0.00966028 0.00037229 -0.00600000
v 0.00131495 0.00428587 -0.00600000
v 0.00698809 -0.00538852 -0.00600000
v 0.01215246 -0.00538852 -0.00600000
v 0.00725265 -0.00775702 -0.00600000
v 0.01226360 -0.00720129 -0.00600000
v 0.01182059 -0.00371977 -0.00600000
v 0.00936128 0.01514530 0.00600000
v 0.00303849 -0.00074544 0.00600000
v 0.01126955 -0.00219033 0.00600000
v 0.01054945 -0.00083466 0.00600000
v 0.00966028 0.00037229 0.00600000
v 0.00860518 0.00142739 0.00600000
v 0.00737632 0.00230716 0.00600000
v 0.00602535 0.00303509 0.00600000
v 0.00454914 0.00361430 0.00600000
v 0.00297275 0.00403384 0.00600000
v 0.00131495 0.00428587 0.00600000
v 0.00698809 -0.00538852 0.00600000
v 0.00619285 -0.00342703 0.00600000
v 0.00486692 -0.00187255 0.00600000
v 0.01215246 -0.00538852 0.00600000
v 0.01182059 -0.00371977 0.00600000
f 145 139 60
f 66 69 144
f 66 144 105
f 105 110 66
f 69 71 143
f 47 110 135
f 45 47 135
f 40 94 97
f 61 62 139
f 61 139 140
f 57 118 115
f 57 115 51
f 51 115 112
f 51 112 53
f 49 138 137
f 68 66 110
f 55 111 138
f 55 138 49
f 53 112 111
f 175 176 168
f 134 168 176
f 84 134 177
f 176 177 134
f 132 57 18
f 123 181 101
f 181 182 178
f 178 101 181
f 180 179 172
f 172 173 180
f 173 174 180
f 168 180 174
f 49 137 46
f 14 15 16
f 131 133 126
f 126 125 131
f 133 102 127
f 102 106 128
f 128 127 102
f 129 128 106
f 106 108 129
f 122 100 121
f 100 122 101
f 95 130 119
f 108 119 130
f 53 111 55
f 46 137 56
f 54 50 116
f 54 116 117
f 58 54 117
f 50 52 114
f 50 114 116
f 52 113 114
f 45 135 136
f 48 45 136
f 48 136 113
f 52 48 113
f 40 97 41
f 5 3 2
f 127 126 133
f 1 2 3
f 12 13 10
f 10 11 8
f 69 143 144
f 47 68 110
f 98 83 99
f 99 83 77
f 76 167 74
f 35 33 85
f 35 85 84
f 137 109 56
f 67 107 104
f 67 104 64
f 118 124 117
f 118 132 124
f 3 100 101
f 12 102 19
f 103 104 105
f 94 83 97
f 83 76 77
f 97 83 98
f 100 96 121
f 123 101 122
f 3 5 96
f 3 96 100
f 94 93 83
f 5 95 96
f 88 89 87
f 89 86 87
f 60 139 62
f 132 118 57
f 125 124 132
f 132 131 125
f 130 129 108
f 96 95 120
f 119 120 95
f 120 121 96
f 84 85 86
f 85 87 86
f 78 79 80
f 80 81 78
f 82 80 79
f 79 83 82
f 117 116 115
f 75 77 76
f 107 109 110
f 153 152 150
f 1 164 165
f 163 162 166
f 165 164 163
f 166 162 149
f 157 155 153
f 83 93 92
f 27 24 79
f 27 79 78
f 24 26 83
f 24 83 79
f 29 78 91
f 8 108 106
f 8 106 10
f 117 115 118
f 88 90 30
f 88 30 32
f 30 90 81
f 30 81 37
f 36 89 88
f 36 88 32
f 25 82 92
f 25 92 38
f 26 20 83
f 31 29 91
f 31 91 87
f 24 25 26
f 27 28 24
f 29 30 27
f 31 32 29
f 21 20 23
f 18 16 15
f 9 8 11
f 7 6 9
f 15 14 19
f 5 4 7
f 19 17 12
f 85 33 31
f 85 31 87
f 63 141 142
f 71 63 142
f 59 61 140
f 59 140 141
f 13 12 17
f 11 10 13
f 76 83 20
f 29 27 78
f 74 75 76
f 90 88 91
f 92 82 83
f 81 90 78
f 91 78 90
f 87 91 88
f 71 142 143
f 63 59 141
f 32 31 36
f 152 153 154
f 154 153 155
f 156 155 157
f 158 156 157
f 144 143 148
f 147 143 146
f 111 112 113
f 19 133 131
f 19 131 15
f 102 133 19
f 13 127 128
f 58 117 124
f 148 103 144
f 35 161 159
f 159 34 35
f 28 27 37
f 45 46 47
f 20 21 22
f 33 34 31
f 35 34 33
f 36 31 34
f 30 29 32
f 5 7 95
f 40 41 26
f 149 150 151
f 162 163 164
f 3 164 1
f 150 149 162
f 10 106 102
f 10 102 12
f 104 107 105
f 7 9 130
f 7 130 95
f 132 18 131
f 48 49 45
f 26 42 20
f 39 40 26
f 41 43 26
f 43 44 26
f 14 125 126
f 17 14 126
f 17 126 127
f 13 17 127
f 38 26 25
f 25 24 28
f 39 26 38
f 15 131 18
f 157 159 158
f 160 150 152
f 151 150 160
f 161 158 159
f 11 13 128
f 11 128 129
f 9 11 129
f 9 129 130
f 114 113 112
f 112 115 114
f 116 114 115
f 142 146 143
f 136 135 137
f 139 145 140
f 141 140 145
f 145 146 142
f 135 110 109
f 110 105 107
f 105 144 103
f 147 148 143
f 153 179 180
f 165 123 1
f 4 119 6
f 160 170 151
f 59 60 61
f 62 61 60
f 63 60 59
f 64 65 66
f 74 167 22
f 76 20 167
f 22 167 20
f 84 177 35
f 75 74 23
f 21 23 74
f 142 141 145
f 16 124 125
f 14 16 125
f 16 58 124
f 53 52 51
f 55 48 53
f 44 42 26
f 23 20 42
f 37 27 30
f 137 138 136
f 113 136 138
f 138 111 113
f 109 137 135
f 22 21 74
f 50 54 51
f 161 35 177
f 164 3 101
f 162 164 101
f 155 175 174
f 156 158 176
f 156 176 175
f 158 161 177
f 154 155 174
f 154 174 173
f 155 156 175
f 68 47 56
f 69 66 65
f 70 71 72
f 123 165 181
f 163 181 165
f 60 63 73
f 69 72 71
f 70 73 71
f 56 67 68
f 67 64 66
f 66 68 67
f 152 154 173
f 152 173 172
f 152 172 171
f 152 171 160
f 151 169 149
f 159 134 34
f 151 170 169
f 160 171 170
f 65 72 69
f 63 71 73
f 46 45 49
f 157 168 134
f 157 134 159
f 162 101 178
f 150 162 178
f 150 178 179
f 153 150 179
f 134 84 86
f 52 53 48
f 166 182 181
f 166 181 163
f 149 169 182
f 149 182 166
f 153 180 168
f 153 168 157
f 49 48 55
f 4 120 119
f 56 47 46
f 57 51 54
f 54 58 57
f 18 57 58
f 58 16 18
f 17 19 14
f 50 51 52
f 158 177 176
f 2 121 120
f 2 120 4
f 1 122 121
f 1 121 2
f 123 122 1
f 6 119 108
f 6 108 8
f 182 169 178
f 179 178 169
f 170 171 179
f 170 179 169
f 171 172 179
f 134 86 34
f 34 86 89
f 34 89 36
f 92 93 39
f 92 39 38
f 94 40 93
f 39 93 40
f 65 103 148
f 65 148 72
f 64 104 103
f 64 103 65
f 56 109 107
f 56 107 67
f 70 147 146
f 70 146 73
f 72 148 147
f 72 147 70
f 73 146 145
f 73 145 60
f 77 75 42
f 23 42 75
f 44 99 77
f 44 77 42
f 37 81 80
f 37 80 28
f 28 80 82
f 28 82 25
f 41 97 98
f 41 98 43
f 43 98 99
f 43 99 44
f 4 5 2
f 6 7 4
f 8 9 6
f 174 175 168

