# https://github.com/mikedh/trimesh
v -0.00527059 -0.01086230 -0.00600000
v -0.00980355 -0.01162808 -0.00600000
v -0.00575538 -0.00980316 -0.00600000
v -0.00666938 -0.01625214 -0.00600000
v -0.00786901 -0.01493980 -0.00600000
v -0.00398604 -0.01272736 -0.00600000
v -0.00469162 -0.01184269 -0.00600000
v -0.00891425 -0.01340668 -0.00600000
v -0.01053537 -0.00960709 -0.00600000
v -0.00614290 -0.00866529 -0.00600000
v -0.01107884 -0.00733289 -0.00600000
v -0.00640383 -0.00748882 -0.00600000
v 0.01001427 0.02031418 -0.00600000
v 0.00969159 0.02040990 -0.00600000
v 0.00969159 0.02040990 0.00600000
v 0.01001427 0.02031418 0.00600000
v 0.00935192 0.02048864 -0.00600000
v 0.00935192 0.02048864 0.00600000
v 0.00899528 0.02055040 -0.00600000
v 0.00899528 0.02055040 0.00600000
v 0.00859849 0.02061987 0.00600000
v 0.00859849 0.02061987 -0.00600000
v 0.00819244 0.02067236 -0.00600000
v 0.00819244 0.02067236 0.00600000
v 0.00777866 0.02070634 -0.00600000
v 0.00736489 0.02075419 -0.00600000
v 0.00736489 0.02075419 0.00600000
v 0.00777866 0.02070634 0.00600000
v 0.00696038 0.02079434 -0.00600000
v 0.00696038 0.02079434 0.00600000
v 0.00656360 0.02082522 -0.00600000
v 0.00656360 0.02082522 0.00600000
v 0.00615754 0.02084683 -0.00600000
v 0.00615754 0.02084683 0.00600000
v 0.00577928 0.02085918 0.00600000
v 0.00577928 0.02085918 -0.00600000
v 0.00542572 0.02086381 -0.00600000
v 0.00542572 0.02086381 0.00600000
v 0.00317314 0.02075882 -0.00600000
v 0.00317314 0.02075882 0.00600000
v 0.00112126 0.02044541 -0.00600000
v 0.00112126 0.02044541 0.00600000
v -0.00073145 0.01992202 -0.00600000
v -0.00073145 0.01992202 0.00600000
v -0.00240043 0.01924269 -0.00600000
v -0.00240043 0.01924269 0.00600000
v -0.00390267 0.01840589 -0.00600000
v -0.00390267 0.01840589 0.00600000
v 0.01001427 0.01607919 -0.00600000
v 0.01001427 0.01607919 0.00600000
v 0.00936427 0.01627064 0.00600000
v 0.00936427 0.01627064 -0.00600000
v 0.00867260 0.01642811 0.00600000
v 0.00867260 0.01642811 -0.00600000
v 0.00793614 0.01655009 -0.00600000
v 0.00793614 0.01655009 0.00600000
v 0.00715646 0.01663655 0.00600000
v 0.00715646 0.01663655 -0.00600000
v 0.00638450 0.01668904 0.00600000
v 0.00638450 0.01668904 -0.00600000
v 0.00562180 0.01670757 0.00600000
v 0.00562180 0.01670757 -0.00600000
v 0.00409331 0.01664581 0.00600000
v 0.00409331 0.01664581 -0.00600000
v 0.00269452 0.01646363 0.00600000
v 0.00269452 0.01646363 -0.00600000
v 0.00142542 0.01615793 0.00600000
v 0.00142542 0.01615793 -0.00600000
v 0.00027519 0.01573490 0.00600000
v 0.00027519 0.01573490 -0.00600000
v -0.00077005 0.01519915 0.00600000
v -0.00077005 0.01519915 -0.00600000
v -0.00171184 0.01455070 0.00600000
v -0.00171184 0.01455070 -0.00600000
v -0.00253012 0.01382661 0.00600000
v -0.00253012 0.01382661 -0.00600000
v -0.00326195 0.01301604 0.00600000
v -0.00326195 0.01301604 -0.00600000
v -0.00390730 0.01211903 0.00600000
v -0.00390730 0.01211903 -0.00600000
v -0.00524125 0.01741314 0.00600000
v 0.00355603 0.00567468 -0.00600000
v 0.00193491 0.00576577 -0.00600000
v 0.00193491 0.00576577 0.00600000
v 0.00355603 0.00567468 0.00600000
v 0.00092518 0.00572717 -0.00600000
v 0.00092518 0.00572717 0.00600000
v 0.01286744 -0.00426511 -0.00600000
v 0.01286744 -0.00426511 0.00600000
v 0.01295544 -0.00607768 0.00600000
v 0.01295544 -0.00607768 -0.00600000
v 0.01260651 -0.00259149 -0.00600000
v 0.01260651 -0.00259149 0.00600000
v 0.01217113 -0.00105837 -0.00600000
v 0.01217113 -0.00105837 0.00600000
v 0.01157363 0.00033270 -0.00600000
v 0.01157363 0.00033270 0.00600000
v 0.01082946 0.00157402 -0.00600000
v 0.01082946 0.00157402 0.00600000
v 0.00993552 0.00266712 -0.00600000
v 0.00993552 0.00266712 0.00600000
v 0.00892426 0.00358266 -0.00600000
v 0.00892426 0.00358266 0.00600000
v 0.00777403 0.00434073 0.00600000
v 0.00777403 0.00434073 -0.00600000
v 0.00648486 0.00494286 -0.00600000
v 0.00648486 0.00494286 0.00600000
v 0.00507371 0.00539986 -0.00600000
v 0.00507371 0.00539986 0.00600000
v 0.00652345 -0.00019532 -0.00600000
v 0.00705147 -0.00094412 0.00600000
v 0.00652345 -0.00019532 0.00600000
v 0.00587964 0.00043306 0.00600000
v 0.00587964 0.00043306 -0.00600000
v 0.00514627 0.00095490 0.00600000
v 0.00514627 0.00095490 -0.00600000
v 0.00432799 0.00137331 0.00600000
v 0.00432799 0.00137331 -0.00600000
v 0.00341244 0.00170062 0.00600000
v 0.00341244 0.00170062 -0.00600000
v 0.00239345 0.00189670 0.00600000
v 0.00239345 0.00189670 -0.00600000
v -0.00001661 0.00560829 -0.00600000
v -0.00001661 0.00560829 0.00600000
v -0.00088739 0.00541221 -0.00600000
v -0.00088739 0.00541221 0.00600000
v -0.00169795 0.00515129 -0.00600000
v -0.00169795 0.00515129 0.00600000
v -0.00245601 0.00483787 -0.00600000
v -0.00245601 0.00483787 0.00600000
v -0.00316313 0.00447196 -0.00600000
v -0.00316313 0.00447196 0.00600000
v -0.00379460 0.00403194 -0.00600000
v -0.00379460 0.00403194 0.00600000
v 0.00126948 0.00196154 -0.00600000
v 0.00126948 0.00196154 0.00600000
v 0.00012698 0.00189207 0.00600000
v 0.00012698 0.00189207 -0.00600000
v -0.00094451 0.00168363 0.00600000
v -0.00094451 0.00168363 -0.00600000
v -0.00194652 0.00133471 0.00600000
v -0.00194652 0.00133471 -0.00600000
v -0.00288831 0.00087308 0.00600000
v -0.00288831 0.00087308 -0.00600000
v -0.00372512 0.00032344 0.00600000
v -0.00372512 0.00032344 -0.00600000
v 0.00820170 -0.00484871 -0.00600000
v 0.00824956 -0.00603753 -0.00600000
v 0.00824956 -0.00603753 0.00600000
v 0.00820170 -0.00484871 0.00600000
v 0.00805811 -0.00373708 -0.00600000
v 0.00805811 -0.00373708 0.00600000
v 0.00781726 -0.00270420 -0.00600000
v 0.00781726 -0.00270420 0.00600000
v 0.00748223 -0.00178093 -0.00600000
v 0.00748223 -0.00178093 0.00600000
v -0.00575538 -0.00980316 0.00600000
v -0.00527059 -0.01086230 0.00600000
v -0.00469162 -0.01184269 0.00600000
v -0.00398604 -0.01272736 0.00600000
v -0.00745370 0.01500771 -0.00600000
v -0.00446929 0.01114327 -0.00600000
v -0.00833837 0.01360891 -0.00600000
v -0.00524125 0.01741314 -0.00600000
v 0.00705147 -0.00094412 -0.00600000
v -0.00438283 0.00354715 -0.00600000
v -0.00539719 0.00245405 -0.00600000
v 0.00973945 -0.01564537 -0.00600000
v 0.00686775 -0.01202487 -0.00600000
v 0.01070286 -0.01443957 -0.00600000
v 0.00864635 -0.01668289 -0.00600000
v 0.00628877 -0.01282308 -0.00600000
v 0.01149952 -0.01306702 -0.00600000
v 0.01213253 -0.01152773 -0.00600000
v 0.00735254 -0.01109697 -0.00600000
v 0.01258953 -0.00984176 -0.00600000
v 0.00774007 -0.01003784 -0.00600000
v 0.00802260 -0.00884439 -0.00600000
v 0.00819244 -0.00751043 -0.00600000
v 0.01286435 -0.00802456 -0.00600000
v 0.00740349 -0.01754594 -0.00600000
v 0.00560019 -0.01351167 -0.00600000
v 0.00401457 -0.01446890 -0.00600000
v 0.00451481 -0.01873477 -0.00600000
v 0.00311601 -0.01477460 -0.00600000
v 0.00484212 -0.01405976 -0.00600000
v 0.00601396 -0.01823454 -0.00600000
v 0.00115214 -0.01913619 -0.00600000
v -0.00058786 -0.01902348 -0.00600000
v 0.00111199 -0.01501854 -0.00600000
v 0.00214951 -0.01495678 -0.00600000
v -0.00532308 -0.01730972 -0.00600000
v -0.00317548 -0.01349777 -0.00600000
v -0.00225993 -0.01415549 -0.00600000
v -0.00382856 -0.01811720 -0.00600000
v -0.00124094 -0.01463565 -0.00600000
v -0.00224758 -0.01868227 -0.00600000
v -0.00011697 -0.01492282 -0.00600000
v 0.00289369 -0.01903583 -0.00600000
v -0.00495254 0.01009648 -0.00600000
v -0.00909334 0.01210513 -0.00600000
v -0.00973253 0.01052415 -0.00600000
v -0.00535859 0.00898177 -0.00600000
v -0.00569362 0.00780530 -0.00600000
v -0.01026055 0.00886443 -0.00600000
v -0.01068359 0.00715994 -0.00600000
v -0.00596844 0.00657634 -0.00600000
v -0.00618150 0.00529488 -0.00600000
v -0.00632200 0.00397019 -0.00600000
v -0.01100936 0.00539523 -0.00600000
v -0.00642235 0.01627527 -0.00600000
v -0.00642545 0.00261154 -0.00600000
v -0.01124095 0.00357031 -0.00600000
v -0.01139379 0.00171297 -0.00600000
v -0.00649492 0.00121737 -0.00600000
v -0.00445694 -0.00031266 -0.00600000
v -0.00618150 0.00121737 -0.00600000
v -0.00581560 0.00185347 -0.00600000
v -0.00492784 0.00302068 -0.00600000
v -0.00508841 -0.00100125 -0.00600000
v -0.00562415 -0.00175932 -0.00600000
v -0.01148488 -0.00014283 -0.00600000
v -0.01151576 -0.00199862 -0.00600000
v -0.00606417 -0.00258686 -0.00600000
v -0.00661380 -0.00513588 -0.00600000
v -0.00656131 -0.00631235 -0.00600000
v -0.01140614 -0.00479622 -0.00600000
v -0.00636986 -0.00342830 -0.00600000
v -0.00655204 -0.00427746 -0.00600000
v 0.00973945 -0.01564537 0.00600000
v 0.00864635 -0.01668289 0.00600000
v 0.01070286 -0.01443957 0.00600000
v 0.01149952 -0.01306702 0.00600000
v 0.01213253 -0.01152773 0.00600000
v 0.01258953 -0.00984176 0.00600000
v 0.01286435 -0.00802456 0.00600000
v 0.00289369 -0.01903583 0.00600000
v 0.00451481 -0.01873477 0.00600000
v 0.00601396 -0.01823454 0.00600000
v 0.00740349 -0.01754594 0.00600000
v 0.00311601 -0.01477460 0.00600000
v 0.00401457 -0.01446890 0.00600000
v 0.00484212 -0.01405976 0.00600000
v 0.00560019 -0.01351167 0.00600000
v 0.00628877 -0.01282308 0.00600000
v 0.00686775 -0.01202487 0.00600000
v 0.00735254 -0.01109697 0.00600000
v 0.00774007 -0.01003784 0.00600000
v 0.00802260 -0.00884439 0.00600000
v 0.00819244 -0.00751043 0.00600000
v -0.00382856 -0.01811720 0.00600000
v -0.00532308 -0.01730972 0.00600000
v -0.00224758 -0.01868227 0.00600000
v -0.00058786 -0.01902348 0.00600000
v 0.00115214 -0.01913619 0.00600000
v -0.00011697 -0.01492282 0.00600000
v 0.00111199 -0.01501854 0.00600000
v 0.00214951 -0.01495678 0.00600000
v -0.00317548 -0.01349777 0.00600000
v -0.00225993 -0.01415549 0.00600000
v -0.00124094 -0.01463565 0.00600000
v -0.00446929 0.01114327 0.00600000
v -0.00495254 0.01009648 0.00600000
v -0.00535859 0.00898177 0.00600000
v -0.00569362 0.00780530 0.00600000
v -0.00596844 0.00657634 0.00600000
v -0.00618150 0.00529488 0.00600000
v -0.00642235 0.01627527 0.00600000
v -0.00745370 0.01500771 0.00600000
v -0.00833837 0.01360891 0.00600000
v -0.00909334 0.01210513 0.00600000
v -0.00973253 0.01052415 0.00600000
v -0.01026055 0.00886443 0.00600000
v -0.01068359 0.00715994 0.00600000
v -0.00632200 0.00397019 0.00600000
v -0.00642545 0.00261154 0.00600000
v -0.00438283 0.00354715 0.00600000
v -0.00492784 0.00302068 0.00600000
v -0.00649492 0.00121737 0.00600000
v -0.00539719 0.00245405 0.00600000
v -0.00581560 0.00185347 0.00600000
v -0.00618150 0.00121737 0.00600000
v -0.00445694 -0.00031266 0.00600000
v -0.00508841 -0.00100125 0.00600000
v -0.01100936 0.00539523 0.00600000
v -0.01124095 0.00357031 0.00600000
v -0.01139379 0.00171297 0.00600000
v -0.01148488 -0.00014283 0.00600000
v -0.01140614 -0.00479622 0.00600000
v -0.01151576 -0.00199862 0.00600000
v -0.00562415 -0.00175932 0.00600000
v -0.00606417 -0.00258686 0.00600000
v -0.00636986 -0.00342830 0.00600000
v -0.00655204 -0.00427746 0.00600000
v -0.00661380 -0.00513588 0.00600000
v -0.00656131 -0.00631235 0.00600000
v -0.01107884 -0.00733289 0.00600000
v -0.01053537 -0.00960709 0.00600000
v -0.00980355 -0.01162808 0.00600000
v -0.00891425 -0.01340668 0.00600000
v -0.00786901 -0.01493980 0.00600000
v -0.00666938 -0.01625214 0.00600000
v -0.00640383 -0.00748882 0.00600000
v -0.00614290 -0.00866529 0.00600000
f 157 304 299
f 158 157 299
f 299 300 158
f 159 158 300
f 300 301 159
f 160 159 301
f 301 302 160
f 252 259 302
f 304 303 298
f 298 299 304
f 7 6 5
f 8 7 5
f 2 1 8
f 9 10 2
f 11 12 9
f 7 8 1
f 286 275 285
f 282 279 284
f 287 288 279
f 292 291 288
f 291 284 288
f 288 290 292
f 11 289 227
f 290 288 223
f 222 223 288
f 223 227 289
f 223 289 290
f 221 291 292
f 221 292 224
f 224 292 293
f 213 287 286
f 214 222 288
f 214 288 287
f 284 220 216
f 220 284 291
f 220 291 221
f 1 2 3
f 110 111 112
f 123 125 126
f 123 126 124
f 125 127 128
f 125 128 126
f 127 129 130
f 127 130 128
f 114 113 115
f 114 115 116
f 116 115 117
f 116 117 118
f 106 108 109
f 106 109 107
f 108 82 85
f 108 85 109
f 118 117 119
f 118 119 120
f 120 119 121
f 120 121 122
f 86 123 124
f 86 124 87
f 110 112 113
f 110 113 114
f 98 99 97
f 98 97 96
f 88 89 90
f 88 90 91
f 92 93 89
f 92 89 88
f 94 95 93
f 94 93 92
f 105 106 107
f 105 107 104
f 100 101 99
f 100 99 98
f 100 102 103
f 100 103 101
f 96 97 95
f 96 95 94
f 11 298 297
f 9 2 299
f 9 299 298
f 2 8 300
f 104 103 105
f 102 105 103
f 11 9 298
f 2 300 299
f 12 226 303
f 296 303 226
f 142 141 143
f 12 304 10
f 10 304 157
f 10 157 3
f 192 302 4
f 12 303 304
f 11 297 289
f 229 294 295
f 229 295 225
f 228 293 294
f 228 294 229
f 82 83 84
f 147 149 150
f 155 154 156
f 138 139 140
f 140 139 141
f 140 141 142
f 129 131 132
f 129 132 130
f 131 133 134
f 131 134 132
f 142 143 144
f 144 143 145
f 144 145 146
f 135 122 136
f 121 136 122
f 135 136 137
f 135 137 138
f 138 137 139
f 68 69 70
f 70 69 71
f 70 71 72
f 72 71 73
f 72 73 74
f 82 84 85
f 83 86 87
f 83 87 84
f 74 73 75
f 74 75 76
f 76 75 77
f 76 77 78
f 78 77 79
f 68 67 69
f 78 79 80
f 81 48 47
f 58 59 60
f 60 59 61
f 60 61 62
f 62 61 63
f 62 63 64
f 49 50 51
f 49 51 52
f 52 51 53
f 52 53 54
f 64 63 65
f 64 65 66
f 66 65 67
f 66 67 68
f 53 56 54
f 55 56 57
f 55 57 58
f 58 57 59
f 43 45 46
f 43 46 44
f 45 47 48
f 45 48 46
f 151 147 150
f 151 150 152
f 153 151 152
f 153 152 154
f 155 153 154
f 147 148 149
f 16 50 49
f 49 13 16
f 55 54 56
f 26 29 30
f 26 30 27
f 31 34 32
f 23 25 28
f 23 28 24
f 35 34 36
f 33 36 34
f 37 40 38
f 39 41 42
f 39 42 40
f 41 43 44
f 41 44 42
f 29 31 32
f 29 32 30
f 31 33 34
f 13 15 16
f 14 17 18
f 14 18 15
f 17 19 20
f 17 20 18
f 36 37 38
f 36 38 35
f 37 39 40
f 22 24 21
f 25 26 27
f 25 27 28
f 13 14 15
f 3 158 1
f 3 157 158
f 21 20 22
f 19 22 20
f 22 23 24
f 184 237 199
f 184 238 237
f 165 155 156
f 165 156 111
f 110 165 111
f 170 230 168
f 173 233 232
f 173 232 170
f 174 234 233
f 174 233 173
f 180 91 236
f 90 236 91
f 199 237 188
f 1 158 159
f 1 159 7
f 7 159 160
f 10 9 12
f 3 2 10
f 226 12 11
f 168 230 231
f 168 231 171
f 170 232 230
f 176 235 234
f 176 234 174
f 188 255 254
f 188 254 189
f 237 255 188
f 190 198 256
f 190 256 257
f 186 183 242
f 186 242 243
f 182 186 243
f 182 243 244
f 172 182 244
f 197 251 195
f 189 254 253
f 189 253 197
f 215 214 212
f 146 216 217
f 146 217 218
f 166 144 219
f 133 142 166
f 210 206 208
f 207 208 206
f 216 220 217
f 221 222 220
f 11 227 226
f 228 229 223
f 217 220 215
f 229 225 227
f 227 223 229
f 215 220 222
f 146 218 167
f 219 144 167
f 223 222 224
f 225 226 227
f 206 205 207
f 208 209 210
f 204 207 205
f 202 203 205
f 164 76 211
f 76 78 211
f 214 215 222
f 221 224 222
f 209 212 213
f 214 213 212
f 213 210 209
f 6 193 4
f 194 192 193
f 195 196 197
f 204 205 203
f 201 163 162
f 194 196 195
f 198 197 196
f 198 190 189
f 191 185 199
f 184 199 185
f 188 191 199
f 161 211 78
f 47 74 164
f 189 197 198
f 192 194 195
f 169 168 172
f 175 173 169
f 177 178 176
f 162 200 201
f 202 201 200
f 179 148 91
f 187 186 181
f 148 147 91
f 91 180 179
f 188 189 190
f 188 190 191
f 17 54 19
f 168 169 170
f 171 172 168
f 170 169 173
f 174 173 175
f 176 174 177
f 178 179 180
f 180 176 178
f 184 183 187
f 224 228 223
f 192 4 193
f 110 98 165
f 175 169 246
f 175 246 247
f 177 175 247
f 177 247 248
f 178 177 248
f 191 190 257
f 183 185 241
f 183 241 242
f 181 240 187
f 181 231 240
f 181 171 231
f 180 236 235
f 180 235 176
f 172 244 245
f 169 172 245
f 169 245 246
f 194 259 260
f 196 194 260
f 196 260 261
f 256 198 196
f 256 196 261
f 184 187 238
f 239 238 187
f 187 240 239
f 193 6 160
f 193 160 259
f 194 193 259
f 181 182 171
f 175 177 174
f 153 92 151
f 88 91 147
f 155 94 153
f 25 58 26
f 138 140 127
f 127 125 138
f 125 123 138
f 86 135 123
f 83 135 86
f 147 151 88
f 203 202 200
f 13 54 14
f 14 54 17
f 131 142 133
f 129 127 140
f 79 262 162
f 79 162 80
f 250 149 179
f 148 179 149
f 195 251 252
f 195 252 192
f 197 253 251
f 276 215 212
f 178 248 249
f 179 178 249
f 179 249 250
f 200 263 264
f 200 264 203
f 203 264 265
f 203 265 204
f 204 265 266
f 209 276 212
f 277 134 166
f 133 166 134
f 138 123 135
f 144 166 142
f 146 167 144
f 114 102 110
f 106 118 108
f 105 116 106
f 102 114 105
f 118 120 108
f 122 82 120
f 108 120 82
f 135 83 122
f 131 129 140
f 183 184 185
f 186 187 183
f 182 181 186
f 172 171 182
f 29 60 31
f 26 60 29
f 118 106 116
f 165 96 155
f 22 55 23
f 45 43 70
f 70 72 45
f 142 131 140
f 82 122 83
f 49 52 13
f 54 13 52
f 37 64 39
f 36 62 37
f 33 62 36
f 31 60 33
f 23 55 25
f 72 74 47
f 58 25 55
f 47 164 81
f 164 211 268
f 164 268 81
f 211 161 269
f 211 269 268
f 162 262 263
f 162 263 200
f 163 271 270
f 191 257 258
f 258 241 191
f 185 191 241
f 160 6 7
f 204 266 207
f 267 208 266
f 207 266 208
f 166 219 278
f 161 163 270
f 161 270 269
f 163 201 271
f 219 280 278
f 217 215 279
f 167 218 281
f 167 281 280
f 217 279 282
f 224 293 228
f 8 5 301
f 8 301 300
f 5 4 302
f 5 302 301
f 192 252 302
f 92 153 94
f 102 100 110
f 60 26 58
f 62 33 60
f 64 37 62
f 55 19 54
f 66 39 64
f 19 55 22
f 68 70 43
f 41 68 43
f 39 66 41
f 116 105 114
f 98 110 100
f 96 165 98
f 94 155 96
f 88 151 92
f 76 164 74
f 68 41 66
f 47 45 72
f 78 80 161
f 63 61 38
f 44 67 42
f 46 69 44
f 40 42 65
f 32 34 59
f 61 59 34
f 65 63 40
f 34 35 61
f 80 162 163
f 163 161 80
f 89 93 152
f 152 150 89
f 150 149 90
f 154 95 156
f 87 124 136
f 73 71 48
f 48 81 73
f 75 73 81
f 18 20 53
f 56 53 20
f 59 57 27
f 28 27 57
f 99 111 97
f 97 156 95
f 93 95 154
f 154 152 93
f 46 48 71
f 21 24 56
f 38 40 63
f 35 38 61
f 50 16 51
f 15 53 16
f 51 16 53
f 15 18 53
f 65 42 67
f 30 32 59
f 57 56 28
f 24 28 56
f 20 21 56
f 27 30 59
f 71 69 46
f 67 44 69
f 236 90 250
f 90 89 150
f 156 97 111
f 111 99 112
f 232 233 246
f 247 246 233
f 249 248 235
f 124 126 137
f 113 112 103
f 117 115 107
f 104 107 115
f 137 136 124
f 132 134 141
f 134 277 141
f 143 141 277
f 250 249 236
f 85 119 109
f 85 84 121
f 136 121 84
f 84 87 136
f 248 247 234
f 233 234 247
f 101 103 112
f 103 104 113
f 79 77 269
f 81 268 75
f 139 137 128
f 101 112 99
f 85 121 119
f 115 113 104
f 107 109 117
f 119 117 109
f 235 236 249
f 270 271 262
f 263 262 271
f 265 264 273
f 274 266 273
f 271 272 263
f 272 273 264
f 264 263 272
f 239 240 243
f 241 258 237
f 255 237 258
f 255 258 257
f 256 254 257
f 259 252 260
f 251 260 252
f 160 302 259
f 245 244 231
f 231 230 245
f 246 245 230
f 230 232 246
f 234 235 248
f 149 250 90
f 237 238 241
f 242 241 238
f 126 128 137
f 128 130 139
f 130 132 139
f 141 139 132
f 243 242 239
f 238 239 242
f 244 243 240
f 240 231 244
f 293 292 290
f 294 293 290
f 295 294 289
f 290 289 294
f 296 295 289
f 289 297 296
f 303 296 297
f 297 298 303
f 285 267 274
f 276 287 279
f 280 281 145
f 267 285 275
f 287 276 286
f 276 275 286
f 265 273 266
f 266 274 267
f 255 257 254
f 281 282 145
f 283 145 282
f 279 288 284
f 145 143 280
f 284 283 282
f 278 280 143
f 277 278 143
f 262 79 270
f 269 270 79
f 77 75 268
f 268 269 77
f 251 253 261
f 260 251 261
f 261 253 256
f 254 256 253
f 145 283 146
f 216 283 284
f 285 274 210
f 206 210 274
f 201 202 272
f 166 278 277
f 276 279 215
f 219 167 280
f 205 206 274
f 205 274 273
f 208 267 275
f 208 275 209
f 209 275 276
f 218 217 282
f 218 282 281
f 216 146 283
f 201 272 271
f 202 205 273
f 202 273 272
f 210 213 286
f 210 286 285
f 213 214 287
f 225 295 296
f 225 296 226
f 4 5 6

