# https://github.com/mikedh/trimesh
v 0.01169828 0.01071939 -0.00600000
v 0.01169828 0.01071939 0.00600000
v -0.00350413 -0.02528950 -0.00600000
v -0.00350413 -0.02528950 0.00600000
v 0.01169828 0.01471050 -0.00600000
v 0.01169828 0.01471050 0.00600000
v 0.00657684 0.01015422 -0.00600000
v -0.00882561 -0.02528950 -0.00600000
v -0.00882561 -0.02528950 0.00600000
v 0.00657684 0.01015422 0.00600000
v -0.01402802 0.01015422 0.00600000
v -0.01402802 0.01471050 0.00600000
v -0.01402802 0.01471050 -0.00600000
v -0.01402802 0.01015422 -0.00600000
f 1 5 6
f 12 6 13
f 1 2 3
f 4 3 2
f 7 9 10
f 7 8 9
f 13 14 12
f 5 13 6
f 4 8 3
f 3 7 1
f 5 7 13
f 3 8 7
f 5 1 7
f 6 12 10
f 6 10 2
f 9 4 10
f 11 14 7
f 11 7 10
f 1 6 2
f 4 9 8
f 14 11 12
f 10 12 11
f 4 2 10
f 14 13 7

