# https://github.com/mikedh/trimesh
v -0.00921864 -0.00202390 -0.00600000
v -0.00993587 -0.00285064 -0.00600000
v -0.00993587 -0.00285064 0.00600000
v -0.00921864 -0.00202390 0.00600000
v -0.01056827 -0.00374834 -0.00600000
v -0.01056827 -0.00374834 0.00600000
v -0.01110350 -0.00471390 -0.00600000
v -0.01110350 -0.00471390 0.00600000
v -0.01154309 -0.00575042 -0.00600000
v -0.01154309 -0.00575042 0.00600000
v -0.01186855 -0.00684247 -0.00600000
v -0.01186855 -0.00684247 0.00600000
v -0.00069051 -0.00073596 0.00600000
v -0.00274966 -0.00183726 0.00600000
v -0.00274966 -0.00183726 -0.00600000
v -0.00443400 -0.00305116 0.00600000
v -0.00443400 -0.00305116 -0.00600000
v -0.00574354 -0.00437920 0.00600000
v -0.00574354 -0.00437920 -0.00600000
v -0.00670138 -0.00583217 0.00600000
v -0.00670138 -0.00583217 -0.00600000
v -0.00727671 -0.00747795 0.00600000
v -0.00727671 -0.00747795 -0.00600000
v 0.00640933 -0.01846627 -0.00600000
v 0.00640933 -0.01846627 0.00600000
v 0.00499028 -0.01903080 -0.00600000
v 0.00768954 -0.01775983 -0.00600000
v 0.00768954 -0.01775983 0.00600000
v 0.00882941 -0.01691612 0.00600000
v 0.00882941 -0.01691612 -0.00600000
v 0.00982273 -0.01593204 0.00600000
v 0.01183716 -0.01216696 -0.00600000
v 0.00732862 -0.01098237 -0.00600000
v 0.01213793 -0.01069085 -0.00600000
v 0.00666691 0.01859230 -0.00600000
v 0.00459850 0.01470074 -0.00600000
v 0.00550391 0.01917997 -0.00600000
v 0.00333679 0.01546270 -0.00600000
v 0.00424683 0.01963654 -0.00600000
v 0.00290953 0.01996353 -0.00600000
v 0.00151209 0.02015942 -0.00600000
v 0.00179589 0.01591926 -0.00600000
v -0.00002418 0.01607196 -0.00600000
v -0.00409930 0.01963654 -0.00600000
v -0.00274966 0.01996353 -0.00600000
v -0.00177792 0.01591926 -0.00600000
v -0.00136455 0.02015942 -0.00600000
v 0.00005449 0.02022420 -0.00600000
v -0.00535639 0.01917997 -0.00600000
v -0.00328027 0.01546270 -0.00600000
v 0.00553476 0.01362103 -0.00600000
v 0.01008340 0.01497529 -0.00600000
v 0.00609621 0.01226369 -0.00600000
v 0.00773273 0.01787353 -0.00600000
v 0.00865512 0.01702982 -0.00600000
v 0.01088394 0.01236241 -0.00600000
v 0.01058470 0.01373363 -0.00600000
v 0.00943867 0.01606271 -0.00600000
v 0.00607461 0.00888575 -0.00600000
v 0.01002634 0.00673405 -0.00600000
v 0.00581394 0.00811917 -0.00600000
v 0.00628285 0.01062562 -0.00600000
v 0.01092403 0.00972021 -0.00600000
v 0.00623040 0.00972021 -0.00600000
v 0.01043663 0.00764872 -0.00600000
v 0.01074049 0.00864976 -0.00600000
v 0.00953121 0.00587338 -0.00600000
v 0.00894817 0.00506359 -0.00600000
v 0.00545610 0.00740964 -0.00600000
v 0.00830343 0.00433094 -0.00600000
v 0.01098419 0.01086162 -0.00600000
v 0.00448128 0.00612017 -0.00600000
v 0.00675329 0.00302604 -0.00600000
v 0.00389823 0.00556798 -0.00600000
v 0.00501187 0.00674331 -0.00600000
v 0.00757232 0.00365227 -0.00600000
v -0.00452963 0.01470074 -0.00600000
v -0.00651938 0.01859230 -0.00600000
v -0.00930964 0.01606271 -0.00600000
v -0.00851221 0.01702982 -0.00600000
v -0.00544430 0.01362103 -0.00600000
v -0.01074103 0.01241485 -0.00600000
v -0.01045413 0.01375985 -0.00600000
v -0.00599186 0.01226369 -0.00600000
v -0.00997597 0.01497529 -0.00600000
v -0.00758521 0.01787353 -0.00600000
v 0.00982273 -0.01593204 -0.00600000
v 0.01065873 -0.01480915 -0.00600000
v 0.01065873 -0.01480915 0.00600000
v -0.00596564 0.00881480 -0.00600000
v -0.00570497 0.00804050 -0.00600000
v -0.00999294 0.00679113 -0.00600000
v 0.01133741 -0.01354590 -0.00600000
v 0.01133741 -0.01354590 0.00600000
v -0.00954872 0.00591656 -0.00600000
v -0.00535175 0.00735720 -0.00600000
v -0.00617542 0.01062562 -0.00600000
v -0.00903509 0.00510216 -0.00600000
v -0.00612297 0.00967702 -0.00600000
v -0.01078576 0.00979888 -0.00600000
v -0.00492141 0.00671709 -0.00600000
v -0.00844742 0.00432323 -0.00600000
v 0.00621344 -0.01328522 -0.00600000
v 0.00561652 -0.01389911 -0.00600000
v 0.00561652 -0.01389911 0.00600000
v 0.00621344 -0.01328522 0.00600000
v 0.00669622 -0.01259267 -0.00600000
v 0.00669622 -0.01259267 0.00600000
v -0.00441240 0.00612017 -0.00600000
v -0.00778109 0.00360445 -0.00600000
v 0.00706640 -0.01182299 -0.00600000
v 0.00706640 -0.01182299 0.00600000
v -0.00241341 0.00463171 -0.00600000
v -0.00460830 0.00114581 -0.00600000
v -0.00315841 0.00509290 -0.00600000
v 0.00732862 -0.01098237 0.00600000
v 0.00748440 -0.01008158 -0.00600000
v 0.00748440 -0.01008158 0.00600000
v 0.00753684 -0.00911910 -0.00600000
v 0.00753684 -0.00911910 0.00600000
v 0.00747978 -0.00823066 -0.00600000
v 0.00747978 -0.00823066 0.00600000
v -0.01036775 0.00772738 -0.00600000
v -0.01062843 0.00872843 -0.00600000
v -0.01083665 0.01094028 -0.00600000
v -0.00382474 0.00558957 -0.00600000
v -0.00626179 0.00231189 -0.00600000
v -0.00545201 0.00171034 -0.00600000
v 0.00731011 -0.00739620 0.00600000
v 0.00005449 -0.01977580 -0.00600000
v 0.00005449 -0.01977580 0.00600000
v -0.00183037 -0.01969713 -0.00600000
v 0.00180361 -0.01969251 -0.00600000
v 0.00180361 -0.01969251 0.00600000
v 0.00796410 -0.00118790 -0.00600000
v 0.00484221 -0.00393960 -0.00600000
v 0.00702785 -0.00049997 -0.00600000
v 0.00344939 -0.01944571 -0.00600000
v 0.00344939 -0.01944571 0.00600000
v 0.00499028 -0.01903080 0.00600000
v 0.00252238 0.00459316 -0.00600000
v 0.00397228 0.00134170 -0.00600000
v 0.00174808 0.00413968 -0.00600000
v 0.00110334 -0.01561430 -0.00600000
v -0.00010284 -0.01566212 -0.00600000
v -0.00010284 -0.01566212 0.00600000
v 0.00110334 -0.01561430 0.00600000
v 0.00324425 0.00505897 -0.00600000
v 0.00494246 0.00185841 -0.00600000
v 0.00586947 0.00242141 -0.00600000
v 0.00221390 -0.01547086 -0.00600000
v 0.00221390 -0.01547086 0.00600000
v 0.00093830 0.00372168 -0.00600000
v 0.00122056 -0.00164138 -0.00600000
v 0.00013315 -0.00108764 -0.00600000
v 0.00322728 -0.01523178 -0.00600000
v 0.00322728 -0.01523178 0.00600000
v 0.00412035 -0.01487393 -0.00600000
v 0.00412035 -0.01487393 0.00600000
v 0.00491625 -0.01442971 -0.00600000
v 0.00491625 -0.01442971 0.00600000
v 0.00500725 0.00077100 -0.00600000
v 0.00223858 -0.00220282 -0.00600000
v 0.00405865 -0.00333805 -0.00600000
v 0.00602680 0.00015711 -0.00600000
v 0.00318871 -0.00277198 -0.00600000
v 0.00009305 0.00333915 -0.00600000
v -0.00069051 -0.00073596 -0.00600000
v -0.00079540 0.00376178 -0.00600000
v 0.00612243 -0.00521828 -0.00600000
v 0.00553939 -0.00457508 -0.00600000
v 0.00883866 -0.00194523 -0.00600000
v 0.00965307 -0.00277198 -0.00600000
v 0.01036259 -0.00364345 -0.00600000
v 0.00661909 -0.00589850 -0.00600000
v 0.01215490 -0.00785739 -0.00600000
v 0.01223819 -0.00911910 -0.00600000
v 0.01190810 -0.00668205 -0.00600000
v 0.00702785 -0.00661265 -0.00600000
v 0.01097648 -0.00458280 -0.00600000
v 0.00731011 -0.00739620 -0.00600000
v 0.01149319 -0.00559309 -0.00600000
v -0.00659341 0.00004759 -0.00600000
v -0.00754664 -0.00057863 -0.00600000
v -0.00163140 0.00419212 -0.00600000
v -0.00703764 0.00294738 -0.00600000
v -0.00561397 0.00062292 -0.00600000
v -0.00842121 -0.00126656 -0.00600000
v -0.00746797 -0.00931499 -0.00600000
v -0.00746797 -0.00931499 0.00600000
v -0.00742016 -0.01022966 0.00600000
v -0.00742016 -0.01022966 -0.00600000
v -0.00727671 -0.01109188 0.00600000
v -0.00727671 -0.01109188 -0.00600000
v -0.00703764 -0.01190166 0.00600000
v -0.00703764 -0.01190166 -0.00600000
v -0.00669830 -0.01264511 0.00600000
v -0.00669830 -0.01264511 -0.00600000
v -0.00625407 -0.01331145 0.00600000
v -0.00625407 -0.01331145 -0.00600000
v -0.00570497 -0.01389911 0.00600000
v -0.00570497 -0.01389911 -0.00600000
v -0.00504789 -0.01442971 0.00600000
v -0.00659341 -0.01852642 -0.00600000
v -0.00659341 -0.01852642 0.00600000
v -0.00787364 -0.01783387 -0.00600000
v -0.00515586 -0.01907090 -0.00600000
v -0.00515586 -0.01907090 0.00600000
v -0.00356715 -0.01946268 -0.00600000
v -0.00356715 -0.01946268 0.00600000
v -0.00183037 -0.01969713 0.00600000
v -0.00504789 -0.01442971 -0.00600000
v -0.00427667 -0.01487393 -0.00600000
v -0.00427667 -0.01487393 0.00600000
v -0.00339286 -0.01523178 -0.00600000
v -0.00339286 -0.01523178 0.00600000
v -0.00241803 -0.01547086 -0.00600000
v -0.00241803 -0.01547086 0.00600000
v -0.00132136 -0.01561430 -0.00600000
v -0.00132136 -0.01561430 0.00600000
v -0.01206444 -0.00803169 0.00600000
v -0.01206444 -0.00803169 -0.00600000
v -0.01213076 -0.00931499 -0.00600000
v -0.01213076 -0.00931499 0.00600000
v -0.01204285 -0.01089908 -0.00600000
v -0.01204285 -0.01089908 0.00600000
v -0.01178216 -0.01236285 -0.00600000
v -0.01178216 -0.01236285 0.00600000
v -0.01134720 -0.01370322 -0.00600000
v -0.01134720 -0.01370322 0.00600000
v -0.01071943 -0.01494026 -0.00600000
v -0.01071943 -0.01494026 0.00600000
v -0.00993587 -0.01603693 -0.00600000
v -0.00993587 -0.01603693 0.00600000
v -0.00899652 -0.01699478 -0.00600000
v -0.00899652 -0.01699478 0.00600000
v -0.00787364 -0.01783387 0.00600000
v 0.00661909 -0.00589850 0.00600000
v 0.00702785 -0.00661265 0.00600000
v 0.01036259 -0.00364345 0.00600000
v 0.01149319 -0.00559309 0.00600000
v 0.01190810 -0.00668205 0.00600000
v 0.01223819 -0.00911910 0.00600000
v 0.01215490 -0.00785739 0.00600000
v 0.01213793 -0.01069085 0.00600000
v -0.00758521 0.01787353 0.00600000
v -0.00452963 0.01470074 0.00600000
v -0.00651938 0.01859230 0.00600000
v -0.00535639 0.01917997 0.00600000
v -0.00328027 0.01546270 0.00600000
v -0.00409930 0.01963654 0.00600000
v -0.00274966 0.01996353 0.00600000
v -0.00177792 0.01591926 0.00600000
v -0.00136455 0.02015942 0.00600000
v 0.00290953 0.01996353 0.00600000
v 0.00151209 0.02015942 0.00600000
v 0.00179589 0.01591926 0.00600000
v 0.00005449 0.02022420 0.00600000
v -0.00002418 0.01607196 0.00600000
v 0.00550391 0.01917997 0.00600000
v 0.00424683 0.01963654 0.00600000
v 0.00333679 0.01546270 0.00600000
v 0.01088394 0.01236241 0.00600000
v 0.01058470 0.01373363 0.00600000
v 0.00609621 0.01226369 0.00600000
v 0.01098419 0.01086162 0.00600000
v 0.00628285 0.01062562 0.00600000
v 0.01008340 0.01497529 0.00600000
v 0.00943867 0.01606271 0.00600000
v 0.00553476 0.01362103 0.00600000
v 0.00865512 0.01702982 0.00600000
v 0.00459850 0.01470074 0.00600000
v 0.00773273 0.01787353 0.00600000
v 0.00666691 0.01859230 0.00600000
v 0.00894817 0.00506359 0.00600000
v 0.00953121 0.00587338 0.00600000
v 0.00545610 0.00740964 0.00600000
v 0.00581394 0.00811917 0.00600000
v 0.01092403 0.00972021 0.00600000
v 0.00623040 0.00972021 0.00600000
v 0.01074049 0.00864976 0.00600000
v 0.01002634 0.00673405 0.00600000
v 0.00607461 0.00888575 0.00600000
v 0.01043663 0.00764872 0.00600000
v 0.00324425 0.00505897 0.00600000
v 0.00586947 0.00242141 0.00600000
v 0.00389823 0.00556798 0.00600000
v 0.00675329 0.00302604 0.00600000
v 0.00757232 0.00365227 0.00600000
v 0.00448128 0.00612017 0.00600000
v -0.00544430 0.01362103 0.00600000
v -0.00851221 0.01702982 0.00600000
v -0.01045413 0.01375985 0.00600000
v -0.00599186 0.01226369 0.00600000
v -0.00997597 0.01497529 0.00600000
v -0.01074103 0.01241485 0.00600000
v -0.00930964 0.01606271 0.00600000
v -0.00617542 0.01062562 0.00600000
v -0.01083665 0.01094028 0.00600000
v -0.01078576 0.00979888 0.00600000
v -0.00612297 0.00967702 0.00600000
v -0.01062843 0.00872843 0.00600000
v 0.01183716 -0.01216696 0.00600000
v -0.00954872 0.00591656 0.00600000
v -0.00903509 0.00510216 0.00600000
v -0.00535175 0.00735720 0.00600000
v -0.00570497 0.00804050 0.00600000
v -0.00999294 0.00679113 0.00600000
v -0.00596564 0.00881480 0.00600000
v -0.01036775 0.00772738 0.00600000
v -0.00778109 0.00360445 0.00600000
v -0.00703764 0.00294738 0.00600000
v -0.00441240 0.00612017 0.00600000
v -0.00382474 0.00558957 0.00600000
v -0.00626179 0.00231189 0.00600000
v -0.00315841 0.00509290 0.00600000
v 0.00830343 0.00433094 0.00600000
v 0.00501187 0.00674331 0.00600000
v 0.00223858 -0.00220282 0.00600000
v 0.00318871 -0.00277198 0.00600000
v 0.00500725 0.00077100 0.00600000
v 0.00397228 0.00134170 0.00600000
v 0.00602680 0.00015711 0.00600000
v 0.00252238 0.00459316 0.00600000
v 0.00174808 0.00413968 0.00600000
v 0.00494246 0.00185841 0.00600000
v 0.00093830 0.00372168 0.00600000
v 0.00122056 -0.00164138 0.00600000
v 0.00013315 -0.00108764 0.00600000
v 0.00009305 0.00333915 0.00600000
v -0.00079540 0.00376178 0.00600000
v 0.01097648 -0.00458280 0.00600000
v 0.00612243 -0.00521828 0.00600000
v 0.00965307 -0.00277198 0.00600000
v 0.00883866 -0.00194523 0.00600000
v 0.00553939 -0.00457508 0.00600000
v 0.00405865 -0.00333805 0.00600000
v 0.00484221 -0.00393960 0.00600000
v 0.00702785 -0.00049997 0.00600000
v 0.00796410 -0.00118790 0.00600000
v -0.00492141 0.00671709 0.00600000
v -0.00844742 0.00432323 0.00600000
v -0.00754664 -0.00057863 0.00600000
v -0.00659341 0.00004759 0.00600000
v -0.00842121 -0.00126656 0.00600000
v -0.00561397 0.00062292 0.00600000
v -0.00460830 0.00114581 0.00600000
v -0.00545201 0.00171034 0.00600000
v -0.00241341 0.00463171 0.00600000
v -0.00163140 0.00419212 0.00600000
f 133 151 138
f 130 144 133
f 132 219 130
f 27 24 160
f 104 27 160
f 138 156 26
f 189 222 23
f 158 160 24
f 264 268 265
f 263 264 265
f 258 254 259
f 253 259 254
f 260 261 262
f 278 277 276
f 266 263 267
f 158 26 156
f 242 122 244
f 245 243 118
f 254 252 253
f 255 256 257
f 256 258 259
f 259 257 256
f 268 269 270
f 270 265 268
f 175 170 173
f 246 247 248
f 248 247 249
f 249 250 251
f 252 251 253
f 238 239 240
f 120 118 243
f 122 120 244
f 2 6 3
f 5 7 8
f 274 272 273
f 275 276 277
f 269 271 270
f 272 270 271
f 271 273 272
f 274 260 272
f 7 9 10
f 7 10 8
f 17 18 19
f 9 11 12
f 9 12 10
f 1 2 3
f 1 3 4
f 2 5 6
f 24 25 26
f 27 28 25
f 27 25 24
f 5 8 6
f 13 14 15
f 15 14 16
f 15 16 17
f 17 16 18
f 194 225 192
f 235 233 200
f 182 241 242
f 182 242 178
f 19 18 20
f 19 20 21
f 21 20 22
f 21 22 23
f 289 317 318
f 177 245 34
f 54 55 36
f 56 53 57
f 58 51 55
f 52 51 58
f 39 38 40
f 41 40 42
f 54 273 271
f 242 244 176
f 321 322 319
f 323 321 320
f 54 35 274
f 54 274 273
f 78 246 248
f 86 292 246
f 34 303 32
f 177 243 245
f 176 244 243
f 176 243 177
f 299 300 298
f 301 298 300
f 300 302 301
f 32 303 94
f 294 291 295
f 297 295 291
f 292 297 291
f 242 176 178
f 304 305 306
f 254 47 45
f 254 45 252
f 34 245 303
f 53 56 62
f 71 62 56
f 79 80 81
f 82 83 84
f 46 50 44
f 72 73 74
f 83 85 84
f 78 49 77
f 65 59 66
f 57 53 52
f 69 70 75
f 70 76 75
f 63 66 64
f 67 61 60
f 68 69 67
f 70 69 68
f 42 40 38
f 59 60 61
f 71 63 62
f 45 47 46
f 49 44 50
f 51 52 53
f 62 63 64
f 60 59 65
f 42 43 41
f 319 320 321
f 44 45 46
f 43 46 47
f 47 48 43
f 48 41 43
f 38 37 36
f 51 36 55
f 191 190 224
f 190 22 221
f 12 221 22
f 224 226 191
f 193 191 226
f 199 197 234
f 243 244 120
f 303 245 116
f 88 31 87
f 50 77 49
f 195 193 228
f 228 230 195
f 232 197 230
f 85 79 81
f 232 234 197
f 221 224 190
f 33 32 111
f 117 34 33
f 26 158 24
f 77 81 80
f 80 86 77
f 78 77 86
f 87 31 30
f 88 89 31
f 54 36 35
f 34 117 177
f 87 107 88
f 107 111 88
f 30 103 87
f 119 177 117
f 121 176 119
f 27 104 30
f 91 96 95
f 84 97 82
f 98 95 96
f 81 84 85
f 101 102 96
f 206 237 236
f 206 236 235
f 205 237 206
f 107 106 108
f 109 110 101
f 111 107 108
f 90 91 92
f 113 114 115
f 93 89 88
f 95 92 91
f 94 93 32
f 117 116 118
f 119 117 118
f 119 118 120
f 99 100 97
f 129 122 242
f 103 104 105
f 103 105 106
f 107 103 106
f 118 116 245
f 134 139 152
f 152 147 134
f 28 29 105
f 111 108 112
f 33 111 112
f 33 112 116
f 117 33 116
f 350 349 347
f 331 350 347
f 315 348 316
f 216 210 218
f 93 94 89
f 211 218 210
f 237 205 203
f 214 203 205
f 200 202 235
f 93 88 111
f 231 234 232
f 233 235 236
f 233 236 234
f 305 342 306
f 348 347 316
f 349 316 347
f 151 133 144
f 144 130 145
f 93 111 32
f 181 178 121
f 204 213 207
f 209 207 215
f 213 204 212
f 132 209 217
f 227 229 230
f 227 230 228
f 229 231 232
f 229 232 230
f 231 233 234
f 222 223 224
f 222 224 221
f 179 182 181
f 156 138 151
f 223 225 226
f 223 226 224
f 225 227 228
f 225 228 226
f 125 97 100
f 345 4 18
f 343 345 18
f 22 8 10
f 226 228 193
f 195 230 197
f 241 332 239
f 201 199 236
f 215 217 209
f 132 217 219
f 145 130 219
f 146 220 131
f 218 211 220
f 131 220 211
f 159 157 140
f 210 216 208
f 139 140 157
f 157 152 139
f 10 12 22
f 205 208 214
f 203 201 237
f 236 237 201
f 234 236 199
f 347 346 14
f 216 214 208
f 131 134 147
f 147 146 131
f 20 18 4
f 344 16 346
f 64 59 283
f 64 283 280
f 62 64 280
f 62 280 267
f 86 80 292
f 53 62 265
f 25 28 161
f 342 311 341
f 341 306 342
f 313 341 311
f 331 347 13
f 14 13 347
f 14 346 16
f 344 343 16
f 89 94 112
f 18 16 343
f 4 3 20
f 3 6 20
f 6 8 20
f 22 20 8
f 161 159 25
f 105 161 28
f 106 105 29
f 140 25 159
f 31 89 108
f 108 106 31
f 29 31 106
f 112 108 89
f 116 112 303
f 94 303 112
f 75 72 290
f 75 290 318
f 69 75 318
f 229 227 196
f 194 196 227
f 148 324 285
f 74 148 285
f 74 285 287
f 65 284 282
f 65 282 60
f 196 198 229
f 231 229 198
f 206 212 204
f 233 231 198
f 198 200 233
f 206 235 202
f 71 266 279
f 71 279 63
f 267 265 62
f 263 266 71
f 67 276 275
f 67 275 68
f 60 282 276
f 60 276 67
f 69 318 277
f 61 69 277
f 61 277 278
f 59 278 283
f 66 281 284
f 66 284 65
f 63 279 281
f 63 281 66
f 225 194 227
f 11 23 222
f 223 192 225
f 192 223 189
f 222 189 223
f 215 213 214
f 275 277 317
f 318 290 289
f 132 211 210
f 132 210 209
f 131 211 132
f 219 217 218
f 212 202 203
f 213 212 203
f 213 203 214
f 215 214 216
f 126 313 314
f 115 126 314
f 217 215 216
f 217 216 218
f 59 61 278
f 219 218 220
f 220 146 219
f 145 219 146
f 72 74 287
f 72 287 290
f 221 12 222
f 11 222 12
f 79 85 295
f 79 295 297
f 85 83 293
f 126 109 313
f 138 139 134
f 138 134 133
f 26 140 139
f 26 139 138
f 141 142 143
f 46 253 250
f 202 201 203
f 204 205 206
f 141 148 149
f 142 141 149
f 150 149 148
f 148 74 150
f 309 301 302
f 302 310 309
f 133 131 130
f 135 136 137
f 78 86 246
f 44 249 251
f 49 78 248
f 49 248 249
f 306 307 304
f 308 304 307
f 144 145 146
f 144 146 147
f 318 317 277
f 290 287 288
f 310 308 309
f 307 309 308
f 311 312 313
f 314 313 312
f 312 315 314
f 316 314 315
f 101 313 109
f 90 309 307
f 90 307 91
f 91 307 306
f 91 306 96
f 294 97 84
f 200 199 201
f 200 201 202
f 96 306 341
f 83 82 296
f 83 296 293
f 82 299 296
f 80 79 297
f 80 297 292
f 96 341 101
f 101 341 313
f 81 294 84
f 294 298 97
f 259 253 46
f 46 250 50
f 50 250 247
f 50 247 77
f 85 293 295
f 115 314 316
f 194 195 196
f 196 195 197
f 196 197 198
f 209 210 208
f 209 208 207
f 77 247 291
f 77 291 81
f 81 291 294
f 125 300 299
f 189 23 190
f 22 190 23
f 123 92 308
f 123 308 310
f 92 95 304
f 215 207 213
f 114 128 115
f 124 123 310
f 124 310 302
f 113 115 316
f 192 193 194
f 194 193 195
f 92 304 308
f 82 125 299
f 125 100 300
f 98 342 305
f 198 197 199
f 198 199 200
f 189 191 192
f 192 191 193
f 70 289 76
f 100 124 302
f 100 302 300
f 97 298 301
f 97 301 99
f 99 301 309
f 99 309 90
f 207 208 205
f 207 205 204
f 95 98 305
f 95 305 304
f 149 326 142
f 172 135 335
f 135 137 339
f 135 339 340
f 137 165 323
f 137 323 339
f 70 317 289
f 189 190 191
f 121 119 120
f 286 149 150
f 143 153 327
f 143 327 325
f 162 322 321
f 328 329 155
f 321 323 162
f 286 326 149
f 92 123 90
f 123 124 90
f 99 90 124
f 100 99 124
f 82 97 125
f 25 140 26
f 126 115 127
f 64 66 59
f 121 122 129
f 130 131 132
f 73 72 76
f 72 75 76
f 61 67 69
f 73 150 74
f 133 134 131
f 121 120 122
f 324 325 322
f 322 326 324
f 286 285 326
f 35 37 260
f 328 319 322
f 37 261 260
f 239 129 241
f 51 53 265
f 324 326 285
f 40 41 256
f 40 256 255
f 322 325 327
f 41 48 258
f 48 254 258
f 39 40 255
f 39 255 261
f 202 212 206
f 165 162 323
f 153 167 327
f 141 143 325
f 141 325 324
f 148 141 324
f 56 263 71
f 329 328 322
f 275 317 70
f 340 335 135
f 73 288 286
f 73 286 150
f 76 289 288
f 76 288 73
f 162 142 322
f 322 142 326
f 155 13 168
f 166 319 163
f 113 316 349
f 185 113 349
f 185 349 350
f 350 331 185
f 169 185 331
f 257 259 43
f 163 328 154
f 136 338 337
f 136 337 164
f 164 337 320
f 167 169 331
f 167 331 330
f 330 327 167
f 155 329 13
f 180 241 182
f 179 181 129
f 179 129 239
f 174 240 332
f 174 332 180
f 173 334 240
f 173 240 174
f 163 319 328
f 41 258 256
f 48 47 254
f 35 260 274
f 37 39 261
f 172 335 334
f 172 334 173
f 181 121 129
f 180 332 241
f 332 240 239
f 36 51 270
f 55 269 58
f 55 54 271
f 57 264 56
f 257 43 42
f 242 241 129
f 43 259 46
f 171 170 333
f 103 30 104
f 5 2 21
f 2 1 21
f 330 331 13
f 58 269 268
f 58 268 52
f 51 265 270
f 175 179 239
f 175 239 238
f 128 127 115
f 170 175 238
f 170 238 333
f 107 87 103
f 164 320 166
f 166 320 319
f 17 187 15
f 19 184 17
f 114 15 187
f 9 7 23
f 183 187 17
f 171 333 336
f 171 336 338
f 171 338 136
f 183 343 344
f 19 21 1
f 188 19 1
f 184 19 188
f 102 110 311
f 102 311 342
f 184 188 345
f 186 312 311
f 187 183 344
f 187 344 346
f 180 182 179
f 183 17 184
f 184 345 343
f 98 102 342
f 154 328 155
f 183 184 343
f 52 264 57
f 185 114 113
f 169 114 185
f 15 114 168
f 169 168 114
f 7 5 21
f 21 23 7
f 11 9 23
f 327 330 329
f 13 329 330
f 55 271 269
f 322 327 329
f 263 56 264
f 187 346 347
f 128 348 315
f 52 268 264
f 158 156 157
f 158 157 159
f 162 163 142
f 137 164 165
f 15 168 13
f 114 347 348
f 114 348 128
f 154 155 142
f 155 168 167
f 169 167 168
f 109 126 186
f 186 110 109
f 102 101 110
f 127 186 126
f 98 96 102
f 156 152 157
f 4 345 1
f 188 1 345
f 165 166 162
f 161 105 160
f 104 160 105
f 151 144 147
f 151 147 152
f 153 143 142
f 186 311 110
f 127 315 312
f 127 312 186
f 128 315 127
f 114 187 347
f 160 158 159
f 160 159 161
f 153 142 155
f 174 180 179
f 178 181 182
f 36 270 272
f 333 238 334
f 36 272 262
f 164 137 136
f 172 173 170
f 179 175 174
f 68 275 70
f 337 338 339
f 339 323 337
f 36 262 38
f 334 335 333
f 240 334 238
f 38 262 257
f 38 257 42
f 340 339 338
f 338 336 340
f 335 340 336
f 153 155 167
f 135 172 171
f 136 135 171
f 166 165 164
f 336 333 335
f 156 151 152
f 176 177 119
f 163 162 166
f 176 121 178
f 154 142 163
f 170 171 172
f 173 174 175
f 320 337 323
f 291 247 292
f 32 33 34
f 35 36 37
f 37 38 39
f 45 44 251
f 45 251 252
f 44 49 249
f 246 292 247
f 286 288 287
f 288 289 290
f 265 267 263
f 279 266 267
f 293 294 295
f 296 294 293
f 257 262 255
f 250 249 247
f 253 251 250
f 285 286 287
f 267 280 279
f 281 279 280
f 276 282 278
f 283 278 282
f 294 296 298
f 296 299 298
f 262 272 260
f 27 29 28
f 30 29 27
f 30 31 29
f 261 255 262
f 282 284 283
f 284 281 283
f 280 283 281

