# https://github.com/mikedh/trimesh
v 0.00647296 0.00740399 -0.00600000
v 0.01107076 0.00722953 -0.00600000
v 0.00664279 0.00622753 -0.00600000
v 0.01141043 0.00469286 -0.00600000
v 0.00581987 0.00971679 -0.00600000
v 0.00533663 0.01077593 -0.00600000
v 0.00977233 0.01154325 -0.00600000
v 0.01050415 0.00952072 -0.00600000
v 0.00619042 0.00858046 -0.00600000
v 0.00568864 0.00167449 -0.00600000
v 0.00611168 0.00250203 -0.00600000
v 0.01148917 0.00005800 -0.00600000
v 0.00888302 0.01332031 -0.00600000
v 0.00473913 0.01175632 -0.00600000
v 0.01120972 -0.00365514 -0.00600000
v 0.01097968 -0.00548469 -0.00600000
v 0.00645135 -0.00338495 -0.00600000
v 0.00621667 -0.00539823 -0.00600000
v 0.01065237 -0.00726329 -0.00600000
v 0.00587700 -0.00734203 -0.00600000
v 0.00970284 -0.01062750 -0.00600000
v 0.00906213 -0.01219613 -0.00600000
v 0.00540148 -0.00919320 -0.00600000
v 0.00658258 -0.00130220 -0.00600000
v 0.01138419 -0.00179934 -0.00600000
v 0.00515290 0.00091642 -0.00600000
v 0.00622901 -0.00130220 -0.00600000
v 0.01152313 0.00191380 -0.00600000
v 0.00663507 0.00419263 -0.00600000
v 0.00643899 0.00334193 -0.00600000
v 0.00669991 0.00505105 -0.00600000
v -0.00313025 0.01470676 -0.00600000
v -0.00404580 0.01442268 -0.00600000
v -0.00456302 0.01867156 -0.00600000
v -0.00292955 0.01898497 -0.00600000
v -0.00216221 0.01487659 -0.00600000
v -0.00118182 0.01908996 -0.00600000
v 0.00057826 0.01897262 -0.00600000
v -0.00114322 0.01493372 -0.00600000
v 0.00225187 0.01861906 -0.00600000
v 0.00011199 0.01483799 -0.00600000
v 0.00664279 0.01616576 -0.00600000
v 0.00322299 0.01342993 -0.00600000
v 0.00531039 0.01722490 -0.00600000
v -0.00747486 0.01745957 -0.00600000
v -0.00608378 0.01814816 -0.00600000
v -0.00489033 0.01399655 -0.00600000
v 0.00611168 0.00250203 0.00600000
v 0.00643899 0.00334193 0.00600000
v 0.00383748 0.01803083 -0.00600000
v 0.00383748 0.01803083 0.00600000
v 0.00531039 0.01722490 0.00600000
v 0.00225187 0.01861906 0.00600000
v 0.00057826 0.01897262 0.00600000
v -0.00118182 0.01908996 0.00600000
v -0.00292955 0.01898497 0.00600000
v -0.00456302 0.01867156 0.00600000
v -0.00608378 0.01814816 0.00600000
v -0.00747486 0.01745957 0.00600000
v -0.00871618 0.01659807 -0.00600000
v -0.00871618 0.01659807 0.00600000
v 0.00011199 0.01483799 0.00600000
v -0.00114322 0.01493372 0.00600000
v -0.00564840 0.01344692 -0.00600000
v -0.00216221 0.01487659 0.00600000
v -0.00313025 0.01470676 0.00600000
v -0.00632000 0.01277685 -0.00600000
v -0.00404580 0.01442268 0.00600000
v -0.00489033 0.01399655 0.00600000
v -0.00564840 0.01344692 0.00600000
v 0.00783778 0.01485497 -0.00600000
v 0.00403356 0.01265797 -0.00600000
v -0.00632000 0.01277685 0.00600000
v 0.00230746 0.01407066 -0.00600000
v 0.00126222 0.01454928 -0.00600000
v 0.00581987 0.00971679 0.00600000
v 0.00533663 0.01077593 0.00600000
v -0.00692059 0.01195703 -0.00600000
v -0.00741773 0.01101523 -0.00600000
v -0.01153538 0.01298065 -0.00600000
v 0.00473913 0.01175632 0.00600000
v -0.01216221 0.01144290 -0.00600000
v 0.00403356 0.01265797 0.00600000
v 0.00322299 0.01342993 0.00600000
v -0.00980928 0.01556055 -0.00600000
v -0.01075106 0.01435320 -0.00600000
v -0.00780989 0.00995301 -0.00600000
v -0.00809242 0.00875956 -0.00600000
v -0.01262076 0.00975694 -0.00600000
v -0.00831938 0.00595271 -0.00600000
v -0.01298667 0.00599131 -0.00600000
v -0.00826225 0.00742561 -0.00600000
v 0.00230746 0.01407066 0.00600000
v 0.00126222 0.01454928 0.00600000
v -0.01289403 0.00793973 -0.00600000
v -0.00980928 0.01556055 0.00600000
v -0.00827152 0.00476388 -0.00600000
v -0.01075106 0.01435320 0.00600000
v -0.01153538 0.01298065 0.00600000
v -0.01216221 0.01144290 0.00600000
v -0.00812794 0.00365225 -0.00600000
v -0.01289867 0.00417873 -0.00600000
v -0.01263774 0.00250666 -0.00600000
v -0.00692059 0.01195703 0.00600000
v -0.00741773 0.01101523 0.00600000
v 0.00544471 -0.00254042 -0.00600000
v 0.00497535 -0.00310550 -0.00600000
v 0.00291730 -0.00095790 -0.00600000
v -0.01262076 0.00975694 0.00600000
v -0.01289403 0.00793973 0.00600000
v -0.01298667 0.00599131 0.00600000
v 0.00375411 -0.00040826 -0.00600000
v -0.01289867 0.00417873 0.00600000
v 0.00450445 0.00022783 -0.00600000
v -0.00780989 0.00995301 0.00600000
v -0.00809242 0.00875956 0.00600000
v 0.00586310 -0.00193829 -0.00600000
v -0.00826225 0.00742561 0.00600000
v -0.00831938 0.00595271 0.00600000
v -0.00519602 -0.00104127 -0.00600000
v -0.00780989 -0.00442710 -0.00600000
v -0.00592785 -0.00051789 -0.00600000
v -0.00827152 0.00476388 0.00600000
v -0.00435921 -0.00145968 -0.00600000
v -0.00651608 -0.00502769 -0.00600000
v -0.00342669 -0.00178545 -0.00600000
v -0.00509876 -0.00546308 -0.00600000
v -0.00240615 -0.00198152 -0.00600000
v -0.00357028 -0.00572554 -0.00600000
v -0.00011496 -0.00197689 -0.00600000
v 0.00002398 -0.00567305 -0.00600000
v -0.00129916 -0.00204791 -0.00600000
v -0.00192754 -0.00581200 -0.00600000
v 0.00098277 -0.00176846 -0.00600000
v -0.00011496 -0.00197689 0.00600000
v 0.00098277 -0.00176846 0.00600000
v 0.00199403 -0.00141954 -0.00600000
v 0.00199403 -0.00141954 0.00600000
v 0.00291730 -0.00095790 0.00600000
v 0.00375411 -0.00040826 0.00600000
v 0.00450445 0.00022783 0.00600000
v 0.00515290 0.00091642 0.00600000
v 0.00568864 0.00167449 0.00600000
v 0.00320911 -0.00451819 -0.00600000
v 0.00249889 -0.00490572 -0.00600000
v 0.00385910 -0.00409979 -0.00600000
v 0.00444733 -0.00362889 -0.00600000
v 0.00172848 -0.00523303 -0.00600000
v 0.00089631 -0.00549858 -0.00600000
v -0.00091627 -0.00577649 -0.00600000
v -0.00655468 0.00010895 -0.00600000
v -0.00655468 0.00010895 0.00600000
v -0.00592785 -0.00051789 0.00600000
v -0.00788863 0.00261937 -0.00600000
v -0.00519602 -0.00104127 0.00600000
v -0.00754896 0.00169610 -0.00600000
v -0.01220235 0.00097200 -0.00600000
v -0.00435921 -0.00145968 0.00600000
v -0.00342669 -0.00178545 0.00600000
v -0.00240615 -0.00198152 0.00600000
v -0.00129916 -0.00204791 0.00600000
v -0.01087766 -0.00165884 -0.00600000
v -0.01160949 -0.00041753 -0.00600000
v -0.00710431 0.00085930 -0.00600000
v -0.01000535 -0.00275349 -0.00600000
v -0.00897247 -0.00366749 -0.00600000
v 0.00639113 -0.01636164 -0.00600000
v 0.00395481 -0.01239993 -0.00600000
v 0.00742401 -0.01509253 -0.00600000
v 0.00830868 -0.01369374 -0.00600000
v 0.00476075 -0.01087916 -0.00600000
v 0.01022933 -0.00898786 -0.00600000
v 0.00170686 -0.01491035 -0.00600000
v 0.00387144 -0.01849226 -0.00600000
v 0.00026792 -0.01585060 -0.00600000
v 0.00293583 -0.01376013 -0.00600000
v 0.00521003 -0.01749797 -0.00600000
v 0.00070023 -0.02000839 -0.00600000
v 0.00236920 -0.01932906 -0.00600000
v -0.00565303 -0.01714595 -0.00600000
v -0.00621039 -0.02089306 -0.00600000
v -0.00641572 -0.01712280 -0.00600000
v -0.00339117 -0.01700082 -0.00600000
v -0.00322134 -0.02080969 -0.00600000
v -0.00141804 -0.01657007 -0.00600000
v -0.00115557 -0.02050862 -0.00600000
v -0.00549554 -0.02091004 -0.00600000
v -0.00584448 -0.02090541 -0.00600000
v -0.00659482 -0.02087144 -0.00600000
v -0.00700859 -0.02084520 -0.00600000
v -0.00870228 -0.01682791 -0.00600000
v -0.01004550 -0.02043914 -0.00600000
v -0.00939550 -0.01667042 -0.00600000
v -0.01004550 -0.01647898 -0.00600000
v -0.00741310 -0.02081895 -0.00600000
v -0.00780989 -0.02079270 -0.00600000
v -0.00718614 -0.01705795 -0.00600000
v -0.00862816 -0.02068772 -0.00600000
v -0.00796737 -0.01694987 -0.00600000
v -0.00822367 -0.02074021 -0.00600000
v -0.00902496 -0.02063522 -0.00600000
v -0.00973979 -0.02051325 -0.00600000
v -0.00940013 -0.02057964 -0.00600000
v 0.00658258 -0.00130220 0.00600000
v 0.00622901 -0.00130220 0.00600000
v 0.00783778 0.01485497 0.00600000
v 0.00888302 0.01332031 0.00600000
v 0.00664279 0.01616576 0.00600000
v -0.00091627 -0.00577649 0.00600000
v 0.00002398 -0.00567305 0.00600000
v 0.00172848 -0.00523303 0.00600000
v 0.00444733 -0.00362889 0.00600000
v 0.00497535 -0.00310550 0.00600000
v 0.00544471 -0.00254042 0.00600000
v 0.01148917 0.00005800 0.00600000
v -0.00710431 0.00085930 0.00600000
v -0.01087766 -0.00165884 0.00600000
v -0.00651608 -0.00502769 0.00600000
v -0.00780989 -0.00442710 0.00600000
v -0.00509876 -0.00546308 0.00600000
v -0.00357028 -0.00572554 0.00600000
v 0.00586310 -0.00193829 0.00600000
v -0.00192754 -0.00581200 0.00600000
v 0.00089631 -0.00549858 0.00600000
v 0.00249889 -0.00490572 0.00600000
v 0.00320911 -0.00451819 0.00600000
v 0.00385910 -0.00409979 0.00600000
v -0.00812794 0.00365225 0.00600000
v -0.00788863 0.00261937 0.00600000
v -0.01220235 0.00097200 0.00600000
v -0.00754896 0.00169610 0.00600000
v -0.01263774 0.00250666 0.00600000
v 0.00540148 -0.00919320 0.00600000
v 0.00587700 -0.00734203 0.00600000
v -0.01160949 -0.00041753 0.00600000
v -0.00897247 -0.00366749 0.00600000
v -0.01000535 -0.00275349 0.00600000
v 0.00906213 -0.01219613 0.00600000
v 0.00970284 -0.01062750 0.00600000
v 0.00621667 -0.00539823 0.00600000
v 0.01065237 -0.00726329 0.00600000
v 0.01022933 -0.00898786 0.00600000
v 0.00830868 -0.01369374 0.00600000
v 0.00476075 -0.01087916 0.00600000
v -0.00115557 -0.02050862 0.00600000
v 0.00070023 -0.02000839 0.00600000
v -0.00141804 -0.01657007 0.00600000
v 0.00236920 -0.01932906 0.00600000
v 0.00387144 -0.01849226 0.00600000
v 0.00026792 -0.01585060 0.00600000
v 0.00521003 -0.01749797 0.00600000
v 0.00170686 -0.01491035 0.00600000
v 0.00639113 -0.01636164 0.00600000
v 0.00293583 -0.01376013 0.00600000
v 0.00742401 -0.01509253 0.00600000
v 0.00395481 -0.01239993 0.00600000
v -0.00641572 -0.01712280 0.00600000
v -0.00621039 -0.02089306 0.00600000
v -0.00565303 -0.01714595 0.00600000
v -0.00549554 -0.02091004 0.00600000
v -0.00322134 -0.02080969 0.00600000
v -0.00339117 -0.01700082 0.00600000
v -0.00584448 -0.02090541 0.00600000
v -0.01004550 -0.01647898 0.00600000
v -0.01004550 -0.02043914 0.00600000
v -0.00939550 -0.01667042 0.00600000
v -0.00870228 -0.01682791 0.00600000
v -0.00973979 -0.02051325 0.00600000
v -0.00659482 -0.02087144 0.00600000
v -0.00700859 -0.02084520 0.00600000
v -0.00718614 -0.01705795 0.00600000
v -0.00741310 -0.02081895 0.00600000
v -0.00796737 -0.01694987 0.00600000
v -0.00902496 -0.02063522 0.00600000
v -0.00940013 -0.02057964 0.00600000
v -0.00822367 -0.02074021 0.00600000
v -0.00862816 -0.02068772 0.00600000
v -0.00780989 -0.02079270 0.00600000
v 0.01152313 0.00191380 0.00600000
v 0.01141043 0.00469286 0.00600000
v 0.00663507 0.00419263 0.00600000
v 0.00664279 0.00622753 0.00600000
v 0.00669991 0.00505105 0.00600000
v 0.01050415 0.00952072 0.00600000
v 0.00977233 0.01154325 0.00600000
v 0.00619042 0.00858046 0.00600000
v 0.00647296 0.00740399 0.00600000
v 0.01107076 0.00722953 0.00600000
v 0.01138419 -0.00179934 0.00600000
v 0.01120972 -0.00365514 0.00600000
v 0.00645135 -0.00338495 0.00600000
v 0.01097968 -0.00548469 0.00600000
f 170 243 255
f 170 255 169
f 2 1 8
f 9 8 1
f 13 7 6
f 6 14 13
f 15 16 17
f 18 19 20
f 36 37 39
f 45 46 47
f 33 47 46
f 247 262 245
f 261 245 262
f 262 259 261
f 260 259 263
f 263 259 258
f 32 33 34
f 34 35 32
f 36 32 35
f 37 36 35
f 38 39 37
f 40 41 38
f 42 43 44
f 39 38 41
f 58 68 57
f 59 69 58
f 56 57 66
f 54 55 63
f 65 63 55
f 55 56 65
f 66 65 56
f 204 142 205
f 245 246 247
f 123 228 101
f 248 249 250
f 246 248 250
f 250 247 246
f 101 228 229
f 101 229 154
f 249 251 252
f 15 290 292
f 238 239 233
f 240 234 241
f 239 242 233
f 243 238 244
f 233 244 238
f 121 219 236
f 121 236 166
f 31 3 4
f 30 29 28
f 4 28 29
f 24 17 291
f 24 291 204
f 172 19 241
f 19 16 292
f 19 292 241
f 18 17 16
f 2 4 3
f 29 31 4
f 11 30 28
f 5 6 7
f 7 8 5
f 9 5 8
f 10 11 12
f 152 236 153
f 235 217 216
f 216 231 235
f 230 229 232
f 113 232 228
f 235 231 230
f 163 162 217
f 163 217 235
f 103 157 230
f 103 230 232
f 157 163 235
f 157 235 230
f 236 152 237
f 219 153 236
f 217 237 152
f 155 153 219
f 268 275 267
f 275 274 267
f 271 273 276
f 274 277 273
f 277 276 273
f 276 278 271
f 102 103 232
f 102 232 113
f 44 51 52
f 50 40 53
f 50 53 51
f 40 38 54
f 269 257 270
f 270 271 272
f 271 270 257
f 273 267 274
f 67 60 64
f 60 45 64
f 32 66 68
f 32 68 33
f 33 68 69
f 33 69 47
f 47 69 70
f 47 70 64
f 45 61 59
f 62 63 39
f 62 39 41
f 47 64 45
f 39 63 65
f 39 65 36
f 36 65 66
f 36 66 32
f 37 56 55
f 35 34 57
f 35 57 56
f 34 46 58
f 34 58 57
f 46 45 59
f 46 59 58
f 45 60 61
f 162 165 237
f 162 237 217
f 166 236 237
f 166 237 165
f 40 54 53
f 38 37 55
f 38 55 54
f 37 35 56
f 60 67 85
f 80 86 78
f 82 79 87
f 88 89 87
f 90 91 92
f 43 84 93
f 43 93 74
f 74 93 94
f 14 77 81
f 82 80 79
f 72 14 81
f 72 81 83
f 72 83 84
f 72 84 43
f 67 78 85
f 86 85 78
f 41 40 75
f 44 74 50
f 46 34 33
f 50 75 40
f 6 5 76
f 6 76 77
f 78 79 80
f 14 6 77
f 42 71 72
f 71 13 14
f 64 70 73
f 64 73 67
f 43 42 72
f 14 72 71
f 74 44 43
f 75 50 74
f 82 109 100
f 89 95 110
f 89 110 109
f 95 91 111
f 95 111 110
f 108 112 106
f 91 102 113
f 91 113 111
f 101 102 97
f 102 101 103
f 78 67 104
f 73 104 67
f 78 104 105
f 78 105 79
f 106 107 108
f 82 89 109
f 85 98 96
f 86 80 99
f 86 99 98
f 80 82 100
f 80 100 99
f 95 92 91
f 89 88 95
f 82 87 89
f 74 94 75
f 75 94 62
f 75 62 41
f 92 95 88
f 96 61 85
f 60 85 61
f 97 91 90
f 85 86 98
f 134 135 136
f 137 134 136
f 137 136 138
f 108 137 138
f 108 138 139
f 112 108 139
f 112 139 140
f 114 112 140
f 124 125 120
f 97 123 101
f 126 127 124
f 128 129 126
f 130 131 132
f 132 133 128
f 125 124 127
f 134 130 135
f 117 112 27
f 88 116 118
f 88 118 92
f 92 118 119
f 92 119 90
f 120 121 122
f 90 119 123
f 90 123 97
f 26 27 114
f 114 27 112
f 105 115 87
f 105 87 79
f 87 115 116
f 87 116 88
f 10 12 26
f 28 12 11
f 154 103 101
f 120 122 153
f 120 153 155
f 156 157 154
f 124 120 155
f 124 155 158
f 126 124 158
f 126 158 159
f 133 132 150
f 129 128 133
f 127 126 129
f 137 108 147
f 107 147 108
f 117 106 112
f 151 152 153
f 151 153 122
f 144 145 134
f 146 144 137
f 147 146 137
f 145 148 134
f 130 134 148
f 149 130 148
f 131 130 149
f 150 132 131
f 114 140 141
f 26 114 141
f 26 141 142
f 10 26 142
f 10 142 143
f 143 48 10
f 11 10 48
f 134 137 144
f 31 29 281
f 31 281 283
f 3 31 283
f 3 283 282
f 1 3 282
f 1 282 287
f 9 1 287
f 9 287 286
f 121 120 125
f 167 168 169
f 169 168 170
f 22 170 171
f 171 23 22
f 19 172 20
f 173 174 175
f 29 49 281
f 156 164 163
f 165 162 151
f 157 156 163
f 103 154 157
f 91 97 102
f 166 165 151
f 151 122 166
f 121 166 122
f 128 126 159
f 128 159 160
f 132 128 160
f 132 160 161
f 161 135 132
f 130 132 135
f 162 163 164
f 164 151 162
f 280 279 4
f 178 175 179
f 179 175 174
f 172 21 23
f 174 173 177
f 177 176 167
f 20 172 23
f 180 181 182
f 13 207 285
f 13 285 7
f 71 206 207
f 71 207 13
f 42 208 206
f 42 206 71
f 42 52 208
f 28 4 279
f 171 170 168
f 42 44 52
f 2 288 280
f 2 280 4
f 8 284 288
f 8 288 2
f 7 285 284
f 7 284 8
f 286 76 9
f 5 9 76
f 18 20 234
f 18 234 240
f 17 18 240
f 17 240 291
f 176 177 173
f 168 167 176
f 148 211 224
f 148 224 149
f 145 225 211
f 145 211 148
f 144 226 225
f 144 225 145
f 146 227 226
f 146 226 144
f 199 197 200
f 201 199 198
f 202 191 203
f 192 191 202
f 203 191 201
f 199 201 191
f 182 190 197
f 23 244 233
f 178 186 185
f 178 185 175
f 191 192 193
f 194 193 192
f 195 196 197
f 190 195 197
f 198 199 200
f 200 197 196
f 183 184 180
f 185 186 183
f 184 183 186
f 187 180 184
f 188 180 187
f 181 180 188
f 189 182 181
f 190 182 189
f 177 249 174
f 253 251 177
f 253 177 167
f 180 182 257
f 180 257 259
f 183 180 259
f 183 259 262
f 185 183 262
f 172 239 21
f 241 242 172
f 173 175 250
f 173 250 252
f 176 173 252
f 176 252 254
f 258 257 269
f 177 251 249
f 22 238 243
f 22 243 170
f 264 265 266
f 267 266 265
f 21 239 238
f 21 238 22
f 265 268 267
f 172 242 239
f 147 212 227
f 147 227 146
f 107 213 212
f 107 212 147
f 106 214 213
f 106 213 107
f 106 117 214
f 222 214 117
f 197 273 271
f 194 192 265
f 271 257 197
f 182 197 257
f 185 262 247
f 247 250 185
f 175 185 250
f 189 269 190
f 272 271 278
f 168 176 254
f 168 254 256
f 171 168 256
f 171 256 244
f 178 246 245
f 23 171 244
f 197 199 273
f 133 223 221
f 133 221 129
f 150 209 223
f 150 223 133
f 131 210 209
f 131 209 150
f 149 224 210
f 149 210 131
f 219 121 218
f 125 218 121
f 20 23 233
f 127 220 218
f 127 218 125
f 233 234 20
f 129 221 220
f 129 220 127
f 208 83 206
f 76 286 284
f 286 287 284
f 288 284 287
f 287 282 288
f 280 288 282
f 215 279 48
f 234 233 242
f 174 249 248
f 279 280 281
f 282 283 280
f 283 281 280
f 284 285 76
f 77 76 285
f 207 77 285
f 206 81 207
f 186 245 261
f 186 261 184
f 178 245 186
f 193 194 264
f 193 264 266
f 179 248 246
f 179 246 178
f 248 179 174
f 181 258 269
f 181 269 189
f 188 263 258
f 188 258 181
f 187 260 263
f 187 263 188
f 184 261 260
f 184 260 187
f 195 278 196
f 191 193 266
f 191 266 267
f 265 264 194
f 199 191 267
f 199 267 273
f 190 270 272
f 190 272 195
f 201 275 203
f 198 277 274
f 198 274 201
f 200 276 277
f 200 277 198
f 196 278 276
f 196 276 200
f 195 272 278
f 49 48 279
f 48 143 215
f 143 142 215
f 202 268 265
f 202 265 192
f 203 275 268
f 203 268 202
f 201 274 275
f 242 241 234
f 289 204 290
f 291 290 204
f 292 290 291
f 291 240 292
f 292 240 241
f 281 49 279
f 289 215 204
f 210 224 135
f 224 211 135
f 152 216 217
f 158 155 218
f 123 119 111
f 209 210 161
f 136 135 211
f 139 138 212
f 214 222 140
f 140 139 214
f 212 213 139
f 161 160 223
f 160 159 221
f 221 223 160
f 223 209 161
f 135 161 210
f 229 230 231
f 228 232 229
f 219 218 155
f 218 220 158
f 159 158 220
f 220 221 159
f 222 205 140
f 141 140 205
f 269 270 190
f 211 225 136
f 225 226 136
f 138 136 226
f 226 227 138
f 212 138 227
f 111 113 123
f 123 113 228
f 66 57 68
f 68 58 69
f 70 69 59
f 59 61 70
f 73 70 61
f 81 206 83
f 77 207 81
f 52 84 208
f 119 118 111
f 93 84 52
f 83 208 84
f 63 62 54
f 53 54 62
f 62 94 53
f 51 53 94
f 94 93 51
f 104 73 96
f 99 100 105
f 115 105 100
f 100 109 115
f 116 115 109
f 109 110 116
f 118 116 110
f 110 111 118
f 213 214 139
f 142 141 205
f 204 215 142
f 52 51 93
f 61 96 73
f 98 99 104
f 105 104 99
f 96 98 104
f 12 28 279
f 12 279 215
f 222 117 205
f 27 205 117
f 30 11 48
f 30 48 49
f 29 30 49
f 44 50 51
f 167 255 253
f 15 292 16
f 25 289 290
f 25 290 15
f 27 24 204
f 27 204 205
f 25 12 215
f 25 215 289
f 244 256 243
f 253 255 256
f 256 254 253
f 164 216 152
f 164 152 151
f 257 258 259
f 260 261 259
f 167 169 255
f 252 250 249
f 251 253 254
f 254 252 251
f 154 229 231
f 154 231 156
f 156 231 216
f 156 216 164
f 255 243 256
f 19 18 16
f 21 22 23
f 17 24 15
f 25 15 24
f 25 24 12
f 24 26 12
f 27 26 24
f 1 2 3

