# https://github.com/mikedh/trimesh
v 0.00739059 -0.00569147 -0.00600000
v -0.00742797 -0.00569147 -0.00600000
v 0.00578414 -0.00119309 -0.00600000
v -0.00100216 0.01302305 0.00600000
v -0.00081875 0.01359069 0.00600000
v -0.00232718 0.02197870 0.00600000
v 0.00104543 0.01253764 -0.00600000
v 0.00120670 0.01202851 -0.00600000
v 0.00120670 0.01202851 0.00600000
v 0.00104543 0.01253764 0.00600000
v 0.00739059 -0.00569147 0.00600000
v 0.00578414 -0.00119309 0.00600000
v -0.00742797 -0.00569147 0.00600000
v 0.01695024 -0.01802130 0.00600000
v 0.00229138 0.02197870 0.00600000
v 0.00009990 0.01595135 -0.00600000
v 0.00229138 0.02197870 -0.00600000
v 0.00024694 0.01537581 -0.00600000
v 0.00056318 0.01420576 -0.00600000
v 0.00040348 0.01479078 -0.00600000
v -0.00232718 0.02197870 -0.00600000
v -0.00172950 0.01067662 -0.00600000
v -0.00184650 0.01033193 -0.00600000
v 0.00009990 0.01595135 0.00600000
v -0.00003925 0.01651740 0.00600000
v -0.00582152 -0.00119309 0.00600000
v -0.01694651 -0.01802130 0.00600000
v -0.00003925 0.01651740 -0.00600000
v -0.00017681 0.01594661 -0.00600000
v -0.00032386 0.01535683 -0.00600000
v -0.00100216 0.01302305 -0.00600000
v -0.00115871 0.01247914 -0.00600000
v 0.00136639 0.01153677 -0.00600000
v 0.00088573 0.01306416 -0.00600000
v 0.01695024 -0.01802130 -0.00600000
v 0.00072445 0.01363022 -0.00600000
v -0.01694651 -0.01802130 -0.00600000
v -0.00582152 -0.00119309 -0.00600000
v -0.00144490 0.01149724 -0.00600000
v -0.00159509 0.01106401 -0.00600000
v 0.00165258 0.01069876 -0.00600000
v 0.00151819 0.01110037 -0.00600000
v 0.00176802 0.01033193 -0.00600000
v -0.00048039 0.01474967 -0.00600000
v 0.01176880 -0.01802130 -0.00600000
v -0.00064483 0.01416623 -0.00600000
v -0.01184571 -0.01802130 -0.00600000
v -0.00130575 0.01197001 -0.00600000
v 0.00165258 0.01069876 0.00600000
v 0.00151819 0.01110037 0.00600000
v -0.00081875 0.01359069 -0.00600000
v 0.00072445 0.01363022 0.00600000
v 0.00056318 0.01420576 0.00600000
v 0.00136639 0.01153677 0.00600000
v 0.00088573 0.01306416 0.00600000
v -0.00184650 0.01033193 0.00600000
v -0.00172950 0.01067662 0.00600000
v -0.00159509 0.01106401 0.00600000
v -0.00144490 0.01149724 0.00600000
v -0.00130575 0.01197001 0.00600000
v 0.00176802 0.01033193 0.00600000
v -0.00048039 0.01474967 0.00600000
v -0.00064483 0.01416623 0.00600000
v 0.01176880 -0.01802130 0.00600000
v 0.00040348 0.01479078 0.00600000
v -0.00032386 0.01535683 0.00600000
v 0.00024694 0.01537581 0.00600000
v -0.01184571 -0.01802130 0.00600000
v -0.00017681 0.01594661 0.00600000
v -0.00115871 0.01247914 0.00600000
f 1 2 3
f 4 5 6
f 7 8 9
f 7 9 10
f 11 12 13
f 14 15 12
f 16 17 18
f 19 20 17
f 21 22 23
f 24 25 16
f 18 17 20
f 13 26 27
f 15 17 6
f 21 17 28
f 16 28 17
f 26 13 12
f 21 28 29
f 21 29 30
f 21 31 32
f 15 14 17
f 8 7 17
f 33 8 17
f 7 34 17
f 35 17 14
f 36 17 34
f 2 37 38
f 19 17 36
f 39 40 21
f 21 23 38
f 41 42 17
f 42 33 17
f 41 17 43
f 3 43 17
f 38 3 2
f 30 44 21
f 21 38 37
f 1 35 45
f 44 46 21
f 3 35 1
f 47 37 2
f 21 32 48
f 21 48 39
f 42 49 50
f 46 51 21
f 31 21 51
f 22 21 40
f 35 3 17
f 19 52 53
f 8 33 54
f 8 54 9
f 34 7 10
f 34 10 55
f 26 56 6
f 56 57 6
f 57 58 6
f 6 59 60
f 52 55 15
f 61 12 15
f 44 62 63
f 46 5 51
f 64 14 11
f 41 61 49
f 18 20 65
f 66 6 62
f 22 57 56
f 15 6 25
f 24 67 15
f 21 6 17
f 53 52 15
f 42 41 49
f 5 4 31
f 33 50 54
f 33 42 50
f 68 13 27
f 25 69 28
f 29 28 69
f 26 23 56
f 47 68 27
f 47 27 37
f 14 45 35
f 14 64 45
f 37 27 6
f 21 37 6
f 1 13 2
f 26 38 23
f 43 12 61
f 43 3 12
f 3 26 12
f 22 56 23
f 1 11 13
f 1 64 11
f 1 45 64
f 16 67 24
f 16 18 67
f 59 6 58
f 25 6 69
f 41 43 61
f 6 27 26
f 50 49 15
f 6 70 4
f 6 60 70
f 39 58 40
f 25 24 15
f 39 59 58
f 40 57 22
f 40 58 57
f 36 55 52
f 36 34 55
f 49 61 15
f 63 62 6
f 54 50 15
f 9 54 15
f 10 9 15
f 55 10 15
f 69 6 66
f 18 65 67
f 65 53 15
f 14 12 11
f 67 65 15
f 62 44 66
f 69 66 30
f 3 38 26
f 31 51 5
f 48 59 39
f 48 60 59
f 31 70 32
f 31 4 70
f 30 29 69
f 46 63 5
f 30 66 44
f 28 16 25
f 2 68 47
f 2 13 68
f 44 63 46
f 32 60 48
f 32 70 60
f 19 36 52
f 5 63 6
f 20 53 65
f 20 19 53

