# https://github.com/mikedh/trimesh
v 0.00720686 0.01306535 -0.00600000
v 0.00720686 0.01306535 0.00600000
v 0.00604165 0.01421152 0.00600000
v 0.01087555 -0.00102045 -0.00600000
v 0.00993576 -0.00045689 0.00600000
v 0.01087555 -0.00102045 0.00600000
v 0.01047710 0.00338325 -0.00600000
v 0.01120258 0.00409127 -0.00600000
v 0.01047710 0.00338325 0.00600000
v 0.01120258 0.00409127 0.00600000
v 0.00476530 0.00379917 -0.00600000
v 0.00378424 0.00348643 -0.00600000
v 0.00476530 0.00379917 0.00600000
v 0.00809427 0.00850449 -0.00600000
v 0.00795934 0.00756311 -0.00600000
v 0.00809427 0.00850449 0.00600000
v 0.00211737 0.01550215 -0.00600000
v -0.00065121 0.01566407 0.00600000
v -0.00065121 0.01566407 -0.00600000
v 0.00604165 0.01421152 -0.00600000
v 0.00434938 0.01501797 -0.00600000
v 0.00332704 0.01976774 0.00600000
v 0.00519551 0.01945342 0.00600000
v 0.00332704 0.01976774 -0.00600000
v 0.00993576 -0.00045689 -0.00600000
v 0.00738149 0.00595022 0.00600000
v 0.00773550 0.00671222 0.00600000
v 0.00964366 0.00276413 0.00600000
v 0.00691159 0.00527871 0.00600000
v 0.00658933 0.00144810 0.00600000
v 0.00658933 0.00144810 -0.00600000
v 0.00769105 0.00178306 0.00600000
v 0.00769105 0.00178306 -0.00600000
v 0.00870387 0.00223549 -0.00600000
v 0.00870387 0.00223549 0.00600000
v 0.01172804 -0.00167450 -0.00600000
v 0.01172804 -0.00167450 0.00600000
v 0.01397592 -0.01179634 -0.00600000
v 0.01397592 -0.01179634 0.00600000
v 0.01346158 -0.01328858 0.00600000
v 0.00378424 0.00348643 0.00600000
v 0.00267299 0.00326260 0.00600000
v 0.00267299 0.00326260 -0.00600000
v 0.00138236 0.00312766 0.00600000
v 0.00138236 0.00312766 -0.00600000
v -0.00008765 0.00308321 0.00600000
v -0.00008765 0.00308321 -0.00600000
v -0.00097348 0.02001856 -0.00600000
v -0.01186048 0.02001856 -0.00600000
v -0.00097348 0.02001856 0.00600000
v 0.00127124 0.01995506 -0.00600000
v 0.00127124 0.01995506 0.00600000
v 0.01346158 -0.01328858 -0.00600000
v 0.01278530 -0.01464112 0.00600000
v 0.01278530 -0.01464112 -0.00600000
v 0.01193759 -0.01585079 0.00600000
v 0.01193759 -0.01585079 -0.00600000
v 0.01249797 -0.00246348 0.00600000
v 0.00854195 -0.00538446 0.00600000
v 0.01314408 -0.00337787 0.00600000
v 0.00632422 0.00469610 -0.00600000
v 0.00561144 0.00420239 0.00600000
v 0.00632422 0.00469610 0.00600000
v 0.00964366 0.00276413 -0.00600000
v 0.00211737 0.01550215 0.00600000
v 0.00434938 0.01501797 0.00600000
v 0.00834986 0.01846758 0.00600000
v 0.00963096 0.01775956 0.00600000
v 0.00561144 0.00420239 -0.00600000
v 0.00795934 0.00756311 0.00600000
v 0.01229636 0.00575813 0.00600000
v 0.01269482 0.00671222 0.00600000
v 0.01300914 0.00770598 0.00600000
v 0.00687032 0.01903273 0.00600000
v 0.01325997 0.00985703 0.00600000
v 0.01315678 0.01163979 0.00600000
v 0.00813872 0.00953477 0.00600000
v 0.00539712 0.00122744 0.00600000
v 0.00738149 0.00595022 -0.00600000
v 0.00691159 0.00527871 -0.00600000
v 0.00519551 0.01945342 -0.00600000
v 0.00890548 0.00001777 -0.00600000
v 0.00777995 0.00039083 -0.00600000
v 0.00777995 0.00039083 0.00600000
v 0.01430771 -0.00692592 -0.00600000
v 0.01430771 -0.00692592 0.00600000
v 0.01438867 -0.00840863 0.00600000
v 0.01438867 -0.00840863 -0.00600000
v 0.00890548 0.00001777 0.00600000
v 0.00704970 -0.00320801 0.00600000
v 0.00630199 -0.00263810 0.00600000
v 0.00198244 -0.01560473 0.00600000
v 0.00333180 -0.01989572 0.00600000
v 0.00332704 -0.01541582 0.00600000
v 0.00551777 -0.01469986 -0.00600000
v 0.00450972 -0.01510308 -0.00600000
v 0.00450972 -0.01510308 0.00600000
v 0.00551777 -0.01469986 0.00600000
v 0.00539712 0.00094645 0.00600000
v 0.00539712 0.00094645 -0.00600000
v 0.01428549 -0.01016916 0.00600000
v 0.01428549 -0.01016916 -0.00600000
v 0.00539712 0.00122744 -0.00600000
v 0.00768153 -0.00386206 -0.00600000
v 0.00817841 -0.00458754 -0.00600000
v 0.00817841 -0.00458754 0.00600000
v 0.00768153 -0.00386206 0.00600000
v 0.00834986 0.01846758 -0.00600000
v 0.00661155 0.00069880 0.00600000
v 0.00540189 -0.00216821 0.00600000
v -0.01186048 0.02001856 0.00600000
v 0.00173161 -0.00133001 -0.00600000
v 0.00015523 -0.00127128 0.00600000
v 0.00015523 -0.00127128 -0.00600000
v 0.00173161 -0.00133001 0.00600000
v 0.00313019 -0.00150464 -0.00600000
v 0.00514631 -0.01964172 0.00600000
v 0.00313019 -0.00150464 0.00600000
v 0.01366319 -0.00441768 0.00600000
v 0.00630199 -0.00263810 -0.00600000
v 0.00540189 -0.00216821 -0.00600000
v -0.00678051 -0.00127128 -0.00600000
v 0.00434938 -0.00179674 -0.00600000
v 0.00434938 -0.00179674 0.00600000
v 0.00773550 0.00671222 -0.00600000
v 0.00854195 -0.01123119 0.00600000
v 0.01092159 -0.01691758 0.00600000
v 0.01092159 -0.01691758 -0.00600000
v 0.00704970 -0.00320801 -0.00600000
v 0.00661155 0.00069880 -0.00600000
v 0.00687032 0.01903273 -0.00600000
v 0.00198244 -0.01560473 -0.00600000
v 0.00332704 -0.01541582 -0.00600000
v 0.00333180 -0.01989572 -0.00600000
v 0.01366319 -0.00441768 -0.00600000
v 0.00854195 -0.00538446 -0.00600000
v 0.01314408 -0.00337787 -0.00600000
v -0.00678051 0.01566407 -0.00600000
v 0.00893564 -0.00927858 0.00600000
v -0.00678051 0.00308321 -0.00600000
v 0.00854195 -0.01123119 -0.00600000
v 0.00818793 -0.01210114 -0.00600000
v 0.01300914 0.00770598 -0.00600000
v 0.01319647 0.00875532 -0.00600000
v 0.01179948 0.00488343 -0.00600000
v 0.01269482 0.00671222 -0.00600000
v 0.00713067 -0.01356956 -0.00600000
v 0.00971193 -0.01783515 -0.00600000
v 0.00639089 -0.01418868 -0.00600000
v 0.00514631 -0.01964172 -0.00600000
v -0.01186048 -0.01998144 -0.00600000
v -0.00678051 -0.01566664 -0.00600000
v 0.00136490 -0.01998144 -0.00600000
v 0.00047749 -0.01566664 -0.00600000
v 0.00893564 -0.00927858 -0.00600000
v 0.00878801 -0.01028664 -0.00600000
v 0.01249797 -0.00246348 -0.00600000
v 0.00680840 -0.01921468 -0.00600000
v 0.00898486 -0.00820702 0.00600000
v 0.01406641 -0.00559560 0.00600000
v 0.00893564 -0.00721325 0.00600000
v 0.01319647 0.00875532 0.00600000
v 0.01073745 0.01687374 0.00600000
v 0.01163755 0.01582441 0.00600000
v 0.00963096 0.01775956 -0.00600000
v 0.01073745 0.01687374 -0.00600000
v 0.00771804 -0.01288059 -0.00600000
v 0.00834033 -0.01860191 -0.00600000
v 0.00878801 -0.00627187 -0.00600000
v 0.00893564 -0.00721325 -0.00600000
v 0.00898486 -0.00820702 -0.00600000
v 0.01406641 -0.00559560 -0.00600000
v 0.01233287 0.01461474 -0.00600000
v 0.00790536 0.01150644 -0.00600000
v 0.01315678 0.01163979 -0.00600000
v 0.00813872 0.00953477 -0.00600000
v 0.01163755 0.01582441 -0.00600000
v 0.00790536 0.01150644 0.00600000
v 0.01179948 0.00488343 0.00600000
v 0.01233287 0.01461474 0.00600000
v 0.01284722 0.01322569 0.00600000
v 0.00878801 -0.01028664 0.00600000
v 0.01229636 0.00575813 -0.00600000
v 0.01325997 0.00985703 -0.00600000
v 0.01284722 0.01322569 -0.00600000
v 0.00771804 -0.01288059 0.00600000
v 0.00136490 -0.01998144 0.00600000
v 0.00639089 -0.01418868 0.00600000
v 0.00834033 -0.01860191 0.00600000
v 0.00971193 -0.01783515 0.00600000
v -0.01186048 -0.01998144 0.00600000
v -0.00678051 -0.01566664 0.00600000
v 0.00047749 -0.01566664 0.00600000
v 0.00713067 -0.01356956 0.00600000
v 0.00818793 -0.01210114 0.00600000
v 0.00680840 -0.01921468 0.00600000
v -0.00678051 -0.00127128 0.00600000
v 0.00878801 -0.00627187 0.00600000
v -0.00678051 0.01566407 0.00600000
v -0.00678051 0.00308321 0.00600000
f 1 2 3
f 4 5 6
f 7 8 9
f 10 9 8
f 11 12 13
f 14 15 16
f 17 18 19
f 20 3 21
f 22 23 24
f 4 25 5
f 9 10 26
f 27 26 10
f 28 9 26
f 26 29 28
f 30 31 32
f 33 32 31
f 34 35 32
f 34 32 33
f 36 4 37
f 6 37 4
f 38 39 40
f 12 41 13
f 12 42 41
f 12 43 42
f 43 44 42
f 43 45 44
f 45 46 44
f 45 47 46
f 48 49 50
f 51 50 52
f 51 48 50
f 53 40 54
f 55 56 57
f 58 59 60
f 61 62 63
f 64 28 35
f 64 35 34
f 7 9 28
f 22 52 65
f 65 66 22
f 67 3 68
f 50 18 52
f 61 69 62
f 70 27 71
f 72 70 71
f 73 16 72
f 3 2 68
f 66 3 74
f 67 74 3
f 75 76 77
f 55 54 56
f 15 27 70
f 69 13 62
f 69 11 13
f 21 66 65
f 3 66 21
f 63 62 32
f 62 13 30
f 30 32 62
f 31 30 78
f 79 80 29
f 7 28 64
f 17 65 18
f 21 65 17
f 24 51 52
f 81 24 23
f 82 83 84
f 85 86 87
f 85 87 88
f 5 89 90
f 91 90 89
f 92 93 94
f 95 96 97
f 95 97 98
f 99 100 78
f 88 101 102
f 82 84 89
f 25 89 5
f 78 103 31
f 104 105 106
f 104 106 107
f 25 82 89
f 53 54 55
f 108 74 67
f 109 99 110
f 110 91 109
f 49 111 50
f 112 113 114
f 112 115 113
f 6 5 107
f 116 115 112
f 97 94 117
f 118 99 78
f 42 44 115
f 115 118 42
f 13 41 78
f 116 118 115
f 60 59 119
f 37 6 106
f 70 16 15
f 41 42 118
f 120 110 121
f 113 122 114
f 123 121 124
f 110 124 121
f 123 124 118
f 125 26 27
f 15 125 27
f 118 78 41
f 80 61 63
f 80 63 29
f 24 52 22
f 79 29 26
f 125 79 26
f 38 40 53
f 88 87 101
f 40 39 126
f 44 46 113
f 102 39 38
f 102 101 39
f 57 127 128
f 57 56 127
f 120 91 110
f 129 91 120
f 129 104 107
f 123 118 116
f 130 99 109
f 130 100 99
f 83 109 84
f 83 130 109
f 103 78 100
f 131 81 23
f 132 133 134
f 135 136 137
f 49 48 138
f 121 130 120
f 82 25 129
f 123 100 121
f 100 130 121
f 130 83 120
f 87 139 101
f 31 69 33
f 103 100 112
f 116 112 100
f 114 122 47
f 140 47 122
f 140 122 49
f 129 25 104
f 138 140 49
f 141 53 142
f 104 4 105
f 114 45 112
f 123 116 100
f 43 112 45
f 12 11 103
f 43 12 112
f 47 45 114
f 48 51 19
f 143 14 144
f 8 125 145
f 14 146 15
f 80 79 64
f 33 61 34
f 120 82 129
f 64 79 7
f 147 148 149
f 133 96 150
f 151 152 153
f 152 154 153
f 155 102 156
f 156 38 141
f 137 60 119
f 137 119 135
f 157 58 60
f 158 150 96
f 157 60 137
f 86 159 87
f 160 161 86
f 16 162 77
f 163 2 164
f 162 16 73
f 96 95 158
f 165 166 1
f 142 55 167
f 152 151 122
f 168 149 148
f 167 128 147
f 168 158 95
f 150 134 133
f 149 168 95
f 61 33 69
f 57 167 55
f 82 120 83
f 136 135 169
f 170 85 171
f 128 167 57
f 169 172 170
f 171 88 155
f 1 173 174
f 30 13 78
f 35 28 29
f 29 63 35
f 38 156 102
f 53 141 38
f 55 142 53
f 172 169 135
f 174 175 176
f 32 35 63
f 85 170 172
f 88 171 85
f 131 108 20
f 21 131 20
f 81 131 21
f 108 165 20
f 1 20 165
f 166 177 1
f 74 23 66
f 1 178 2
f 1 174 178
f 179 71 27
f 180 164 2
f 163 68 2
f 23 22 66
f 181 180 178
f 2 178 180
f 70 72 16
f 75 77 162
f 1 3 20
f 18 65 52
f 39 101 182
f 182 126 39
f 105 157 136
f 183 15 146
f 157 105 36
f 34 80 64
f 19 138 48
f 21 17 24
f 51 24 17
f 81 21 24
f 17 19 51
f 139 182 101
f 69 31 11
f 103 112 12
f 80 34 61
f 8 7 79
f 125 8 79
f 31 103 11
f 15 183 125
f 36 105 4
f 181 178 76
f 178 77 76
f 107 106 6
f 37 106 58
f 10 179 27
f 176 144 14
f 184 176 175
f 175 174 185
f 137 136 157
f 145 125 183
f 146 14 143
f 144 176 184
f 185 174 173
f 102 155 88
f 173 1 177
f 127 56 186
f 187 93 92
f 188 98 189
f 189 190 188
f 187 191 151
f 192 187 193
f 153 187 151
f 141 142 126
f 190 127 194
f 117 94 93
f 150 93 134
f 150 117 93
f 142 186 195
f 142 167 186
f 117 196 97
f 196 189 98
f 194 188 190
f 147 188 194
f 193 187 92
f 122 197 152
f 192 152 197
f 167 194 186
f 167 147 194
f 56 54 186
f 126 195 40
f 133 92 94
f 133 132 92
f 134 187 153
f 132 193 92
f 132 154 193
f 161 160 198
f 147 149 188
f 98 97 196
f 127 190 128
f 148 128 190
f 144 75 162
f 184 76 75
f 144 184 75
f 144 162 73
f 173 180 181
f 175 181 76
f 175 185 181
f 36 58 157
f 184 175 76
f 145 179 10
f 73 143 144
f 143 72 146
f 143 73 72
f 146 71 183
f 146 72 71
f 36 37 58
f 148 147 128
f 25 4 104
f 134 153 132
f 134 93 187
f 195 126 142
f 186 194 127
f 49 151 111
f 191 111 151
f 192 193 152
f 154 152 193
f 154 132 153
f 129 90 91
f 49 122 151
f 177 180 173
f 177 164 180
f 173 181 185
f 183 179 145
f 183 71 179
f 145 10 8
f 166 165 68
f 115 44 113
f 50 199 18
f 155 156 182
f 174 77 178
f 119 160 135
f 155 182 139
f 171 155 139
f 172 135 160
f 172 86 85
f 165 108 67
f 166 68 163
f 176 14 16
f 177 163 164
f 177 166 163
f 148 190 168
f 189 168 190
f 139 87 159
f 159 86 161
f 96 94 97
f 96 133 94
f 59 106 136
f 136 198 59
f 118 124 99
f 165 67 68
f 174 176 77
f 172 160 86
f 108 131 74
f 131 23 74
f 149 95 98
f 149 98 188
f 200 199 111
f 138 19 199
f 124 110 99
f 195 186 54
f 89 84 91
f 90 107 5
f 199 200 140
f 199 140 138
f 156 126 182
f 50 111 199
f 200 46 140
f 47 140 46
f 113 197 122
f 176 16 77
f 54 40 195
f 84 109 91
f 170 159 161
f 113 46 197
f 200 197 46
f 18 199 19
f 129 107 90
f 200 111 197
f 111 191 197
f 156 141 126
f 105 136 106
f 119 198 160
f 192 197 191
f 158 196 117
f 158 117 150
f 168 189 196
f 191 187 192
f 136 169 198
f 169 161 198
f 169 170 161
f 198 119 59
f 168 196 158
f 171 139 159
f 170 171 159
f 59 58 106

