# https://github.com/mikedh/trimesh
v 0.00998054 0.01968963 -0.00600000
v 0.00816334 0.01988571 -0.00600000
v 0.00816334 0.01988571 0.00600000
v 0.00628593 0.01995055 -0.00600000
v 0.00351921 0.01978535 0.00600000
v 0.00628593 0.01995055 0.00600000
v 0.01648200 0.01763775 -0.00600000
v 0.01501373 0.01833406 0.00600000
v 0.01648200 0.01763775 0.00600000
v 0.01501373 0.01833406 -0.00600000
v 0.01440388 0.01347996 0.00600000
v 0.00937069 0.01529716 -0.00600000
v 0.00788080 0.01549324 0.00600000
v 0.00788080 0.01549324 -0.00600000
v 0.00937069 0.01529716 0.00600000
v 0.00628593 -0.01569558 -0.00600000
v 0.00428191 -0.01558288 -0.00600000
v 0.00428191 -0.01558288 0.00600000
v 0.00245236 -0.01524321 0.00600000
v 0.01499212 -0.01420570 -0.00600000
v 0.01499212 -0.01420570 0.00600000
v 0.01499212 -0.01848082 -0.00600000
v 0.00998054 0.01968963 0.00600000
v 0.01343275 0.01890995 0.00600000
v 0.01173752 0.01936232 -0.00600000
v 0.01173752 0.01936232 0.00600000
v -0.00591417 -0.00468431 0.00600000
v -0.00547878 -0.00671612 0.00600000
v -0.00591417 -0.00468431 -0.00600000
v 0.01343275 0.01890995 -0.00600000
v 0.00931819 -0.01550413 -0.00600000
v 0.00782830 -0.01564772 -0.00600000
v 0.00782830 -0.01564772 0.00600000
v 0.00628593 -0.01569558 0.00600000
v 0.00647737 -0.02003555 0.00600000
v 0.00743152 -0.01999696 0.00600000
v 0.00546301 -0.02004945 0.00600000
v 0.00271328 0.01508873 -0.00600000
v 0.00443785 0.01544075 -0.00600000
v 0.00271328 0.01508873 0.00600000
v 0.00914836 -0.01986572 -0.00600000
v 0.00832545 -0.01993057 0.00600000
v 0.00832545 -0.01993057 -0.00600000
v 0.00914836 -0.01986572 0.00600000
v 0.00743152 -0.01999696 -0.00600000
v 0.01291399 -0.01918640 -0.00600000
v 0.01219916 -0.01937784 0.00600000
v 0.01219916 -0.01937784 -0.00600000
v 0.01291399 -0.01918640 0.00600000
v 0.00647737 -0.02003555 -0.00600000
v -0.00531667 0.01600274 -0.00600000
v -0.00693007 0.01438316 0.00600000
v -0.00531667 0.01600274 0.00600000
v 0.00110915 0.01450050 0.00600000
v 0.00443785 0.01544075 0.00600000
v 0.01324903 0.01402960 0.00600000
v 0.00994657 -0.01977463 -0.00600000
v 0.01440388 0.01347996 -0.00600000
v 0.01075713 0.01497139 -0.00600000
v 0.01203396 0.01452674 -0.00600000
v 0.01075713 0.01497139 0.00600000
v 0.01203396 0.01452674 0.00600000
v 0.01324903 0.01402960 -0.00600000
v -0.00210685 -0.01863676 0.00600000
v 0.00014728 -0.01942107 0.00600000
v 0.00079573 -0.01467659 0.00600000
v -0.00285102 0.01140184 0.00600000
v -0.00167919 0.01263543 0.00600000
v -0.01137040 -0.00292424 0.00600000
v -0.00617509 -0.00246260 0.00600000
v -0.01147848 -0.00000931 0.00600000
v -0.00626309 -0.00004945 0.00600000
v -0.01034215 0.00806851 0.00600000
v -0.01097361 0.00553338 0.00600000
v -0.00536144 0.00646128 0.00600000
v -0.00970142 -0.01056666 0.00600000
v -0.00486893 -0.00857191 0.00600000
v -0.01049808 -0.00820600 0.00600000
v -0.00866853 -0.01268493 0.00600000
v -0.00740097 -0.01455925 0.00600000
v -0.00408462 -0.01021928 0.00600000
v -0.00312584 -0.01165667 0.00600000
v 0.00267005 -0.01989197 0.00600000
v -0.00587094 -0.01617883 0.00600000
v -0.00410623 -0.01753903 0.00600000
v -0.00068490 -0.01387066 0.00600000
v 0.00628593 0.01555963 -0.00600000
v -0.01104309 -0.00565698 0.00600000
v -0.00943895 0.01039057 0.00600000
v -0.00468057 0.00830010 0.00600000
v 0.00628593 0.01555963 0.00600000
v -0.00346087 0.01736293 0.00600000
v 0.00994657 -0.01977463 0.00600000
v -0.00830262 0.01249648 0.00600000
v -0.00384531 0.00994746 0.00600000
v -0.00199260 -0.01286403 0.00600000
v -0.01097361 0.00553338 -0.00600000
v -0.01135187 0.00284078 -0.00600000
v -0.00586168 0.00444800 -0.00600000
v -0.00536144 0.00646128 -0.00600000
v -0.01034215 0.00806851 -0.00600000
v -0.00468057 0.00830010 -0.00600000
v -0.00035912 0.01366832 -0.00600000
v -0.00136114 0.01846066 -0.00600000
v 0.00110915 0.01450050 -0.00600000
v -0.00210685 -0.01863676 -0.00600000
v -0.00410623 -0.01753903 -0.00600000
v -0.00587094 -0.01617883 -0.00600000
v 0.00267005 -0.01989197 -0.00600000
v 0.00014728 -0.01942107 -0.00600000
v -0.01147848 -0.00000931 -0.00600000
v -0.01137040 -0.00292424 -0.00600000
v -0.00830262 0.01249648 -0.00600000
v -0.00693007 0.01438316 -0.00600000
v -0.00384531 0.00994746 -0.00600000
v 0.01499212 -0.01848082 0.00600000
v 0.00097019 0.01928821 0.00600000
v 0.00097019 0.01928821 -0.00600000
v 0.01429117 -0.01875101 0.00600000
v 0.01429117 -0.01875101 -0.00600000
v 0.00351921 0.01978535 -0.00600000
v 0.01359795 -0.01898568 0.00600000
v 0.01359795 -0.01898568 -0.00600000
v -0.01104309 -0.00565698 -0.00600000
v 0.01218526 -0.01493751 0.00600000
v -0.00486893 -0.00857191 -0.00600000
v -0.00408462 -0.01021928 -0.00600000
v -0.00866853 -0.01268493 -0.00600000
v 0.00079573 -0.01467659 -0.00600000
v -0.00068490 -0.01387066 -0.00600000
v -0.00617509 -0.00246260 -0.00600000
v -0.01135187 0.00284078 0.00600000
v 0.01218526 -0.01493751 -0.00600000
v 0.01075713 -0.01526483 -0.00600000
v -0.00346087 0.01736293 -0.00600000
v -0.01049808 -0.00820600 -0.00600000
v -0.00547878 -0.00671612 -0.00600000
v -0.00740097 -0.01455925 -0.00600000
v -0.00970142 -0.01056666 -0.00600000
v -0.00616274 0.00227725 -0.00600000
v -0.00167919 0.01263543 -0.00600000
v -0.00285102 0.01140184 -0.00600000
v 0.00931819 -0.01550413 0.00600000
v 0.01075713 -0.01526483 0.00600000
v 0.01146733 -0.01953532 0.00600000
v 0.01146733 -0.01953532 -0.00600000
v 0.01359795 -0.01458550 -0.00600000
v 0.01359795 -0.01458550 0.00600000
v 0.00546301 -0.02004945 -0.00600000
v 0.01071699 -0.01965729 -0.00600000
v 0.01071699 -0.01965729 0.00600000
v -0.00136114 0.01846066 0.00600000
v -0.00943895 0.01039057 -0.00600000
v -0.00035912 0.01366832 0.00600000
v -0.00586168 0.00444800 0.00600000
v -0.00312584 -0.01165667 -0.00600000
v -0.00199260 -0.01286403 -0.00600000
v 0.00245236 -0.01524321 -0.00600000
v -0.00626309 -0.00004945 -0.00600000
v -0.00616274 0.00227725 0.00600000
f 1 2 3
f 4 5 6
f 7 8 9
f 7 10 8
f 11 7 9
f 12 13 14
f 12 15 13
f 16 17 18
f 17 19 18
f 20 21 22
f 1 3 23
f 10 24 8
f 25 23 26
f 27 28 29
f 30 26 24
f 2 6 3
f 31 32 33
f 32 34 33
f 32 16 34
f 16 18 34
f 35 36 34
f 37 35 34
f 38 39 40
f 41 42 43
f 41 44 42
f 43 36 45
f 43 42 36
f 46 47 48
f 46 49 47
f 45 35 50
f 51 52 53
f 38 40 54
f 55 40 39
f 9 8 56
f 57 44 41
f 11 58 7
f 59 15 12
f 2 4 6
f 60 61 59
f 60 62 61
f 63 62 60
f 63 56 62
f 58 56 63
f 30 25 26
f 64 65 66
f 67 68 53
f 69 70 71
f 72 71 70
f 73 74 75
f 76 77 78
f 79 80 81
f 82 81 80
f 65 83 19
f 18 19 83
f 19 66 65
f 80 84 82
f 85 64 86
f 25 12 1
f 30 10 60
f 4 2 87
f 66 86 64
f 88 78 28
f 76 79 77
f 3 13 23
f 26 23 15
f 15 61 26
f 89 73 90
f 91 6 55
f 13 3 91
f 59 61 15
f 58 11 56
f 87 55 39
f 10 30 24
f 87 91 55
f 13 87 14
f 13 91 87
f 92 53 68
f 57 93 44
f 75 90 73
f 94 89 90
f 90 95 94
f 52 94 95
f 95 67 52
f 53 52 67
f 86 96 85
f 84 85 96
f 96 82 84
f 74 73 97
f 98 97 99
f 100 101 102
f 103 104 105
f 106 64 85
f 107 84 108
f 109 65 110
f 109 83 65
f 110 64 106
f 110 65 64
f 111 112 69
f 113 114 115
f 21 116 22
f 104 117 118
f 22 119 120
f 117 121 118
f 121 117 5
f 22 116 119
f 120 122 123
f 120 119 122
f 123 49 46
f 123 122 49
f 112 29 124
f 122 119 125
f 126 127 128
f 129 106 130
f 112 111 131
f 97 132 74
f 111 69 71
f 97 98 132
f 133 46 134
f 99 97 100
f 104 103 135
f 4 121 5
f 126 136 137
f 124 137 136
f 138 128 127
f 137 28 77
f 136 126 139
f 140 98 99
f 135 141 51
f 141 142 51
f 114 51 142
f 134 143 144
f 112 124 69
f 88 69 124
f 136 76 78
f 136 139 76
f 48 145 146
f 48 47 145
f 147 125 148
f 147 133 125
f 133 144 125
f 133 134 144
f 80 79 138
f 134 31 143
f 31 33 143
f 45 36 35
f 50 37 149
f 50 35 37
f 149 37 109
f 83 109 37
f 20 148 21
f 150 151 93
f 20 147 148
f 141 68 67
f 51 114 52
f 135 53 92
f 135 51 53
f 104 92 152
f 104 135 92
f 117 104 152
f 113 153 94
f 114 94 52
f 114 113 94
f 141 67 142
f 25 1 23
f 103 68 141
f 103 154 68
f 105 154 103
f 105 54 154
f 38 54 105
f 128 138 79
f 146 151 150
f 146 145 151
f 150 93 57
f 100 102 75
f 127 81 82
f 126 81 127
f 126 77 81
f 137 77 126
f 129 86 66
f 129 130 86
f 139 79 76
f 100 75 155
f 90 75 102
f 127 82 156
f 130 96 86
f 130 157 96
f 156 96 157
f 158 66 19
f 158 129 66
f 44 93 143
f 5 117 40
f 78 88 136
f 153 89 94
f 138 108 84
f 115 90 102
f 115 95 90
f 159 70 131
f 159 72 70
f 5 40 55
f 153 73 89
f 153 101 73
f 155 75 74
f 131 27 29
f 14 87 2
f 60 59 30
f 63 60 10
f 7 63 10
f 59 12 25
f 30 59 25
f 156 82 96
f 132 71 160
f 32 45 16
f 111 98 140
f 28 78 77
f 28 27 88
f 69 88 27
f 124 136 88
f 144 143 151
f 151 145 144
f 134 150 31
f 145 47 144
f 47 49 144
f 125 144 49
f 72 160 71
f 49 122 125
f 98 71 132
f 36 42 33
f 98 111 71
f 140 159 111
f 74 132 155
f 70 69 27
f 93 151 143
f 137 29 28
f 97 101 100
f 153 102 101
f 130 107 157
f 158 110 129
f 107 130 106
f 29 112 131
f 101 97 73
f 159 131 111
f 160 155 132
f 156 138 127
f 157 108 156
f 137 124 29
f 128 139 126
f 38 121 39
f 8 24 62
f 15 23 13
f 5 55 6
f 106 85 107
f 62 56 8
f 119 116 148
f 68 154 92
f 81 77 79
f 4 39 121
f 54 40 117
f 4 87 39
f 146 134 48
f 48 134 46
f 46 133 123
f 123 133 120
f 16 149 17
f 147 120 133
f 20 22 147
f 110 106 129
f 24 26 61
f 61 62 24
f 83 37 18
f 34 18 37
f 42 44 33
f 143 33 44
f 33 34 36
f 11 9 56
f 107 85 84
f 6 91 3
f 108 157 107
f 138 156 108
f 17 109 158
f 117 152 54
f 154 54 152
f 152 92 154
f 110 158 109
f 99 160 140
f 141 135 103
f 104 118 105
f 2 1 14
f 58 63 7
f 12 14 1
f 100 155 99
f 140 72 159
f 140 160 72
f 31 41 32
f 99 155 160
f 139 128 79
f 17 158 19
f 142 95 115
f 142 67 95
f 131 70 27
f 138 84 80
f 115 102 113
f 109 17 149
f 149 16 50
f 50 16 45
f 21 148 116
f 142 115 114
f 148 125 119
f 22 120 147
f 45 32 43
f 41 31 57
f 57 31 150
f 150 134 146
f 43 32 41
f 153 113 102
f 121 38 118
f 38 105 118

