# https://github.com/mikedh/trimesh
v 0.01154965 0.01497513 -0.00600000
v 0.00985104 0.01648007 0.00600000
v 0.01154965 0.01497513 0.00600000
v 0.00955100 0.00889504 -0.00600000
v 0.01025902 0.00707260 0.00600000
v 0.00955100 0.00889504 0.00600000
v 0.00866360 0.01049523 -0.00600000
v 0.00866360 0.01049523 0.00600000
v -0.01288659 -0.02002427 -0.00600000
v -0.01288659 -0.02002427 0.00600000
v -0.01288659 0.01997573 0.00600000
v -0.00288699 -0.02002427 -0.00600000
v -0.00288699 -0.02002427 0.00600000
v 0.00985104 0.01648007 -0.00600000
v 0.00792859 0.01771673 -0.00600000
v 0.00792859 0.01771673 0.00600000
v 0.01654866 0.00033847 -0.00600000
v 0.01654866 0.00033847 0.00600000
v 0.01640102 -0.00290477 0.00600000
v 0.01640102 -0.00290477 -0.00600000
v 0.01595812 -0.00586227 -0.00600000
v 0.01073845 -0.00463514 -0.00600000
v 0.01114484 0.00017654 -0.00600000
v 0.01104642 0.00271812 -0.00600000
v -0.00341086 -0.01570947 -0.00600000
v 0.00004828 -0.01988616 -0.00600000
v 0.00759204 -0.01777004 -0.00600000
v 0.00529812 -0.01877492 -0.00600000
v 0.00463613 -0.01391720 -0.00600000
v 0.01595812 0.00623441 -0.00600000
v 0.01595812 0.00623441 0.00600000
v 0.01640102 0.00341185 0.00600000
v 0.01521834 0.00880614 0.00600000
v 0.01423727 0.01112229 0.00600000
v 0.01521834 0.00880614 -0.00600000
v 0.00759680 0.01187000 -0.00600000
v 0.00759680 0.01187000 0.00600000
v 0.01640102 0.00341185 -0.00600000
v 0.00277718 -0.01946865 -0.00600000
v 0.00277718 -0.01946865 0.00600000
v 0.00004828 -0.01988616 0.00600000
v 0.01294188 -0.01306630 -0.00600000
v 0.01294188 -0.01306630 0.00600000
v 0.01142742 -0.01490303 0.00600000
v 0.00637443 0.01302728 0.00600000
v 0.01075114 0.00501522 -0.00600000
v 0.00336297 0.01469256 -0.00600000
v 0.00578230 0.01868510 -0.00600000
v 0.00496315 0.01396708 -0.00600000
v 0.00161990 0.01520849 -0.00600000
v 0.00343440 0.01940264 -0.00600000
v 0.00637443 0.01302728 -0.00600000
v 0.01595812 -0.00586227 0.00600000
v 0.00951449 -0.00858640 -0.00600000
v 0.00951449 -0.00858640 0.00600000
v 0.01073845 -0.00463514 0.00600000
v -0.00179797 0.01997573 -0.00600000
v -0.00179797 0.01997573 0.00600000
v -0.01288659 0.01997573 -0.00600000
v -0.00780662 0.01562124 -0.00600000
v -0.00232184 0.01562124 -0.00600000
v -0.00780662 0.01562124 0.00600000
v -0.00232184 0.01562124 0.00600000
v 0.01142742 -0.01490303 -0.00600000
v 0.01420552 -0.01094224 -0.00600000
v 0.01420552 -0.01094224 0.00600000
v 0.01104642 0.00271812 0.00600000
v 0.01075114 0.00501522 0.00600000
v 0.01025902 0.00707260 -0.00600000
v 0.00100713 -0.01526180 0.00600000
v 0.00463613 -0.01391720 0.00600000
v 0.00747615 -0.01167725 -0.00600000
v 0.00747615 -0.01167725 0.00600000
v 0.00343440 0.01940264 0.00600000
v 0.00578230 0.01868510 0.00600000
v 0.00090870 0.01983127 -0.00600000
v 0.00090870 0.01983127 0.00600000
v 0.00529812 -0.01877492 0.00600000
v -0.00027398 0.01551805 -0.00600000
v 0.01301332 0.01317809 -0.00600000
v -0.00341086 -0.01570947 0.00600000
v 0.01423727 0.01112229 -0.00600000
v 0.01114484 0.00017654 0.00600000
v 0.00161990 0.01520849 0.00600000
v -0.00027398 0.01551805 0.00600000
v -0.00780662 -0.01570947 0.00600000
v 0.00963514 -0.01648100 0.00600000
v 0.01521834 -0.00853243 0.00600000
v 0.00759204 -0.01777004 0.00600000
v 0.00496315 0.01396708 0.00600000
v 0.00336297 0.01469256 0.00600000
v 0.00963514 -0.01648100 -0.00600000
v 0.00100713 -0.01526180 -0.00600000
v 0.01301332 0.01317809 0.00600000
v -0.00780662 -0.01570947 -0.00600000
v 0.01521834 -0.00853243 -0.00600000
f 1 2 3
f 4 5 6
f 7 4 6
f 7 6 8
f 9 10 11
f 9 12 10
f 13 10 12
f 14 15 16
f 14 16 2
f 17 18 19
f 17 19 20
f 20 21 22
f 23 24 17
f 12 25 26
f 27 28 29
f 30 31 32
f 33 34 6
f 31 30 35
f 36 7 8
f 36 8 37
f 32 18 17
f 32 17 38
f 30 32 38
f 39 40 41
f 42 43 44
f 36 37 45
f 38 17 24
f 24 46 38
f 30 38 46
f 47 48 49
f 50 51 47
f 52 49 15
f 21 20 53
f 54 55 56
f 26 41 13
f 26 13 12
f 57 11 58
f 59 9 11
f 60 61 62
f 63 62 61
f 39 41 26
f 42 44 64
f 65 66 43
f 65 43 42
f 46 24 67
f 46 67 68
f 69 46 68
f 69 68 5
f 29 70 71
f 19 53 20
f 54 72 73
f 54 73 55
f 48 51 74
f 48 74 75
f 51 76 77
f 51 77 74
f 23 22 56
f 28 78 40
f 28 40 39
f 28 27 78
f 36 45 52
f 61 57 79
f 48 47 51
f 17 20 23
f 22 23 20
f 80 7 1
f 7 36 1
f 70 81 41
f 41 40 70
f 7 80 4
f 14 1 36
f 36 52 14
f 15 14 52
f 35 30 69
f 46 69 30
f 69 4 35
f 82 35 4
f 82 4 80
f 76 51 50
f 15 49 48
f 50 79 76
f 57 76 79
f 58 11 62
f 58 62 63
f 18 83 19
f 67 32 68
f 74 77 84
f 85 84 77
f 83 18 67
f 56 19 83
f 33 5 31
f 68 31 5
f 5 33 6
f 43 66 55
f 11 10 62
f 86 62 10
f 31 68 32
f 32 67 18
f 13 41 81
f 10 13 86
f 81 86 13
f 73 71 87
f 56 55 88
f 53 56 88
f 19 56 53
f 66 88 55
f 40 78 70
f 71 70 78
f 78 89 71
f 89 87 71
f 55 73 43
f 87 44 73
f 43 73 44
f 49 90 91
f 49 91 47
f 47 91 84
f 47 84 50
f 4 69 5
f 71 73 29
f 72 29 73
f 57 59 11
f 92 87 89
f 92 89 27
f 64 44 87
f 64 87 92
f 76 57 58
f 23 56 83
f 24 23 83
f 24 83 67
f 45 90 52
f 50 84 85
f 50 85 79
f 79 85 63
f 79 63 61
f 54 56 22
f 75 16 48
f 15 48 16
f 84 91 74
f 75 74 91
f 16 75 90
f 91 90 75
f 63 85 58
f 77 58 85
f 76 58 77
f 49 52 90
f 89 78 27
f 93 25 81
f 93 81 70
f 29 93 70
f 35 33 31
f 80 3 94
f 1 14 2
f 95 60 86
f 37 8 3
f 34 94 6
f 96 88 66
f 96 66 65
f 21 53 88
f 21 88 96
f 16 45 2
f 90 45 16
f 45 37 2
f 21 96 22
f 93 26 25
f 29 28 93
f 54 22 96
f 92 72 64
f 86 81 95
f 25 95 81
f 8 6 94
f 3 8 94
f 3 2 37
f 62 86 60
f 72 92 29
f 59 57 60
f 61 60 57
f 9 59 60
f 60 95 9
f 95 12 9
f 27 29 92
f 25 12 95
f 54 42 72
f 64 72 42
f 65 42 54
f 96 65 54
f 39 93 28
f 26 93 39
f 80 1 3
f 82 94 34
f 82 80 94
f 35 34 33
f 35 82 34

