# https://github.com/mikedh/trimesh
v 0.01246671 -0.01567729 -0.00600000
v -0.00321770 -0.01567729 -0.00600000
v 0.01246671 -0.01567729 0.00600000
v -0.00829925 -0.02015243 -0.00600000
v -0.00829925 -0.02015243 0.00600000
v -0.00829925 0.01984757 0.00600000
v -0.00321770 -0.00152322 0.00600000
v -0.00321770 -0.01567729 0.00600000
v 0.01141897 0.00299319 -0.00600000
v -0.00321770 0.00299319 0.00600000
v 0.01141897 0.00299319 0.00600000
v -0.00321770 0.00299319 -0.00600000
v 0.01246671 0.01984757 -0.00600000
v 0.01246671 0.01984757 0.00600000
v -0.00829925 0.01984757 -0.00600000
v 0.01141897 -0.00152322 -0.00600000
v 0.01141897 -0.00152322 0.00600000
v 0.01246671 0.01533116 0.00600000
v -0.00321770 0.01533116 0.00600000
v 0.01246671 0.01533116 -0.00600000
v -0.00321770 0.01533116 -0.00600000
v -0.00321770 -0.00152322 -0.00600000
v 0.01246671 -0.02015243 -0.00600000
v 0.01246671 -0.02015243 0.00600000
f 1 2 3
f 4 5 6
f 2 7 8
f 9 10 11
f 9 12 10
f 13 6 14
f 13 15 6
f 16 11 17
f 16 9 11
f 18 19 20
f 21 20 19
f 16 7 22
f 16 17 7
f 14 19 18
f 14 6 19
f 11 10 7
f 11 7 17
f 4 2 23
f 4 15 22
f 4 22 2
f 1 23 2
f 20 21 13
f 15 13 21
f 12 9 16
f 12 16 22
f 21 12 15
f 12 22 15
f 8 3 2
f 24 5 4
f 10 12 21
f 10 21 19
f 15 4 6
f 20 13 14
f 20 14 18
f 6 5 7
f 5 24 8
f 3 8 24
f 7 10 6
f 10 19 6
f 8 7 5
f 23 24 4
f 3 24 23
f 2 22 7
f 3 23 1

