# https://github.com/mikedh/trimesh
v -0.00199822 -0.00662712 0.00600000
v -0.00199822 -0.02352278 -0.00600000
v -0.00199822 -0.00662712 -0.00600000
v -0.00199822 0.01196081 0.00600000
v -0.00199822 -0.00211230 0.00600000
v -0.00199822 -0.00211230 -0.00600000
v -0.00199822 0.01196081 -0.00600000
v -0.00199822 -0.02352278 0.00600000
v -0.00707978 -0.02352278 -0.00600000
v -0.00707978 -0.02352278 0.00600000
v -0.00707978 0.01647722 0.00600000
v -0.00707978 0.01647722 -0.00600000
v 0.01259717 -0.00662712 0.00600000
v 0.01259717 -0.00662712 -0.00600000
v 0.01364649 0.01196081 -0.00600000
v 0.01364649 0.01647722 -0.00600000
v 0.01364649 0.01647722 0.00600000
v 0.01364649 0.01196081 0.00600000
v 0.01259717 -0.00211230 0.00600000
v 0.01259717 -0.00211230 -0.00600000
f 1 2 3
f 4 5 6
f 4 6 7
f 1 8 2
f 9 10 11
f 9 11 12
f 1 5 10
f 1 13 5
f 14 1 3
f 15 16 17
f 8 1 10
f 18 17 4
f 11 4 17
f 19 5 13
f 3 2 9
f 9 12 6
f 9 6 3
f 15 17 18
f 13 20 19
f 14 20 13
f 7 15 4
f 18 4 15
f 16 12 11
f 16 11 17
f 14 13 1
f 7 6 12
f 12 16 7
f 15 7 16
f 3 6 20
f 14 3 20
f 5 4 11
f 2 8 10
f 2 10 9
f 6 5 19
f 20 6 19
f 11 10 5

