# https://github.com/mikedh/trimesh
v 0.00897509 0.02059456 -0.00600000
v 0.01073979 0.02014219 -0.00600000
v 0.00857521 0.01590720 -0.00600000
v 0.00965904 -0.01811472 0.00600000
v 0.00826951 -0.01399244 0.00600000
v 0.00862307 -0.01826757 0.00600000
v 0.00778626 -0.01407118 0.00600000
v -0.00969096 -0.00516891 -0.00600000
v -0.01514719 -0.00456369 -0.00600000
v -0.01010474 -0.00319114 -0.00600000
v -0.01071150 0.01577134 -0.00600000
v -0.00698447 0.01263408 -0.00600000
v -0.01220138 0.01392480 -0.00600000
v -0.01343035 0.01183279 -0.00600000
v -0.00802198 0.01117971 -0.00600000
v -0.00888504 0.00953234 -0.00600000
v -0.00957362 0.00769353 -0.00600000
v -0.01439685 0.00949683 -0.00600000
v -0.01509470 0.00692156 -0.00600000
v -0.01035331 -0.00107442 -0.00600000
v -0.01565206 0.00122294 -0.00600000
v -0.01043668 0.00118280 -0.00600000
v -0.01552545 -0.00178000 -0.00600000
v -0.01551310 0.00416411 -0.00600000
v -0.01005224 0.00568025 -0.00600000
v 0.01168158 -0.01767933 0.00600000
v 0.00968220 -0.01371917 0.00600000
v 0.01067958 -0.01791864 0.00600000
v 0.00040939 0.02102686 0.00600000
v -0.00228321 0.02055596 0.00600000
v -0.00107277 0.01632098 0.00600000
v 0.00084941 0.01667299 0.00600000
v 0.00293679 0.01679187 0.00600000
v 0.00875739 -0.01389209 0.00600000
v -0.00282822 0.01573274 0.00600000
v -0.00475040 0.01977165 0.00600000
v -0.00438759 0.01490057 0.00600000
v -0.00699836 0.01870016 0.00600000
v -0.01220138 0.01392480 0.00600000
v -0.01343035 0.01183279 0.00600000
v -0.00802198 0.01117971 0.00600000
v -0.01071150 0.01577134 0.00600000
v -0.00698447 0.01263408 0.00600000
v -0.00898539 0.01736621 0.00600000
v 0.00968220 -0.00211040 -0.00600000
v 0.00179892 -0.00211040 0.00600000
v 0.00179892 -0.00211040 -0.00600000
v 0.00526349 0.02111795 -0.00600000
v 0.00526349 0.02111795 0.00600000
v 0.00714553 0.02092187 0.00600000
v 0.00293679 0.01679187 -0.00600000
v 0.00084941 0.01667299 -0.00600000
v 0.00374735 0.01677334 -0.00600000
v 0.00374735 0.01677334 0.00600000
v 0.00455792 0.01672085 -0.00600000
v 0.00455792 0.01672085 0.00600000
v 0.00179892 0.00228207 -0.00600000
v 0.00179892 0.00228207 0.00600000
v 0.01466136 0.00228207 -0.00600000
v 0.01466136 0.00228207 0.00600000
v 0.00968220 -0.00211040 0.00600000
v 0.00332895 0.02118279 -0.00600000
v 0.00040939 0.02102686 -0.00600000
v 0.00332895 0.02118279 0.00600000
v 0.00355900 -0.01445871 -0.00600000
v 0.00281946 -0.01446334 -0.00600000
v 0.00281946 -0.01446334 0.00600000
v 0.00055761 -0.01433674 -0.00600000
v 0.01466136 -0.01685642 0.00600000
v 0.01466136 -0.01685642 -0.00600000
v 0.01366861 -0.01715594 0.00600000
v 0.01366861 -0.01715594 -0.00600000
v 0.00617440 -0.01430277 -0.00600000
v 0.00557227 -0.01436761 -0.00600000
v 0.00557227 -0.01436761 0.00600000
v 0.00493618 -0.01442474 0.00600000
v 0.01267433 -0.01743076 0.00600000
v -0.01552545 -0.00178000 0.00600000
v -0.01035331 -0.00107442 0.00600000
v -0.01565206 0.00122294 0.00600000
v 0.00646157 -0.01856400 -0.00600000
v 0.00755931 -0.01843277 -0.00600000
v 0.00532834 -0.01865973 -0.00600000
v 0.00415186 -0.01874619 -0.00600000
v 0.00493618 -0.01442474 -0.00600000
v 0.00292290 -0.01879868 -0.00600000
v 0.00164299 -0.01881720 -0.00600000
v -0.01439685 0.00949683 0.00600000
v -0.00888504 0.00953234 0.00600000
v -0.01010474 -0.00319114 0.00600000
v -0.01043668 0.00118280 0.00600000
v -0.01034096 0.00350949 0.00600000
v -0.01509470 0.00692156 0.00600000
v -0.01551310 0.00416411 0.00600000
v -0.01005224 0.00568025 0.00600000
v 0.00674102 -0.01422866 -0.00600000
v 0.00727677 -0.01414992 -0.00600000
v -0.00957362 0.00769353 0.00600000
v -0.00911971 -0.00699074 0.00600000
v -0.00969096 -0.00516891 0.00600000
v -0.01451418 -0.00712970 0.00600000
v -0.01514719 -0.00456369 0.00600000
v -0.00960450 -0.01503922 0.00600000
v -0.00779966 -0.01637163 0.00600000
v -0.00622331 -0.01139247 0.00600000
v -0.00834929 -0.00863811 0.00600000
v -0.01363878 -0.00948727 0.00600000
v -0.00475040 0.01977165 -0.00600000
v -0.00699836 0.01870016 -0.00600000
v -0.00228321 0.02055596 -0.00600000
v 0.01267433 -0.01743076 -0.00600000
v 0.01168158 -0.01767933 -0.00600000
v 0.00968220 -0.01371917 -0.00600000
v -0.00577403 0.01386768 0.00600000
v 0.00779861 0.01612490 -0.00600000
v 0.00700658 0.01632098 -0.00600000
v 0.00933327 0.01567098 -0.00600000
v 0.00922829 -0.01380099 -0.00600000
v 0.01067958 -0.01791864 -0.00600000
v -0.01034096 0.00350949 -0.00600000
v -0.00577403 0.01386768 -0.00600000
v -0.00898539 0.01736621 -0.00600000
v -0.00438759 0.01490057 -0.00600000
v -0.00107277 0.01632098 -0.00600000
v 0.01007281 0.01541932 -0.00600000
v 0.01007281 0.01541932 0.00600000
v 0.00933327 0.01567098 0.00600000
v 0.01146852 0.01486042 -0.00600000
v 0.01146852 0.01486042 0.00600000
v 0.01078765 0.01514914 0.00600000
v 0.01211234 0.01455627 -0.00600000
v 0.01211234 0.01455627 0.00600000
v 0.01242730 0.01956630 0.00600000
v 0.01403453 0.01887000 0.00600000
v 0.01403453 0.01887000 -0.00600000
v 0.01078765 0.01514914 -0.00600000
v 0.00857521 0.01590720 0.00600000
v 0.00700658 0.01632098 0.00600000
v 0.00619602 0.01649081 0.00600000
v -0.01252716 -0.01159164 -0.00600000
v -0.01363878 -0.00948727 -0.00600000
v -0.00834929 -0.00863811 -0.00600000
v -0.00737662 -0.01011101 -0.00600000
v 0.00426457 -0.01444636 0.00600000
v 0.00426457 -0.01444636 -0.00600000
v 0.00355900 -0.01445871 0.00600000
v -0.00282822 0.01573274 -0.00600000
v 0.00875739 -0.01389209 -0.00600000
v 0.00965904 -0.01811472 -0.00600000
v 0.00714553 0.02092187 -0.00600000
v 0.01242730 0.01956630 -0.00600000
v 0.01073979 0.02014219 0.00600000
v 0.00619602 0.01649081 -0.00600000
v 0.00536847 0.01663439 -0.00600000
v 0.00779861 0.01612490 0.00600000
v 0.00536847 0.01663439 0.00600000
v 0.00674102 -0.01422866 0.00600000
v 0.00617440 -0.01430277 0.00600000
v 0.00755931 -0.01843277 0.00600000
v 0.00164299 -0.01881720 0.00600000
v 0.00292290 -0.01879868 0.00600000
v -0.00104653 -0.01866436 0.00600000
v 0.00055761 -0.01433674 0.00600000
v 0.00532834 -0.01865973 0.00600000
v 0.00646157 -0.01856400 0.00600000
v 0.00415186 -0.01874619 0.00600000
v 0.00922829 -0.01380099 0.00600000
v 0.00727677 -0.01414992 0.00600000
v 0.00897509 0.02059456 0.00600000
v -0.00146956 -0.01395848 0.00600000
v -0.01118085 -0.01344435 -0.00600000
v -0.01118085 -0.01344435 0.00600000
v -0.00960450 -0.01503922 -0.00600000
v -0.00146956 -0.01395848 -0.00600000
v 0.00862307 -0.01826757 -0.00600000
v 0.00826951 -0.01399244 -0.00600000
v -0.00622331 -0.01139247 -0.00600000
v -0.00485076 -0.01246396 -0.00600000
v -0.00779966 -0.01637163 -0.00600000
v -0.00104653 -0.01866436 -0.00600000
v -0.00737662 -0.01011101 0.00600000
v -0.00911971 -0.00699074 -0.00600000
v -0.00325897 -0.01332701 0.00600000
v -0.00325897 -0.01332701 -0.00600000
v -0.00485076 -0.01246396 0.00600000
v -0.01252716 -0.01159164 0.00600000
v -0.00576940 -0.01744466 -0.00600000
v -0.00351681 -0.01820581 -0.00600000
v -0.01451418 -0.00712970 -0.00600000
v -0.00576940 -0.01744466 0.00600000
v -0.00351681 -0.01820581 0.00600000
v 0.00778626 -0.01407118 -0.00600000
f 1 2 3
f 4 5 6
f 5 7 6
f 8 9 10
f 11 12 13
f 14 13 15
f 15 16 14
f 16 17 18
f 19 18 17
f 20 21 22
f 10 23 20
f 24 19 25
f 26 27 28
f 29 30 31
f 31 32 29
f 32 33 29
f 5 4 34
f 35 31 30
f 30 36 35
f 37 35 36
f 36 38 37
f 39 40 41
f 42 39 43
f 42 43 44
f 45 46 47
f 48 49 50
f 51 32 52
f 51 33 32
f 53 33 51
f 53 54 33
f 55 54 53
f 55 56 54
f 57 46 58
f 57 47 46
f 59 57 60
f 58 60 57
f 41 43 39
f 45 61 46
f 62 63 64
f 48 64 49
f 65 66 67
f 66 68 67
f 69 70 59
f 70 71 72
f 70 69 71
f 73 74 75
f 74 76 75
f 26 77 27
f 78 79 80
f 81 73 82
f 83 74 81
f 84 85 83
f 86 65 84
f 87 66 86
f 88 89 40
f 90 79 78
f 91 80 79
f 92 80 91
f 93 94 95
f 92 95 94
f 96 97 82
f 80 92 94
f 93 98 88
f 99 100 101
f 102 101 100
f 100 90 102
f 78 102 90
f 103 104 105
f 106 99 107
f 16 89 98
f 108 109 36
f 110 108 30
f 111 112 113
f 38 44 114
f 43 114 44
f 114 37 38
f 95 98 93
f 89 88 98
f 89 41 40
f 3 115 1
f 115 116 1
f 117 3 2
f 118 113 119
f 72 111 113
f 48 62 64
f 22 21 120
f 109 121 122
f 11 122 12
f 17 25 19
f 25 120 24
f 21 24 120
f 121 109 123
f 63 124 110
f 15 13 12
f 59 45 57
f 47 57 45
f 125 126 127
f 128 129 130
f 131 129 128
f 131 132 129
f 133 134 135
f 136 126 125
f 136 130 126
f 128 130 136
f 117 137 3
f 117 127 137
f 134 132 131
f 125 127 117
f 116 138 139
f 131 135 134
f 12 122 121
f 140 141 142
f 142 143 140
f 138 50 139
f 74 85 76
f 85 144 76
f 85 145 144
f 145 146 144
f 145 65 146
f 65 67 146
f 131 128 135
f 110 147 108
f 108 123 109
f 18 14 16
f 148 118 149
f 147 110 124
f 123 108 147
f 150 1 116
f 2 151 125
f 136 125 151
f 128 136 151
f 151 135 128
f 151 152 133
f 116 153 150
f 48 150 154
f 153 154 150
f 125 117 2
f 53 48 55
f 55 48 154
f 3 155 115
f 3 137 155
f 153 156 154
f 153 139 156
f 116 139 153
f 157 158 159
f 160 161 67
f 162 160 163
f 164 165 75
f 166 164 76
f 75 76 164
f 61 27 69
f 167 28 27
f 158 75 165
f 165 159 158
f 7 168 6
f 159 6 168
f 67 163 160
f 168 157 159
f 34 4 167
f 28 167 4
f 69 27 71
f 71 27 77
f 149 4 6
f 82 165 81
f 82 159 165
f 81 164 83
f 81 165 164
f 83 166 84
f 54 56 49
f 151 2 152
f 135 151 133
f 1 50 169
f 1 150 50
f 2 169 152
f 2 1 169
f 155 138 115
f 116 115 138
f 150 48 50
f 154 56 55
f 154 156 56
f 36 30 108
f 49 64 54
f 56 156 49
f 50 49 156
f 156 139 50
f 60 58 61
f 46 61 58
f 33 54 64
f 64 29 33
f 163 170 162
f 76 144 166
f 144 146 166
f 45 70 113
f 171 103 172
f 171 173 103
f 68 163 67
f 68 170 163
f 68 174 170
f 59 70 45
f 149 175 176
f 85 84 145
f 74 83 85
f 65 86 66
f 73 81 74
f 143 105 177
f 72 113 70
f 145 84 65
f 48 53 62
f 52 63 51
f 62 51 63
f 52 124 63
f 51 62 53
f 178 179 177
f 171 140 143
f 68 180 174
f 179 103 173
f 142 106 181
f 25 92 120
f 18 19 93
f 14 88 40
f 14 18 88
f 13 40 39
f 13 14 40
f 11 13 39
f 21 78 80
f 112 119 113
f 143 181 105
f 142 181 143
f 179 104 103
f 182 106 142
f 182 99 106
f 8 99 182
f 8 100 99
f 90 100 8
f 174 183 170
f 174 184 183
f 184 185 183
f 184 178 185
f 178 105 185
f 178 177 105
f 141 140 186
f 179 178 187
f 102 78 9
f 187 184 188
f 119 149 118
f 182 142 141
f 141 189 182
f 21 20 23
f 23 10 9
f 9 8 189
f 8 182 189
f 189 107 101
f 173 177 179
f 141 186 107
f 184 187 178
f 23 9 78
f 9 189 101
f 9 101 102
f 189 141 107
f 104 179 190
f 187 190 179
f 188 191 190
f 143 177 171
f 127 126 152
f 134 133 129
f 180 191 188
f 180 162 191
f 188 190 187
f 140 171 186
f 172 186 171
f 137 127 152
f 152 169 137
f 155 169 138
f 50 138 169
f 126 130 133
f 133 152 126
f 16 41 89
f 130 129 133
f 132 134 129
f 61 69 60
f 155 137 169
f 174 188 184
f 96 82 73
f 69 59 60
f 188 174 180
f 66 87 68
f 171 177 173
f 161 166 146
f 87 160 162
f 45 27 61
f 4 149 119
f 149 6 175
f 170 183 191
f 190 191 183
f 183 185 190
f 104 190 185
f 185 105 104
f 105 181 172
f 172 103 105
f 87 162 180
f 146 67 161
f 191 162 170
f 101 107 99
f 107 186 106
f 181 106 186
f 186 172 181
f 21 23 78
f 24 80 94
f 24 21 80
f 19 94 93
f 19 24 94
f 148 176 5
f 16 15 41
f 168 7 97
f 113 167 27
f 113 118 167
f 97 157 168
f 97 96 157
f 96 158 157
f 96 73 158
f 73 75 158
f 45 113 27
f 148 5 34
f 120 91 22
f 7 5 176
f 118 34 167
f 118 148 34
f 176 192 7
f 192 97 7
f 83 164 166
f 84 161 86
f 84 166 161
f 86 160 87
f 86 161 160
f 98 17 16
f 123 114 121
f 109 122 44
f 109 38 36
f 180 68 87
f 176 148 149
f 192 176 175
f 97 192 175
f 175 82 97
f 25 95 92
f 17 95 25
f 17 98 95
f 111 72 77
f 39 42 11
f 122 42 44
f 122 11 42
f 109 44 38
f 10 90 8
f 20 90 10
f 20 79 90
f 22 79 20
f 22 91 79
f 120 92 91
f 121 43 12
f 18 93 88
f 111 26 112
f 111 77 26
f 112 28 119
f 112 26 28
f 4 119 28
f 175 159 82
f 175 6 159
f 123 37 114
f 147 37 123
f 147 35 37
f 124 35 147
f 124 31 35
f 32 31 52
f 124 52 31
f 71 77 72
f 63 110 30
f 15 43 41
f 15 12 43
f 30 29 63
f 63 29 64
f 121 114 43

