# https://github.com/mikedh/trimesh
v 0.01418462 -0.02013220 -0.00600000
v 0.00906338 -0.02013220 -0.00600000
v 0.00906338 -0.00150299 -0.00600000
v 0.01418462 0.01986780 -0.00600000
v 0.00906338 0.01986780 -0.00600000
v 0.00906338 0.00301342 -0.00600000
v -0.00912133 0.01986780 -0.00600000
v -0.00912133 0.00301342 -0.00600000
v -0.01420288 0.01986780 -0.00600000
v -0.00912133 -0.00150299 -0.00600000
v -0.01420288 -0.02013220 -0.00600000
v 0.01418462 0.01986780 0.00600000
v 0.00906338 0.01986780 0.00600000
v 0.00906338 0.00301342 0.00600000
v -0.00912133 0.00301342 0.00600000
v -0.01420288 0.01986780 0.00600000
v -0.00912133 -0.00150299 0.00600000
v -0.01420288 -0.02013220 0.00600000
v -0.00912133 -0.02013220 0.00600000
v -0.00912133 0.01986780 0.00600000
v 0.00906338 -0.00150299 0.00600000
v -0.00912133 -0.02013220 -0.00600000
v 0.01418462 -0.02013220 0.00600000
v 0.00906338 -0.02013220 0.00600000
f 1 2 3
f 1 3 4
f 5 4 6
f 7 8 9
f 9 10 11
f 12 13 14
f 15 16 17
f 16 18 17
f 19 17 18
f 20 16 15
f 15 17 21
f 3 10 8
f 22 11 10
f 8 10 9
f 3 8 6
f 10 17 19
f 11 18 9
f 16 9 18
f 18 11 22
f 15 21 14
f 6 8 15
f 6 4 3
f 4 12 23
f 4 23 1
f 12 14 21
f 24 23 21
f 12 21 23
f 10 19 22
f 4 5 13
f 4 13 12
f 20 15 8
f 20 8 7
f 7 9 16
f 6 15 14
f 22 19 18
f 21 17 10
f 21 10 3
f 5 6 14
f 5 14 13
f 21 3 2
f 21 2 24
f 2 1 23
f 2 23 24
f 7 16 20

