# https://github.com/mikedh/trimesh
v -0.00724848 0.01716799 -0.00600000
v -0.00724848 0.01716799 0.00600000
v -0.00724848 0.01999055 0.00600000
v 0.00722626 0.01999055 0.00600000
v -0.00253045 0.01607897 0.00600000
v 0.00254951 0.01607897 0.00600000
v 0.00722626 0.01716799 0.00600000
v 0.00722626 -0.01722658 0.00600000
v 0.00722626 -0.01722658 -0.00600000
v 0.00254951 -0.01613915 -0.00600000
v 0.00254951 0.01607897 -0.00600000
v -0.00724848 -0.02000945 0.00600000
v 0.00722626 -0.02000945 0.00600000
v -0.00253045 -0.01613915 0.00600000
v 0.00722626 -0.02000945 -0.00600000
v 0.00722626 0.01716799 -0.00600000
v -0.00253045 -0.01613915 -0.00600000
v -0.00724848 0.01999055 -0.00600000
v 0.00722626 0.01999055 -0.00600000
v -0.00253045 0.01607897 -0.00600000
v -0.00724848 -0.01722658 0.00600000
v -0.00724848 -0.01722658 -0.00600000
v -0.00724848 -0.02000945 -0.00600000
v 0.00254951 -0.01613915 0.00600000
f 1 2 3
f 4 5 6
f 6 7 4
f 8 9 10
f 6 10 11
f 12 13 14
f 9 15 10
f 11 16 7
f 10 17 11
f 18 19 20
f 10 15 17
f 14 21 12
f 20 2 1
f 13 12 15
f 17 22 21
f 2 5 3
f 23 15 12
f 17 23 22
f 20 17 14
f 20 5 2
f 18 20 1
f 23 12 21
f 20 11 17
f 16 11 19
f 1 3 18
f 16 19 4
f 16 4 7
f 19 18 4
f 3 4 18
f 3 5 4
f 11 7 6
f 23 21 22
f 23 17 15
f 17 21 14
f 13 8 24
f 14 24 6
f 8 15 9
f 8 13 15
f 8 10 24
f 6 24 10
f 6 5 14
f 13 24 14
f 20 14 5
f 11 20 19

