# https://github.com/mikedh/trimesh
v -0.00772826 -0.01442043 -0.00600000
v -0.00718411 -0.01451321 -0.00600000
v -0.00834763 -0.01778939 -0.00600000
v -0.00877643 -0.01763393 -0.00600000
v -0.00611211 -0.01815676 -0.00600000
v -0.00675907 -0.01810410 -0.00600000
v -0.00599550 -0.01459722 -0.00600000
v -0.00539995 -0.01817557 -0.00600000
v -0.00877643 -0.01419475 -0.00600000
v -0.00825986 -0.01431511 -0.00600000
v -0.00659984 -0.01456587 -0.00600000
v -0.00734334 -0.01801633 -0.00600000
v -0.00786994 -0.01791728 -0.00600000
v -0.00536860 -0.01460850 -0.00600000
v -0.00418000 -0.01811538 -0.00600000
v -0.00485204 -0.01458719 -0.00600000
v -0.00189433 -0.01324938 -0.00600000
v -0.00153323 -0.01276166 -0.00600000
v 0.00148592 -0.01522036 -0.00600000
v -0.00432168 -0.01452324 -0.00600000
v -0.00277073 -0.01397784 -0.00600000
v -0.00092012 -0.01721264 -0.00600000
v -0.00325971 -0.01423361 -0.00600000
v 0.00077753 -0.01600899 -0.00600000
v -0.00001864 -0.01667100 -0.00600000
v -0.00231184 -0.01365311 -0.00600000
v -0.00377628 -0.01441667 -0.00600000
v -0.00302275 -0.01793483 -0.00600000
v -0.00192943 -0.01763393 -0.00600000
v -0.00539995 -0.01817557 0.00600000
v -0.00611211 -0.01815676 0.00600000
v -0.00675907 -0.01810410 0.00600000
v -0.00418000 -0.01811538 0.00600000
v 0.00291525 -0.01207081 -0.00600000
v 0.00256168 -0.01323935 0.00600000
v 0.00256168 -0.01323935 -0.00600000
v 0.00291525 -0.01207081 0.00600000
v 0.00208022 -0.01429631 -0.00600000
v 0.00208022 -0.01429631 0.00600000
v 0.00148592 -0.01522036 0.00600000
v -0.00081480 -0.00976758 -0.00600000
v -0.00081480 0.02182443 0.00600000
v -0.00081480 0.02182443 -0.00600000
v 0.00319862 0.02182443 -0.00600000
v 0.00319862 0.02182443 0.00600000
v -0.00734334 -0.01801633 0.00600000
v -0.00786994 -0.01791728 0.00600000
v 0.00319862 -0.00935382 0.00600000
v -0.00085993 -0.01068787 -0.00600000
v -0.00099911 -0.01149406 0.00600000
v -0.00085993 -0.01068787 0.00600000
v -0.00099911 -0.01149406 -0.00600000
v -0.00122856 -0.01218741 0.00600000
v -0.00081480 -0.00976758 0.00600000
v -0.00231184 -0.01365311 0.00600000
v -0.00277073 -0.01397784 0.00600000
v 0.00319862 -0.00935382 -0.00600000
v -0.00122856 -0.01218741 -0.00600000
v -0.00153323 -0.01276166 0.00600000
v -0.00189433 -0.01324938 0.00600000
v -0.00536860 -0.01460850 0.00600000
v -0.00485204 -0.01458719 0.00600000
v -0.00377628 -0.01441667 0.00600000
v -0.00325971 -0.01423361 0.00600000
v 0.00312715 -0.01077563 0.00600000
v 0.00312715 -0.01077563 -0.00600000
v -0.00599550 -0.01459722 0.00600000
v -0.00432168 -0.01452324 0.00600000
v -0.00718411 -0.01451321 0.00600000
v -0.00659984 -0.01456587 0.00600000
v -0.00092012 -0.01721264 0.00600000
v -0.00192943 -0.01763393 0.00600000
v -0.00877643 -0.01419475 0.00600000
v -0.00825986 -0.01431511 0.00600000
v -0.00772826 -0.01442043 0.00600000
v -0.00877643 -0.01763393 0.00600000
v -0.00302275 -0.01793483 0.00600000
v -0.00834763 -0.01778939 0.00600000
v -0.00001864 -0.01667100 0.00600000
v 0.00077753 -0.01600899 0.00600000
f 1 2 3
f 4 1 3
f 5 6 7
f 8 5 7
f 9 10 4
f 1 4 10
f 11 7 6
f 12 13 2
f 7 14 8
f 15 8 16
f 17 18 19
f 20 15 16
f 14 16 8
f 21 22 23
f 24 25 26
f 27 28 20
f 23 29 27
f 26 17 24
f 19 24 17
f 6 12 11
f 8 30 31
f 8 31 5
f 5 31 32
f 5 32 6
f 33 8 15
f 33 30 8
f 28 27 29
f 29 23 22
f 22 21 25
f 15 20 28
f 13 3 2
f 2 11 12
f 34 35 36
f 34 37 35
f 38 39 40
f 41 42 43
f 36 35 39
f 44 43 45
f 42 45 43
f 12 46 47
f 36 39 38
f 44 45 48
f 12 47 13
f 49 50 51
f 52 53 50
f 41 54 42
f 17 26 55
f 26 56 55
f 44 48 57
f 52 58 53
f 58 59 53
f 58 18 59
f 18 60 59
f 41 51 54
f 18 17 60
f 17 55 60
f 16 61 62
f 23 63 64
f 23 27 63
f 38 40 19
f 57 65 66
f 57 48 65
f 66 37 34
f 66 65 37
f 14 7 67
f 62 33 68
f 47 46 69
f 70 69 46
f 71 64 72
f 10 9 73
f 7 11 70
f 7 70 67
f 1 74 75
f 2 1 75
f 2 75 69
f 4 76 9
f 10 73 74
f 1 10 74
f 20 16 62
f 20 62 68
f 33 28 77
f 14 67 61
f 73 9 76
f 16 14 61
f 11 2 69
f 49 52 50
f 41 49 51
f 6 32 46
f 72 63 77
f 6 46 12
f 3 78 76
f 77 68 33
f 39 35 53
f 79 56 71
f 80 55 79
f 68 77 63
f 13 47 78
f 27 20 68
f 27 68 63
f 3 76 4
f 13 78 3
f 11 69 70
f 26 21 56
f 33 15 28
f 25 79 71
f 25 71 22
f 36 38 58
f 18 58 38
f 44 57 43
f 38 19 18
f 53 59 39
f 59 60 40
f 60 55 80
f 80 40 60
f 51 50 37
f 42 54 48
f 65 48 54
f 54 51 65
f 40 39 59
f 22 72 29
f 22 71 72
f 29 77 28
f 29 72 77
f 40 80 19
f 24 19 80
f 24 79 25
f 24 80 79
f 48 45 42
f 66 34 49
f 57 66 41
f 21 26 25
f 41 43 57
f 49 41 66
f 52 49 34
f 36 52 34
f 21 23 64
f 21 64 56
f 32 70 46
f 31 67 32
f 30 67 31
f 33 62 30
f 64 71 56
f 69 75 78
f 70 32 67
f 61 30 62
f 63 72 64
f 76 78 75
f 78 47 69
f 67 30 61
f 75 74 76
f 52 36 58
f 37 65 51
f 35 37 50
f 50 53 35
f 73 76 74
f 56 79 55

