# https://github.com/mikedh/trimesh
v 0.01663322 -0.02005326 -0.00600000
v 0.01663322 -0.02005326 0.00600000
v 0.01086745 -0.02005326 0.00600000
v 0.00187590 0.00248752 0.00600000
v 0.01610935 0.01994674 -0.00600000
v 0.01610935 0.01994674 0.00600000
v 0.01038327 0.01994674 -0.00600000
v 0.01038327 0.01994674 0.00600000
v 0.00187590 0.00248752 -0.00600000
v 0.01086745 -0.02005326 -0.00600000
v -0.00526145 0.01994674 -0.00600000
v -0.00526145 -0.00005406 -0.00600000
v -0.01034142 0.01994674 -0.00600000
v -0.00195470 0.00450363 -0.00600000
v -0.00147053 -0.00098115 -0.00600000
v -0.01034142 -0.02005326 -0.00600000
v -0.00526145 -0.02005326 -0.00600000
v -0.00526145 -0.00408628 -0.00600000
v -0.01034142 0.01994674 0.00600000
v -0.00526145 0.01994674 0.00600000
v -0.00195470 0.00450363 0.00600000
v -0.00526145 -0.02005326 0.00600000
v -0.01034142 -0.02005326 0.00600000
v -0.00526145 -0.00408628 0.00600000
v -0.00147053 -0.00098115 0.00600000
v -0.00526145 -0.00005406 0.00600000
f 1 2 3
f 4 5 6
f 5 7 8
f 9 1 10
f 11 12 13
f 14 9 15
f 10 15 9
f 14 7 9
f 5 9 7
f 1 3 10
f 4 1 9
f 2 4 3
f 13 12 16
f 17 16 18
f 18 16 12
f 15 18 12
f 14 15 12
f 4 9 5
f 11 19 20
f 4 2 1
f 5 8 6
f 7 21 8
f 7 14 21
f 17 22 23
f 17 23 16
f 22 17 18
f 18 24 22
f 23 19 16
f 13 16 19
f 24 18 15
f 15 25 24
f 15 3 25
f 15 10 3
f 21 4 8
f 11 13 19
f 12 20 26
f 12 11 20
f 14 12 21
f 26 21 12
f 21 26 25
f 25 4 21
f 6 8 4
f 19 23 26
f 24 26 23
f 22 24 23
f 20 19 26
f 24 25 26
f 4 25 3

