# https://github.com/mikedh/trimesh
v -0.00550816 -0.01543590 -0.00600000
v -0.00550816 0.02456410 -0.00600000
v -0.00042660 -0.01096076 -0.00600000
v -0.00042660 0.02456410 0.00600000
v -0.00550816 0.02456410 0.00600000
v -0.00042660 -0.01096076 0.00600000
v -0.00042660 0.02456410 -0.00600000
v 0.01521811 -0.01543590 0.00600000
v -0.00550816 -0.01543590 0.00600000
v 0.01521811 -0.01543590 -0.00600000
v 0.01521811 -0.01096076 -0.00600000
v 0.01521811 -0.01096076 0.00600000
f 1 2 3
f 4 5 6
f 7 2 5
f 8 6 9
f 8 10 11
f 8 11 12
f 3 7 4
f 10 1 3
f 2 9 5
f 10 3 11
f 7 3 2
f 2 1 9
f 1 10 8
f 8 9 1
f 3 4 6
f 7 5 4
f 5 9 6
f 11 3 6
f 12 6 8
f 11 6 12

