# https://github.com/mikedh/trimesh
v -0.01883077 0.02008019 -0.00600000
v -0.01883077 -0.01991981 0.00600000
v -0.01883077 0.02008019 0.00600000
v -0.01883077 -0.01991981 -0.00600000
v 0.01391122 -0.01991981 0.00600000
v 0.01903246 -0.01991981 0.00600000
v 0.01391122 0.00431323 0.00600000
v -0.01393813 0.00989167 -0.00600000
v -0.01388415 0.00868201 -0.00600000
v -0.01417149 0.01373657 -0.00600000
v -0.01407783 0.01239197 -0.00600000
v -0.01375080 0.00399097 0.00600000
v -0.01375874 0.00505300 0.00600000
v -0.01383018 0.00741836 0.00600000
v -0.01378573 0.00619599 0.00600000
v -0.00233833 -0.01991981 -0.00600000
v -0.00004123 -0.01254115 -0.00600000
v 0.00185423 -0.01991981 -0.00600000
v -0.01375874 0.00505300 -0.00600000
v -0.01378573 0.00619599 -0.00600000
v -0.01407306 0.01507959 -0.00600000
v -0.00233833 -0.01991981 0.00600000
v -0.01407306 0.01507959 0.00600000
v -0.01375080 0.00399097 -0.00600000
v -0.01383018 0.00741836 -0.00600000
v 0.01399218 0.00758029 -0.00600000
v 0.01903246 0.02008019 -0.00600000
v 0.01394614 0.00641031 -0.00600000
v -0.01399210 0.01104736 -0.00600000
v 0.00012069 -0.01254115 -0.00600000
v 0.01145061 0.02008019 -0.00600000
v 0.01407155 0.01503991 -0.00600000
v -0.01375080 -0.01991981 0.00600000
v 0.00185423 -0.01991981 0.00600000
v 0.01407155 0.01503991 0.00600000
v 0.00012069 -0.01254115 0.00600000
v -0.00004123 -0.01254115 0.00600000
v 0.01391122 0.00431323 -0.00600000
v 0.01391916 0.00532129 -0.00600000
v 0.01431444 0.01503991 -0.00600000
v 0.01425570 0.01370482 -0.00600000
v 0.01402234 0.00879472 -0.00600000
v -0.01399210 0.01104736 0.00600000
v -0.01393813 0.00989167 0.00600000
v 0.01406362 0.00996311 -0.00600000
v 0.01402234 0.00879472 0.00600000
v 0.01406362 0.00996311 0.00600000
v 0.01411283 0.01108864 -0.00600000
v 0.01411283 0.01108864 0.00600000
v 0.01425570 0.01370482 0.00600000
v -0.01427468 0.01507959 0.00600000
v 0.01418903 0.01238721 -0.00600000
v 0.01418903 0.01238721 0.00600000
v -0.01407783 0.01239197 0.00600000
v -0.01388415 0.00868201 0.00600000
v -0.01427468 0.01507959 -0.00600000
v 0.01391916 0.00532129 0.00600000
v 0.01394614 0.00641031 0.00600000
v 0.01399218 0.00758029 0.00600000
v 0.01431444 0.01503991 0.00600000
v 0.01145061 0.02008019 0.00600000
v -0.01375080 -0.01991981 -0.00600000
v 0.01903246 0.02008019 0.00600000
v -0.01092825 0.02008019 0.00600000
v -0.01417149 0.01373657 0.00600000
v 0.01903246 -0.01991981 -0.00600000
v 0.01391122 -0.01991981 -0.00600000
v -0.01092825 0.02008019 -0.00600000
f 1 2 3
f 1 4 2
f 5 6 7
f 1 8 9
f 1 10 11
f 12 13 3
f 14 3 15
f 16 17 18
f 19 13 12
f 20 13 19
f 20 15 13
f 21 22 23
f 19 12 24
f 25 15 20
f 1 9 25
f 26 27 28
f 1 29 8
f 1 11 29
f 30 31 32
f 33 12 2
f 34 35 36
f 36 37 34
f 38 39 27
f 40 27 41
f 26 42 27
f 28 27 39
f 29 43 44
f 45 46 47
f 48 47 49
f 48 45 47
f 40 41 50
f 42 26 46
f 45 42 46
f 23 51 21
f 29 44 8
f 41 52 53
f 11 43 29
f 11 54 43
f 25 14 15
f 9 14 25
f 9 55 14
f 8 55 9
f 8 44 55
f 1 56 10
f 40 35 32
f 28 39 57
f 26 58 59
f 26 28 58
f 40 50 60
f 7 57 38
f 26 59 46
f 28 57 58
f 27 31 61
f 62 4 24
f 40 60 35
f 39 38 57
f 34 16 18
f 27 61 63
f 52 49 53
f 52 48 49
f 41 53 50
f 3 2 12
f 42 45 27
f 45 48 27
f 52 27 48
f 22 37 23
f 61 36 35
f 63 7 6
f 51 23 64
f 3 51 64
f 41 27 52
f 51 3 65
f 65 3 54
f 54 3 43
f 43 3 44
f 44 3 55
f 55 3 14
f 22 34 37
f 31 27 40
f 24 1 19
f 1 20 19
f 1 25 20
f 30 18 17
f 1 24 4
f 15 3 13
f 64 23 37
f 31 40 32
f 31 30 61
f 18 30 32
f 27 66 38
f 67 38 66
f 68 17 21
f 16 21 17
f 21 56 68
f 1 68 56
f 47 63 49
f 21 16 22
f 64 68 3
f 60 50 63
f 50 53 63
f 63 46 59
f 59 58 63
f 63 57 7
f 35 60 61
f 60 63 61
f 46 63 47
f 34 22 16
f 35 34 32
f 53 49 63
f 57 63 58
f 64 37 17
f 56 21 51
f 56 51 65
f 56 65 10
f 10 65 54
f 10 54 11
f 62 33 4
f 38 67 5
f 24 12 33
f 1 3 68
f 30 36 61
f 62 24 33
f 30 17 37
f 63 6 66
f 63 66 27
f 18 32 34
f 38 5 7
f 66 6 5
f 66 5 67
f 30 37 36
f 33 2 4
f 17 68 64

