# https://github.com/mikedh/trimesh
v -0.01022686 0.01028506 0.00600000
v -0.01497981 0.01999415 0.00600000
v -0.01014114 0.00890553 0.00600000
v 0.00993903 -0.00524853 0.00600000
v 0.01497931 -0.02000585 0.00600000
v 0.00991680 -0.00463894 0.00600000
v 0.00990251 -0.00404680 0.00600000
v 0.01022477 -0.01160167 0.00600000
v 0.01015810 -0.01023008 0.00600000
v 0.01030097 -0.01298914 0.00600000
v 0.00876905 -0.02000585 0.00600000
v 0.00999300 -0.00646614 0.00600000
v 0.00996601 -0.00586131 0.00600000
v 0.01001999 -0.00706304 0.00600000
v 0.01004698 -0.00767580 0.00600000
v -0.01022210 0.01309809 0.00600000
v 0.01009936 -0.01298914 0.00600000
v -0.00881082 0.01999415 0.00600000
v -0.00990937 0.00275401 -0.00600000
v -0.00989984 0.00168721 0.00600000
v -0.00989984 0.00168721 -0.00600000
v -0.01008875 0.00770063 -0.00600000
v -0.01003478 0.00644968 0.00600000
v -0.01003478 0.00644968 -0.00600000
v 0.01497931 0.01999415 0.00600000
v 0.00987553 -0.00292286 0.00600000
v 0.00989775 -0.00347372 0.00600000
v -0.01008875 0.00770063 0.00600000
v 0.01497931 -0.02000585 -0.00600000
v 0.01497931 0.01999415 -0.00600000
v 0.00985806 0.01999415 -0.00600000
v 0.00986283 -0.00239899 0.00600000
v 0.00985806 -0.00190051 0.00600000
v -0.01042371 0.01309809 -0.00600000
v -0.01042371 0.01309809 0.00600000
v -0.01032053 0.01168364 0.00600000
v 0.00990251 -0.00404680 -0.00600000
v 0.00991680 -0.00463894 -0.00600000
v 0.00985806 -0.00190051 -0.00600000
v -0.01032053 0.01168364 -0.00600000
v -0.01022686 0.01028506 -0.00600000
v -0.01014114 0.00890553 -0.00600000
v 0.00986283 -0.00239899 -0.00600000
v 0.00987553 -0.00292286 -0.00600000
v -0.01022210 0.01309809 -0.00600000
v 0.01009936 -0.01298914 -0.00600000
v 0.00876905 -0.02000585 -0.00600000
v -0.00998080 0.00515588 0.00600000
v -0.00993635 0.00390970 0.00600000
v -0.00990937 0.00275401 0.00600000
v 0.01022477 -0.01160167 -0.00600000
v 0.01015810 -0.01023008 -0.00600000
v 0.00996601 -0.00586131 -0.00600000
v 0.00993903 -0.00524853 -0.00600000
v 0.00999300 -0.00646614 -0.00600000
v 0.00989775 -0.00347372 -0.00600000
v -0.00989984 -0.02000585 -0.00600000
v -0.01497981 -0.02000585 -0.00600000
v -0.00989984 -0.02000585 0.00600000
v -0.01497981 -0.02000585 0.00600000
v -0.00998080 0.00515588 -0.00600000
v -0.00993635 0.00390970 -0.00600000
v 0.00985806 0.01999415 0.00600000
v -0.00881082 0.01999415 -0.00600000
v 0.01007238 -0.00828064 -0.00600000
v 0.01009936 -0.00887754 0.00600000
v 0.01007238 -0.00828064 0.00600000
v -0.01497981 0.01999415 -0.00600000
v 0.01030097 -0.01298914 -0.00600000
v 0.01004698 -0.00767580 -0.00600000
v 0.01001999 -0.00706304 -0.00600000
v 0.01009936 -0.00887754 -0.00600000
f 1 2 3
f 4 5 6
f 6 5 7
f 8 5 9
f 10 5 8
f 11 5 10
f 12 5 13
f 14 5 12
f 15 5 14
f 16 17 18
f 19 20 21
f 22 23 24
f 10 17 11
f 25 26 27
f 28 2 23
f 29 30 5
f 30 31 25
f 25 32 26
f 25 33 32
f 34 35 36
f 37 38 6
f 37 7 27
f 39 32 33
f 40 36 1
f 41 3 42
f 41 1 3
f 37 6 7
f 42 28 22
f 4 6 38
f 38 37 29
f 43 30 44
f 45 46 47
f 39 30 43
f 23 2 48
f 48 2 49
f 49 2 50
f 13 5 4
f 7 5 27
f 50 2 20
f 25 27 5
f 51 52 29
f 53 54 29
f 55 53 29
f 54 38 29
f 3 2 28
f 37 56 29
f 30 29 56
f 57 58 21
f 59 20 60
f 2 35 18
f 35 16 18
f 24 23 48
f 61 49 62
f 63 25 31
f 2 18 64
f 19 50 20
f 18 46 64
f 63 33 25
f 35 2 36
f 65 66 67
f 62 19 68
f 40 68 34
f 61 62 68
f 46 69 47
f 56 44 30
f 70 71 29
f 45 47 16
f 71 55 29
f 65 70 29
f 52 72 29
f 53 12 13
f 42 3 28
f 61 48 49
f 40 1 41
f 34 45 35
f 16 35 45
f 24 48 61
f 22 28 23
f 8 9 51
f 52 51 9
f 39 31 30
f 41 68 40
f 29 47 69
f 45 34 64
f 22 68 42
f 24 68 22
f 41 42 68
f 72 65 29
f 46 45 64
f 69 51 29
f 47 29 11
f 58 68 21
f 19 21 68
f 61 68 24
f 60 20 2
f 16 11 17
f 36 2 1
f 64 34 68
f 68 58 60
f 53 55 12
f 56 37 27
f 72 52 9
f 59 60 57
f 25 5 30
f 67 5 15
f 66 5 67
f 9 5 66
f 62 49 50
f 62 50 19
f 18 17 46
f 55 71 14
f 38 54 4
f 54 53 13
f 54 13 4
f 58 57 60
f 34 36 40
f 31 33 63
f 43 44 26
f 43 26 32
f 31 39 33
f 20 59 21
f 5 11 29
f 51 69 10
f 51 10 8
f 11 16 47
f 65 72 66
f 72 9 66
f 17 10 46
f 69 46 10
f 70 65 15
f 39 43 32
f 64 68 2
f 68 60 2
f 57 21 59
f 71 70 15
f 71 15 14
f 55 14 12
f 44 56 27
f 44 27 26
f 67 15 65

