# https://github.com/mikedh/trimesh
v -0.01114625 0.01613519 -0.00600000
v -0.00938332 0.01748014 -0.00600000
v -0.00768979 0.01269569 -0.00600000
v -0.00647593 0.01372754 -0.00600000
v -0.00736743 0.01855518 -0.00600000
v -0.00509551 0.01455888 -0.00600000
v 0.00933805 -0.01748708 -0.00600000
v 0.00736227 -0.01858371 -0.00600000
v 0.00666666 -0.01375299 -0.00600000
v 0.00528623 -0.01458741 -0.00600000
v 0.01499704 0.01055024 -0.00600000
v 0.01499704 0.01055024 0.00600000
v 0.01582529 0.00821200 0.00600000
v 0.01582529 0.00821200 -0.00600000
v 0.01643453 0.00566245 -0.00600000
v 0.01643453 0.00566245 0.00600000
v 0.01047941 -0.00837164 -0.00600000
v 0.01499704 -0.01054022 -0.00600000
v 0.00978688 -0.01001735 -0.00600000
v -0.01394567 0.01267409 -0.00600000
v -0.00961776 0.01003200 -0.00600000
v -0.01498985 0.01058572 -0.00600000
v 0.00514279 -0.01936724 -0.00600000
v 0.00271355 -0.01983766 -0.00600000
v 0.00375002 -0.01517506 -0.00600000
v 0.00007608 -0.01999499 -0.00600000
v 0.00201330 -0.01552826 -0.00600000
v 0.01137553 -0.00450181 -0.00600000
v 0.01643453 -0.00563855 -0.00600000
v 0.01100536 -0.00651770 -0.00600000
v -0.00512173 0.01936030 -0.00600000
v -0.00353771 0.01514652 -0.00600000
v 0.01680007 0.00292010 0.00600000
v 0.01680007 0.00292010 -0.00600000
v -0.01579035 0.00825210 -0.00600000
v -0.01032262 0.00840017 -0.00600000
v -0.01085474 0.00656783 -0.00600000
v -0.01666179 0.00297563 -0.00600000
v -0.01633481 0.00570564 -0.00600000
v -0.01124651 0.00455194 -0.00600000
v 0.01108865 -0.01612825 -0.00600000
v 0.00788051 -0.01270726 -0.00600000
v 0.01261252 -0.01451030 -0.00600000
v -0.00184418 -0.01552826 -0.00600000
v -0.00358090 -0.01517506 0.00600000
v -0.00184418 -0.01552826 0.00600000
v 0.00007608 -0.01564548 0.00600000
v 0.00007608 -0.01564548 -0.00600000
v 0.00015474 0.02000501 0.00600000
v -0.00178711 0.01549973 0.00600000
v 0.00015474 0.01561695 0.00600000
v -0.00358090 -0.01517506 -0.00600000
v -0.00513407 -0.01458741 0.00600000
v 0.00788051 -0.01270726 0.00600000
v 0.00666666 -0.01375299 0.00600000
v 0.01108865 -0.01612825 0.00600000
v 0.01261252 -0.01451030 0.00600000
v 0.01392663 -0.01264247 0.00600000
v 0.00892932 -0.01145330 0.00600000
v 0.00790210 0.01269569 -0.00600000
v 0.00790210 0.01269569 0.00600000
v 0.00670059 0.01372754 0.00600000
v 0.00670059 0.01372754 -0.00600000
v 0.00532479 0.01455888 0.00600000
v 0.00532479 0.01455888 -0.00600000
v 0.00892932 0.01146487 -0.00600000
v 0.00892932 0.01146487 0.00600000
v 0.01159763 0.00237102 -0.00600000
v 0.01167167 0.00002506 -0.00600000
v 0.01167167 0.00002506 0.00600000
v 0.00379321 0.01514652 0.00600000
v 0.00518598 0.01936030 -0.00600000
v 0.00278295 0.01984306 0.00600000
v 0.00518598 0.01936030 0.00600000
v 0.00278295 0.01984306 -0.00600000
v 0.00015474 0.02000501 -0.00600000
v 0.01582529 -0.00820197 -0.00600000
v 0.01582529 -0.00820197 0.00600000
v 0.01499704 -0.01054022 0.00600000
v 0.01643453 -0.00563855 0.00600000
v 0.00978688 0.01003200 -0.00600000
v 0.01047941 0.00840017 0.00600000
v 0.00978688 0.01003200 0.00600000
v 0.00206883 0.01549973 -0.00600000
v 0.00015474 0.01561695 -0.00600000
v -0.01265624 0.01452032 -0.00600000
v -0.00178711 0.01549973 -0.00600000
v -0.00261382 0.01984306 -0.00600000
v -0.01676976 0.00006362 -0.00600000
v -0.01148095 0.00237102 -0.00600000
v 0.00933805 0.01748014 -0.00600000
v 0.00736227 0.01855518 -0.00600000
v 0.00736227 0.01855518 0.00600000
v 0.01392663 0.01265250 -0.00600000
v 0.01392663 0.01265250 0.00600000
v -0.00873860 0.01146487 -0.00600000
v -0.01155961 0.00002506 -0.00600000
v -0.01148095 -0.00232089 -0.00600000
v 0.00201330 -0.01552826 0.00600000
v 0.00375002 -0.01517506 0.00600000
v -0.00261382 0.01984306 0.00600000
v 0.00528623 -0.01458741 0.00600000
v -0.00938332 0.01748014 0.00600000
v -0.00736743 0.01855518 0.00600000
v -0.00512173 0.01936030 0.00600000
v 0.01392663 -0.01264247 -0.00600000
v -0.00961776 -0.01001735 -0.00600000
v -0.01499448 -0.01052171 -0.00600000
v -0.01032262 -0.00837164 -0.00600000
v -0.00768979 0.01269569 0.00600000
v 0.01047941 0.00840017 -0.00600000
v 0.01100536 0.00656783 -0.00600000
v 0.01100536 0.00656783 0.00600000
v 0.01159763 0.00237102 0.00600000
v 0.01137553 0.00455194 -0.00600000
v 0.01100536 -0.00651770 0.00600000
v 0.01137553 -0.00450181 0.00600000
v 0.01159763 -0.00232089 -0.00600000
v 0.00892932 -0.01145330 -0.00600000
v 0.00978688 -0.01001735 0.00600000
v 0.01137553 0.00455194 0.00600000
v -0.01579035 -0.00816341 -0.00600000
v -0.01396263 -0.01263785 -0.00600000
v -0.00873860 -0.01145330 -0.00600000
v -0.01269634 -0.01451030 -0.00600000
v -0.01124651 -0.00450181 -0.00600000
v -0.01666179 -0.00286998 -0.00600000
v -0.01085474 -0.00651770 -0.00600000
v -0.01633481 -0.00561232 -0.00600000
v -0.00771138 -0.01270726 -0.00600000
v -0.00650987 -0.01375299 -0.00600000
v -0.00940491 -0.01748708 -0.00600000
v 0.00514279 -0.01936724 0.00600000
v 0.00271355 -0.01983766 0.00600000
v 0.00736227 -0.01858371 0.00600000
v 0.01159763 -0.00232089 0.00600000
v 0.00933805 -0.01748708 0.00600000
v 0.00007608 -0.01999499 0.00600000
v 0.00379321 0.01514652 -0.00600000
v -0.01394567 0.01267409 0.00600000
v -0.01265624 0.01452032 0.00600000
v -0.00353771 0.01514652 0.00600000
v -0.01114625 0.01613519 0.00600000
v -0.01269634 -0.01451030 0.00600000
v -0.01116784 -0.01612825 0.00600000
v -0.00771138 -0.01270726 0.00600000
v -0.00940491 -0.01748708 0.00600000
v -0.00873860 -0.01145330 0.00600000
v -0.00961776 -0.01001735 0.00600000
v -0.01396263 -0.01263785 0.00600000
v 0.01261252 0.01452032 -0.00600000
v 0.01108865 0.01613519 -0.00600000
v -0.00513407 -0.01458741 -0.00600000
v -0.00740753 -0.01858371 -0.00600000
v -0.01116784 -0.01612825 -0.00600000
v -0.00516492 -0.01936724 -0.00600000
v -0.01032262 0.00840017 0.00600000
v -0.01085474 0.00656783 0.00600000
v -0.01124651 0.00455194 0.00600000
v -0.01148095 0.00237102 0.00600000
v -0.00267089 -0.01983766 -0.00600000
v -0.01032262 -0.00837164 0.00600000
v -0.01499448 -0.01052171 0.00600000
v -0.01124651 -0.00450181 0.00600000
v -0.01148095 -0.00232089 0.00600000
v -0.01666179 -0.00286998 0.00600000
v -0.01085474 -0.00651770 0.00600000
v -0.01633481 -0.00561232 0.00600000
v 0.01680007 -0.00290854 -0.00600000
v -0.00509551 0.01455888 0.00600000
v -0.00647593 0.01372754 0.00600000
v 0.01692192 -0.00001504 -0.00600000
v -0.00873860 0.01146487 0.00600000
v -0.01676976 0.00006362 0.00600000
v -0.01666179 0.00297563 0.00600000
v -0.01579035 0.00825210 0.00600000
v -0.01498985 0.01058572 0.00600000
v -0.00267089 -0.01983766 0.00600000
v -0.00650987 -0.01375299 0.00600000
v -0.00740753 -0.01858371 0.00600000
v -0.00961776 0.01003200 0.00600000
v -0.01155961 0.00002506 0.00600000
v -0.01579035 -0.00816341 0.00600000
v -0.01633481 0.00570564 0.00600000
v 0.01692192 -0.00001504 0.00600000
v 0.01261252 0.01452032 0.00600000
v 0.01108865 0.01613519 0.00600000
v 0.00206883 0.01549973 0.00600000
v 0.01047941 -0.00837164 0.00600000
v 0.00933805 0.01748014 0.00600000
v -0.00516492 -0.01936724 0.00600000
v 0.01680007 -0.00290854 0.00600000
f 1 2 3
f 4 5 6
f 7 8 9
f 10 9 8
f 11 12 13
f 11 13 14
f 15 14 13
f 15 13 16
f 17 18 19
f 20 21 22
f 23 10 8
f 24 25 23
f 26 27 24
f 10 23 25
f 28 29 30
f 6 31 32
f 33 34 15
f 33 15 16
f 35 22 36
f 36 37 35
f 38 39 40
f 41 7 9
f 9 42 41
f 43 41 42
f 44 45 46
f 46 47 44
f 48 44 47
f 49 50 51
f 52 53 45
f 54 55 56
f 57 54 56
f 58 59 57
f 60 61 62
f 60 62 63
f 63 62 64
f 63 64 65
f 60 66 67
f 60 67 61
f 68 69 70
f 65 64 71
f 72 73 74
f 75 76 49
f 75 49 73
f 77 78 79
f 77 79 18
f 29 80 78
f 81 82 83
f 84 51 85
f 1 3 86
f 76 87 88
f 88 32 31
f 89 38 90
f 91 92 93
f 94 95 12
f 92 74 93
f 72 75 73
f 96 86 3
f 97 98 89
f 39 35 37
f 21 20 96
f 4 3 2
f 5 4 2
f 31 6 5
f 40 90 38
f 25 99 100
f 88 31 101
f 10 25 100
f 10 100 102
f 9 10 102
f 76 88 101
f 5 103 104
f 105 101 31
f 18 79 58
f 18 58 106
f 107 108 109
f 4 110 3
f 76 101 49
f 27 48 47
f 27 47 99
f 25 27 99
f 83 67 81
f 66 81 67
f 106 58 43
f 111 112 113
f 111 113 82
f 81 111 82
f 68 70 114
f 115 68 114
f 28 116 117
f 118 28 117
f 19 119 59
f 19 59 120
f 17 19 120
f 115 114 121
f 112 115 121
f 112 121 113
f 122 109 108
f 123 124 125
f 108 107 123
f 126 127 98
f 128 129 126
f 127 89 98
f 109 122 128
f 37 40 39
f 43 57 56
f 43 56 41
f 58 57 43
f 124 123 107
f 130 125 124
f 127 126 129
f 129 128 122
f 131 132 130
f 23 133 134
f 23 134 24
f 8 135 133
f 118 117 136
f 8 133 23
f 7 137 135
f 7 135 8
f 41 56 137
f 136 70 118
f 69 118 70
f 31 5 104
f 31 104 105
f 5 2 103
f 41 137 7
f 24 134 138
f 24 138 26
f 92 65 72
f 75 72 139
f 91 65 92
f 20 140 141
f 51 50 85
f 87 50 142
f 2 1 143
f 2 143 103
f 144 145 146
f 145 147 146
f 148 149 150
f 150 144 148
f 146 148 144
f 84 75 139
f 85 76 84
f 151 60 152
f 153 154 131
f 125 130 155
f 154 153 156
f 36 157 158
f 36 158 37
f 37 158 159
f 37 159 40
f 40 159 160
f 52 44 161
f 26 44 48
f 48 27 26
f 132 131 154
f 155 130 132
f 161 156 52
f 52 156 153
f 26 161 44
f 63 152 60
f 149 162 163
f 163 150 149
f 139 72 65
f 164 165 166
f 11 81 94
f 14 111 11
f 15 112 14
f 119 43 42
f 34 115 15
f 151 94 66
f 65 91 63
f 167 164 168
f 77 30 29
f 29 28 169
f 106 19 18
f 32 170 6
f 6 171 4
f 4 171 110
f 118 69 172
f 25 24 27
f 66 94 81
f 112 15 115
f 81 11 111
f 1 86 141
f 1 141 143
f 6 170 171
f 86 20 141
f 87 85 50
f 3 110 173
f 87 142 32
f 32 142 170
f 128 162 109
f 109 162 149
f 109 149 107
f 107 149 148
f 107 148 124
f 38 174 175
f 22 35 176
f 22 176 177
f 134 99 138
f 178 138 46
f 111 14 112
f 76 85 87
f 32 88 87
f 179 146 147
f 147 180 179
f 128 167 162
f 173 181 21
f 173 21 96
f 20 22 177
f 20 177 140
f 21 157 36
f 43 119 106
f 172 169 118
f 47 46 138
f 160 182 97
f 168 166 129
f 127 129 166
f 129 122 168
f 21 181 157
f 3 173 96
f 40 160 90
f 160 97 90
f 44 52 45
f 141 140 173
f 181 173 140
f 181 177 157
f 157 176 158
f 168 183 167
f 162 167 183
f 60 151 66
f 131 146 179
f 105 104 170
f 171 170 104
f 104 103 171
f 110 171 103
f 133 135 102
f 102 100 133
f 133 100 134
f 30 77 17
f 118 169 28
f 18 17 77
f 175 174 160
f 182 160 174
f 165 182 174
f 174 166 165
f 131 130 146
f 35 39 184
f 35 184 176
f 39 38 175
f 39 175 184
f 38 89 174
f 166 174 127
f 89 127 174
f 19 106 119
f 13 12 82
f 121 114 33
f 108 123 150
f 98 97 165
f 182 165 97
f 168 122 183
f 122 108 163
f 122 163 183
f 176 157 177
f 185 33 114
f 121 16 113
f 33 16 121
f 13 113 16
f 186 187 61
f 186 67 95
f 95 83 12
f 160 159 175
f 34 172 68
f 115 34 68
f 69 68 172
f 53 179 180
f 159 158 184
f 184 175 159
f 177 181 140
f 183 163 162
f 166 168 164
f 184 158 176
f 152 63 91
f 75 84 76
f 103 143 110
f 143 141 110
f 173 110 141
f 49 188 73
f 142 50 101
f 49 101 50
f 170 142 105
f 101 105 142
f 58 79 120
f 79 78 189
f 189 120 79
f 188 71 73
f 71 64 74
f 61 67 186
f 114 70 185
f 93 74 64
f 190 93 64
f 113 13 82
f 73 71 74
f 62 61 187
f 64 62 190
f 187 190 62
f 117 116 80
f 125 155 144
f 144 155 145
f 132 147 145
f 51 188 49
f 126 164 167
f 126 167 128
f 108 150 163
f 123 125 150
f 124 148 146
f 124 146 130
f 98 165 164
f 98 164 126
f 135 137 55
f 54 57 59
f 137 56 55
f 55 102 135
f 47 138 99
f 156 191 180
f 156 180 154
f 178 191 156
f 178 156 161
f 153 131 179
f 153 179 53
f 52 153 53
f 180 191 53
f 45 53 191
f 191 178 45
f 46 45 178
f 132 145 155
f 154 180 147
f 154 147 132
f 99 134 100
f 138 178 26
f 125 144 150
f 116 189 78
f 185 136 192
f 161 26 178
f 83 95 67
f 82 12 83
f 80 116 78
f 136 117 192
f 70 136 185
f 80 192 117
f 120 59 58
f 9 102 55
f 42 9 55
f 42 55 54
f 119 42 54
f 119 54 59
f 29 78 77
f 30 189 116
f 28 30 116
f 90 97 89
f 86 96 20
f 169 192 80
f 169 80 29
f 169 172 192
f 185 192 172
f 17 120 189
f 30 17 189
f 33 172 34
f 91 93 190
f 92 72 74
f 151 152 187
f 151 187 186
f 187 152 91
f 187 91 190
f 36 22 21
f 65 71 139
f 139 71 188
f 139 188 84
f 84 188 51
f 94 12 11
f 151 186 95
f 151 95 94
f 33 185 172

