# https://github.com/mikedh/trimesh
v 0.01155479 -0.00444834 0.00600000
v 0.01030067 -0.00555006 0.00600000
v 0.01030067 -0.00555006 -0.00600000
v -0.00404866 -0.00832023 -0.00600000
v -0.00404866 -0.00832023 0.00600000
v -0.00404866 -0.02388399 0.00600000
v 0.00879573 -0.00649144 -0.00600000
v 0.00879573 -0.00649144 0.00600000
v 0.00703996 -0.00727090 0.00600000
v 0.00703996 -0.00727090 -0.00600000
v 0.00500004 -0.00320692 -0.00600000
v 0.00498734 -0.00785351 -0.00600000
v 0.00381419 -0.00356093 -0.00600000
v 0.00829885 -0.00060978 -0.00600000
v 0.01155479 -0.00444834 -0.00600000
v 0.00767972 -0.00144163 -0.00600000
v 0.00934659 0.00273347 0.00600000
v 0.00913228 0.00146983 0.00600000
v 0.01448054 0.00113804 0.00600000
v 0.00877351 0.00034906 0.00600000
v 0.00829885 -0.00060978 0.00600000
v 0.01343755 -0.00188613 0.00600000
v 0.00250133 -0.00380858 0.00600000
v 0.00103608 -0.00395621 0.00600000
v 0.00264897 -0.00820275 0.00600000
v 0.00767972 -0.00144163 0.00600000
v 0.00691773 -0.00214965 0.00600000
v 0.00720030 0.00986607 -0.00600000
v 0.01143414 0.01305057 -0.00600000
v 0.00843220 0.00840557 -0.00600000
v 0.00544454 0.01091857 -0.00600000
v 0.00872906 0.01471744 -0.00600000
v 0.00313315 0.01155039 -0.00600000
v 0.00519371 0.01575724 -0.00600000
v 0.00498734 -0.00785351 0.00600000
v 0.01018002 0.01396497 -0.00600000
v 0.01018002 0.01396497 0.00600000
v 0.01143414 0.01305057 0.00600000
v 0.01405508 -0.00041611 0.00600000
v 0.01248664 0.01198060 0.00600000
v 0.01333436 0.01075665 -0.00600000
v 0.01248664 0.01198060 -0.00600000
v 0.01333436 0.01075665 0.00600000
v 0.00872906 0.01471744 0.00600000
v 0.00707965 0.01530957 -0.00600000
v 0.00519371 0.01575724 0.00600000
v 0.00707965 0.01530957 0.00600000
v 0.00603508 -0.00273702 0.00600000
v 0.01444561 0.00784043 0.00600000
v 0.01397413 0.00938188 0.00600000
v 0.00917197 0.00649582 0.00600000
v 0.01444561 0.00784043 -0.00600000
v 0.01397413 0.00938188 -0.00600000
v 0.01472818 0.00617356 -0.00600000
v 0.01482184 0.00438128 -0.00600000
v 0.00941803 0.00413998 -0.00600000
v 0.01448054 0.00113804 -0.00600000
v 0.00934659 0.00273347 -0.00600000
v 0.01473612 0.00273823 -0.00600000
v 0.01405508 -0.00041611 -0.00600000
v 0.00381419 -0.00356093 0.00600000
v 0.00500004 -0.00320692 0.00600000
v 0.00941803 0.00413998 0.00600000
v 0.01473612 0.00273823 0.00600000
v 0.00691773 -0.00214965 -0.00600000
v 0.00913228 0.00146983 -0.00600000
v 0.00917197 0.00649582 -0.00600000
v 0.00026456 0.01176153 0.00600000
v 0.00313315 0.01155039 0.00600000
v 0.00074874 0.01611602 0.00600000
v 0.00603508 -0.00273702 -0.00600000
v -0.00913021 -0.02388399 -0.00600000
v -0.00404866 -0.00400542 -0.00600000
v -0.00404866 -0.02388399 -0.00600000
v 0.00720030 0.00986607 0.00600000
v 0.01343755 -0.00188613 -0.00600000
v 0.01260412 -0.00323073 0.00600000
v 0.01260412 -0.00323073 -0.00600000
v 0.00074874 0.01611602 -0.00600000
v 0.00308394 0.01602552 -0.00600000
v 0.00264897 -0.00820275 -0.00600000
v 0.00250133 -0.00380858 -0.00600000
v 0.00877351 0.00034906 -0.00600000
v 0.00103608 -0.00395621 -0.00600000
v -0.00913021 0.01611602 0.00600000
v 0.00843220 0.00840557 0.00600000
v -0.00913021 0.01611602 -0.00600000
v -0.00404866 0.01176153 -0.00600000
v -0.00058158 -0.00400542 -0.00600000
v 0.00002326 -0.00832023 -0.00600000
v 0.01472818 0.00617356 0.00600000
v -0.00404866 0.01176153 0.00600000
v -0.00404866 -0.00400542 0.00600000
v 0.00544454 0.01091857 0.00600000
v 0.00026456 0.01176153 -0.00600000
v -0.00913021 -0.02388399 0.00600000
v 0.00308394 0.01602552 0.00600000
v -0.00058158 -0.00400542 0.00600000
v 0.00002326 -0.00832023 0.00600000
v 0.01482184 0.00438128 0.00600000
f 1 2 3
f 4 5 6
f 7 8 9
f 7 9 10
f 3 2 8
f 11 12 13
f 14 15 16
f 17 18 19
f 20 21 22
f 23 24 25
f 26 27 2
f 28 29 30
f 31 32 28
f 33 34 31
f 3 8 7
f 12 35 25
f 29 36 37
f 29 37 38
f 19 18 39
f 40 41 42
f 41 40 43
f 36 44 37
f 36 32 44
f 45 46 47
f 48 8 27
f 42 29 38
f 49 50 51
f 50 52 53
f 54 55 56
f 57 58 59
f 55 59 56
f 36 28 32
f 19 39 60
f 11 61 62
f 56 17 63
f 63 17 64
f 3 7 65
f 60 66 57
f 58 56 59
f 60 39 22
f 53 43 50
f 52 50 49
f 56 58 17
f 56 67 54
f 41 53 30
f 68 69 70
f 11 71 10
f 61 35 62
f 12 11 10
f 4 72 73
f 57 19 60
f 74 72 4
f 44 75 37
f 37 75 38
f 65 48 27
f 67 63 51
f 65 71 48
f 71 62 48
f 76 22 77
f 78 1 15
f 33 79 80
f 81 82 12
f 78 77 1
f 15 1 3
f 20 18 83
f 82 84 24
f 79 85 70
f 83 21 20
f 58 18 17
f 30 67 86
f 60 22 76
f 79 87 85
f 87 88 73
f 4 89 90
f 84 90 89
f 82 81 84
f 51 86 67
f 67 56 63
f 76 77 78
f 91 55 54
f 82 24 23
f 92 93 73
f 91 49 51
f 25 35 23
f 71 65 7
f 87 73 72
f 75 44 94
f 59 64 19
f 13 12 82
f 65 16 3
f 7 10 71
f 90 84 81
f 33 95 79
f 95 88 79
f 87 79 88
f 73 89 4
f 89 73 93
f 8 48 9
f 85 96 93
f 21 26 1
f 92 68 70
f 70 85 92
f 97 70 69
f 93 92 85
f 24 98 99
f 5 99 98
f 97 69 46
f 50 43 86
f 77 21 1
f 77 22 21
f 20 39 18
f 99 25 24
f 70 97 79
f 11 13 61
f 66 83 18
f 13 23 61
f 83 14 21
f 95 92 88
f 14 26 21
f 71 11 62
f 14 16 26
f 16 27 26
f 80 79 97
f 92 73 88
f 16 65 27
f 84 98 24
f 84 89 98
f 89 93 98
f 53 41 43
f 83 76 14
f 2 1 26
f 75 86 38
f 40 38 86
f 28 30 86
f 28 86 75
f 28 75 94
f 31 94 69
f 55 64 59
f 55 100 64
f 59 19 57
f 31 69 33
f 58 66 18
f 47 94 44
f 91 100 55
f 45 32 31
f 49 91 52
f 28 94 31
f 34 45 31
f 80 34 33
f 41 30 42
f 67 30 53
f 54 52 91
f 12 25 81
f 10 9 35
f 100 91 63
f 51 63 91
f 58 57 66
f 64 100 63
f 42 30 29
f 62 9 48
f 40 86 43
f 98 93 5
f 9 62 35
f 61 23 35
f 6 5 96
f 5 93 96
f 2 27 8
f 42 38 40
f 32 47 44
f 34 80 97
f 34 97 46
f 32 45 47
f 39 20 22
f 86 51 50
f 45 34 46
f 52 54 67
f 87 72 85
f 95 33 68
f 69 68 33
f 95 68 92
f 81 25 99
f 81 99 90
f 96 85 72
f 15 14 78
f 74 96 72
f 90 5 4
f 90 99 5
f 4 6 74
f 13 82 23
f 74 6 96
f 47 46 94
f 69 94 46
f 3 16 15
f 60 83 66
f 10 35 12
f 19 64 17
f 60 76 83
f 53 52 67
f 78 14 76
f 29 28 36

