# https://github.com/mikedh/trimesh
v -0.01393702 0.00449334 -0.00600000
v -0.01402383 0.00218492 0.00600000
v -0.01393702 0.00449334 0.00600000
v 0.00799542 0.00734096 0.00600000
v 0.01181508 0.00864434 0.00600000
v 0.00757726 0.00879350 0.00600000
v 0.00702950 0.01008710 0.00600000
v 0.01115972 0.01049792 0.00600000
v 0.01031118 0.01216444 0.00600000
v 0.00828886 0.00574292 0.00600000
v 0.01229803 0.00662325 0.00600000
v -0.01261286 0.01052604 -0.00600000
v -0.01324743 0.00867613 0.00600000
v -0.01261286 0.01052604 0.00600000
v -0.01324743 0.00867613 -0.00600000
v -0.01178388 0.01218155 0.00600000
v -0.01178388 0.01218155 -0.00600000
v -0.01076294 0.01364510 -0.00600000
v -0.01076294 0.01364510 0.00600000
v -0.00956471 0.01492525 -0.00600000
v -0.00956471 0.01492525 0.00600000
v -0.01402383 0.00218492 -0.00600000
v -0.01393702 -0.00014062 0.00600000
v -0.01393702 -0.00014062 -0.00600000
v 0.00338102 0.01748187 0.00600000
v 0.00147731 0.01786457 0.00600000
v 0.00227694 0.01414151 0.00600000
v -0.01367903 0.00665748 -0.00600000
v -0.01367903 0.00665748 0.00600000
v -0.00476936 0.01367567 0.00600000
v -0.00353323 0.01414151 0.00600000
v -0.00479015 0.01748187 0.00600000
v -0.00657037 0.01684363 0.00600000
v -0.00214671 0.01442150 -0.00600000
v -0.00353323 0.01414151 -0.00600000
v -0.00214671 0.01442150 0.00600000
v -0.00060736 0.01451443 -0.00600000
v -0.00060736 0.01451443 0.00600000
v 0.00091121 0.01442150 -0.00600000
v -0.00586244 0.01301664 0.00600000
v -0.00280207 0.01786457 0.00600000
v -0.00682591 0.01219867 -0.00600000
v -0.00765734 0.01122297 0.00600000
v -0.00765734 0.01122297 -0.00600000
v 0.00094545 -0.01362190 -0.00600000
v 0.00094545 -0.01362190 0.00600000
v 0.00068991 -0.01364268 0.00600000
v 0.00068991 -0.01364268 -0.00600000
v 0.00042092 -0.01366347 0.00600000
v 0.00042092 -0.01366347 -0.00600000
v 0.00846494 0.00401405 0.00600000
v 0.01258781 0.00444932 0.00600000
v 0.00594254 -0.01218036 -0.00600000
v 0.00467218 -0.01278436 -0.00600000
v 0.00346050 -0.00942933 -0.00600000
v -0.00060736 0.01799296 0.00600000
v 0.00091121 0.01442150 0.00600000
v 0.00926823 0.01364510 0.00600000
v 0.00806023 0.01492525 0.00600000
v 0.00553539 0.01219867 0.00600000
v 0.00510745 0.01684363 0.00600000
v 0.00349229 0.01367567 0.00600000
v 0.00667370 0.01599143 0.00600000
v 0.00458292 0.01301664 0.00600000
v -0.00989361 0.00215435 0.00600000
v -0.00983126 0.00401405 0.00600000
v 0.01268440 0.00212256 0.00600000
v 0.00852362 0.00215435 0.00600000
v -0.00682591 0.01219867 0.00600000
v -0.00586244 0.01301664 -0.00600000
v -0.00476936 0.01367567 -0.00600000
v -0.00816719 0.01599143 -0.00600000
v -0.00816719 0.01599143 0.00600000
v -0.00835426 0.01008710 0.00600000
v -0.00835426 0.01008710 -0.00600000
v -0.00964419 -0.00143422 -0.00600000
v -0.00964419 -0.00143422 0.00600000
v -0.00933362 -0.00303226 0.00600000
v 0.00227694 0.01414151 -0.00600000
v -0.00657037 0.01684363 -0.00600000
v -0.00479015 0.01748187 -0.00600000
v -0.00891303 0.00879350 0.00600000
v -0.00964419 0.00574292 0.00600000
v -0.00933362 0.00734096 0.00600000
v -0.00983126 0.00029465 0.00600000
v 0.00846494 0.00401405 -0.00600000
v 0.00852362 0.00215435 -0.00600000
v 0.00846494 0.00029465 0.00600000
v 0.00846494 0.00029465 -0.00600000
v 0.01268440 0.00212256 -0.00600000
v 0.01258781 0.00444932 -0.00600000
v -0.00983126 0.00029465 -0.00600000
v -0.00835426 -0.00580652 -0.00600000
v -0.00835426 -0.00580652 0.00600000
v -0.00765734 -0.00694484 0.00600000
v -0.00891303 -0.00450192 -0.00600000
v -0.00891303 -0.00450192 0.00600000
v -0.00933362 -0.00303226 -0.00600000
v -0.00589056 -0.00876785 -0.00600000
v -0.00684303 -0.00793888 0.00600000
v -0.00589056 -0.00876785 0.00600000
v -0.00684303 -0.00793888 -0.00600000
v -0.00765734 -0.00694484 -0.00600000
v -0.00066971 -0.01371604 -0.00600000
v -0.00066971 -0.01371604 0.00600000
v -0.00284730 -0.01359133 0.00600000
v -0.00041417 -0.01371237 -0.00600000
v -0.00041417 -0.01371237 0.00600000
v -0.00284730 -0.01359133 -0.00600000
v -0.00060736 0.01799296 -0.00600000
v -0.00280207 0.01786457 -0.00600000
v 0.00338102 0.01748187 -0.00600000
v 0.00702950 0.01008710 -0.00600000
v 0.00634969 0.01122297 0.00600000
v 0.00224271 -0.00989517 -0.00600000
v 0.00147731 0.01786457 -0.00600000
v 0.01262572 0.00032522 0.00600000
v 0.00757726 0.00879350 -0.00600000
v 0.00799542 0.00734096 -0.00600000
v 0.00828886 0.00574292 -0.00600000
v 0.00383342 -0.01837446 -0.00600000
v 0.00509278 -0.01970229 -0.00600000
v 0.00383342 -0.01837446 0.00600000
v 0.00908850 -0.00960539 -0.00600000
v 0.00815070 -0.01057864 0.00600000
v 0.00815070 -0.01057864 -0.00600000
v 0.00757726 -0.00450192 -0.00600000
v 0.00702950 -0.00580652 -0.00600000
v 0.00702950 -0.00580652 0.00600000
v 0.00828886 -0.00143422 0.00600000
v 0.00828886 -0.00143422 -0.00600000
v 0.00799542 -0.00303226 0.00600000
v 0.00710164 -0.01144553 0.00600000
v 0.00710164 -0.01144553 -0.00600000
v 0.00594254 -0.01218036 0.00600000
v 0.00467218 -0.01278436 0.00600000
v 0.00455480 -0.00876785 -0.00600000
v 0.00346050 -0.00942933 0.00600000
v 0.00455480 -0.00876785 0.00600000
v 0.01175272 -0.00453983 -0.00600000
v 0.01124531 -0.00596914 0.00600000
v 0.01124531 -0.00596914 -0.00600000
v 0.00534832 -0.01403639 0.00600000
v 0.00534832 -0.01403639 -0.00600000
v -0.01079350 -0.00936819 0.00600000
v -0.01179733 -0.00788386 0.00600000
v -0.01079350 -0.00936819 -0.00600000
v 0.00642917 -0.02091396 -0.00600000
v 0.00642917 -0.02091396 0.00600000
v 0.00908850 -0.00960539 0.00600000
v 0.00509278 -0.01970229 0.00600000
v -0.00660094 -0.01259729 0.00600000
v -0.00818553 -0.01172797 0.00600000
v -0.00660094 -0.01259729 -0.00600000
v -0.00818553 -0.01172797 -0.00600000
v -0.00933362 0.00734096 -0.00600000
v -0.00891303 0.00879350 -0.00600000
v 0.01262572 0.00032522 -0.00600000
v 0.01244965 -0.00138286 0.00600000
v 0.01215621 -0.00300169 -0.00600000
v 0.01215621 -0.00300169 0.00600000
v 0.01063519 -0.00728719 0.00600000
v 0.01063519 -0.00728719 -0.00600000
v -0.00482438 -0.01321841 0.00600000
v -0.00482438 -0.01321841 -0.00600000
v 0.00757726 -0.00450192 0.00600000
v 0.00224271 -0.00989517 0.00600000
v -0.00958305 -0.01065078 0.00600000
v -0.00958305 -0.01065078 -0.00600000
v 0.00784014 -0.02200704 0.00600000
v 0.00784014 -0.02200704 -0.00600000
v 0.01038699 -0.01899558 0.00600000
v 0.00799542 -0.00303226 -0.00600000
v -0.01179733 -0.00788386 -0.00600000
v 0.00551705 -0.00793888 -0.00600000
v 0.01175272 -0.00453983 0.00600000
v 0.00991748 -0.00850865 0.00600000
v 0.01031118 0.01216444 -0.00600000
v 0.01115972 0.01049792 -0.00600000
v 0.00634969 -0.00694484 0.00600000
v 0.00634969 -0.00694484 -0.00600000
v 0.00551705 -0.00793888 0.00600000
v 0.01244965 -0.00138286 -0.00600000
v -0.00964419 0.00574292 -0.00600000
v -0.00983126 0.00401405 -0.00600000
v 0.00991748 -0.00850865 -0.00600000
v 0.00086597 -0.01017516 -0.00600000
v -0.00066971 -0.01026809 0.00600000
v 0.00086597 -0.01017516 0.00600000
v -0.00066971 -0.01026809 -0.00600000
v -0.00219073 -0.01017516 0.00600000
v -0.00219073 -0.01017516 -0.00600000
v 0.00926823 0.01364510 -0.00600000
v 0.00634969 0.01122297 -0.00600000
v 0.01229803 0.00662325 -0.00600000
v 0.01181508 0.00864434 -0.00600000
v 0.00173530 -0.01533732 0.00600000
v 0.00269877 -0.01692069 0.00600000
v -0.00989361 0.00215435 -0.00600000
v 0.00703195 -0.01623110 0.00600000
v 0.00613573 -0.01518571 0.00600000
v -0.01261531 -0.00620634 -0.00600000
v -0.01367903 -0.00231455 0.00600000
v 0.00805411 -0.01721413 0.00600000
v -0.00356747 -0.00989517 0.00600000
v -0.00356747 -0.00989517 -0.00600000
v 0.00173530 -0.01533732 -0.00600000
v 0.00269877 -0.01692069 -0.00600000
v -0.01324743 -0.00433686 -0.00600000
v 0.00917164 -0.01813604 -0.00600000
v 0.00805411 -0.01721413 -0.00600000
v -0.01367903 -0.00231455 -0.00600000
v -0.01324743 -0.00433686 0.00600000
v 0.00613573 -0.01518571 -0.00600000
v 0.01038699 -0.01899558 -0.00600000
v 0.00917164 -0.01813604 0.00600000
v 0.00013848 -0.01368425 -0.00600000
v -0.00014518 -0.01370137 -0.00600000
v 0.00703195 -0.01623110 -0.00600000
v -0.00479992 -0.00942933 -0.00600000
v -0.00479992 -0.00942933 0.00600000
v 0.00013848 -0.01368425 0.00600000
v -0.01261531 -0.00620634 0.00600000
v 0.00806023 0.01492525 -0.00600000
v 0.00667370 0.01599143 -0.00600000
v -0.00014518 -0.01370137 0.00600000
v 0.00553539 0.01219867 -0.00600000
v 0.00458292 0.01301664 -0.00600000
v 0.00349229 0.01367567 -0.00600000
v 0.00510745 0.01684363 -0.00600000
f 1 2 3
f 4 5 6
f 7 6 8
f 8 9 7
f 4 10 11
f 11 5 4
f 8 6 5
f 12 13 14
f 12 15 13
f 12 14 16
f 17 12 16
f 18 16 19
f 18 17 16
f 20 19 21
f 22 23 2
f 22 24 23
f 25 26 27
f 1 22 2
f 28 3 29
f 28 1 3
f 30 31 32
f 32 33 30
f 34 31 35
f 34 36 31
f 37 36 34
f 37 38 36
f 39 38 37
f 40 30 33
f 41 32 31
f 42 43 44
f 45 46 47
f 48 49 50
f 10 51 52
f 53 54 55
f 15 29 13
f 15 28 29
f 56 41 36
f 31 36 41
f 36 38 56
f 26 56 57
f 38 57 56
f 57 27 26
f 58 59 60
f 61 62 63
f 63 64 59
f 64 63 62
f 61 25 62
f 27 62 25
f 65 66 2
f 52 11 10
f 67 52 51
f 51 68 67
f 42 69 43
f 70 69 42
f 70 40 69
f 71 40 70
f 71 30 40
f 35 30 71
f 35 31 30
f 20 18 19
f 72 21 73
f 72 20 21
f 44 74 75
f 44 43 74
f 76 77 78
f 27 57 79
f 39 79 57
f 80 73 33
f 80 72 73
f 81 33 32
f 82 74 14
f 14 13 82
f 83 84 29
f 77 85 23
f 2 23 85
f 85 65 2
f 86 87 68
f 87 88 68
f 87 89 88
f 52 90 91
f 39 57 38
f 92 77 76
f 92 85 77
f 93 94 95
f 96 94 93
f 96 97 94
f 98 97 96
f 98 78 97
f 99 100 101
f 99 102 100
f 103 100 102
f 103 95 100
f 93 95 103
f 104 105 106
f 107 108 105
f 104 106 109
f 41 110 111
f 3 2 66
f 84 82 13
f 73 21 69
f 69 40 73
f 33 73 40
f 13 29 84
f 43 69 19
f 19 16 43
f 16 14 74
f 74 43 16
f 25 112 26
f 113 7 114
f 81 80 33
f 111 81 41
f 32 41 81
f 115 55 54
f 41 56 110
f 56 116 110
f 56 26 116
f 116 26 112
f 52 67 90
f 90 67 117
f 113 118 6
f 118 4 6
f 118 119 4
f 119 10 4
f 119 120 10
f 120 51 10
f 120 86 51
f 86 68 51
f 21 19 69
f 121 122 123
f 124 125 126
f 127 128 129
f 89 130 88
f 89 131 130
f 131 132 130
f 126 125 133
f 134 135 53
f 134 133 135
f 53 136 54
f 53 135 136
f 137 138 139
f 140 141 142
f 54 143 144
f 145 146 147
f 122 148 149
f 124 150 125
f 151 123 122
f 152 153 154
f 155 154 153
f 12 17 75
f 44 75 17
f 72 42 20
f 156 15 157
f 158 117 159
f 160 159 161
f 142 162 163
f 142 141 162
f 106 164 165
f 165 152 154
f 165 164 152
f 157 12 75
f 166 129 162
f 115 167 55
f 126 133 134
f 155 168 169
f 148 170 149
f 148 171 170
f 122 149 151
f 172 170 171
f 173 140 127
f 103 102 147
f 174 147 146
f 175 137 139
f 138 167 136
f 20 42 18
f 140 176 141
f 177 162 129
f 178 179 113
f 128 180 129
f 128 181 180
f 181 182 180
f 181 175 182
f 175 139 182
f 131 173 132
f 173 166 132
f 173 127 166
f 127 129 166
f 180 182 150
f 117 88 159
f 159 130 161
f 67 68 117
f 129 180 177
f 150 177 180
f 142 127 140
f 160 183 159
f 140 161 176
f 140 160 161
f 184 66 185
f 184 83 66
f 156 83 184
f 156 84 83
f 163 177 186
f 163 162 177
f 186 177 124
f 150 124 177
f 117 158 90
f 158 159 183
f 181 124 175
f 163 127 142
f 75 82 157
f 187 188 189
f 187 190 188
f 190 191 188
f 190 192 191
f 120 91 86
f 86 90 87
f 89 183 131
f 87 158 89
f 173 131 160
f 160 140 173
f 124 181 186
f 186 128 163
f 127 163 128
f 126 134 175
f 53 55 137
f 183 89 158
f 193 178 194
f 90 86 91
f 91 120 195
f 195 119 196
f 118 113 179
f 196 118 179
f 34 110 37
f 137 175 134
f 53 137 134
f 184 185 1
f 12 157 15
f 1 28 184
f 156 184 28
f 15 156 28
f 158 87 90
f 197 198 143
f 160 131 183
f 199 92 22
f 185 199 22
f 22 1 185
f 114 7 9
f 64 60 59
f 9 58 114
f 60 114 58
f 75 74 82
f 199 85 92
f 199 65 85
f 66 199 185
f 66 65 199
f 157 84 156
f 157 82 84
f 200 201 123
f 141 176 166
f 29 3 83
f 139 133 182
f 174 103 147
f 202 93 174
f 54 136 143
f 47 46 189
f 23 203 77
f 123 151 200
f 204 200 151
f 151 149 204
f 198 123 201
f 130 159 88
f 137 55 138
f 147 169 168
f 147 168 145
f 155 153 168
f 205 191 206
f 192 206 191
f 197 46 207
f 45 207 46
f 207 208 197
f 144 207 54
f 207 144 208
f 209 96 202
f 210 211 204
f 212 213 203
f 76 78 98
f 150 182 125
f 138 135 139
f 208 123 198
f 208 198 197
f 132 166 176
f 143 201 144
f 214 144 201
f 215 172 171
f 215 210 216
f 210 204 216
f 217 218 190
f 211 200 204
f 211 219 200
f 214 200 219
f 214 201 200
f 212 98 209
f 165 154 220
f 187 115 45
f 214 208 144
f 176 161 132
f 130 132 161
f 162 141 166
f 88 117 68
f 81 111 35
f 189 167 187
f 97 78 213
f 100 153 101
f 146 145 95
f 136 167 46
f 115 187 167
f 143 136 197
f 46 197 136
f 201 143 198
f 124 126 175
f 128 186 181
f 110 34 111
f 206 221 205
f 44 18 42
f 116 39 110
f 42 72 70
f 138 55 167
f 35 111 34
f 71 81 35
f 112 79 116
f 72 80 70
f 18 44 17
f 71 70 80
f 81 71 80
f 37 110 39
f 189 188 49
f 190 104 192
f 45 54 207
f 155 169 102
f 154 155 99
f 102 99 155
f 99 220 154
f 192 109 206
f 220 206 165
f 109 165 206
f 121 219 122
f 122 211 148
f 49 47 189
f 208 121 123
f 222 49 188
f 78 77 203
f 203 213 78
f 66 83 3
f 95 94 146
f 223 146 94
f 94 97 223
f 213 223 97
f 106 165 109
f 220 99 101
f 220 101 221
f 206 220 221
f 50 222 217
f 191 205 106
f 106 205 164
f 172 216 170
f 149 170 216
f 216 204 149
f 168 100 145
f 118 196 119
f 193 224 59
f 178 193 9
f 58 9 193
f 224 225 63
f 193 59 58
f 218 226 108
f 107 105 104
f 205 221 164
f 50 49 222
f 48 47 49
f 45 47 48
f 39 116 79
f 193 227 224
f 224 228 225
f 225 229 230
f 230 229 112
f 221 101 152
f 95 145 100
f 153 100 168
f 54 45 115
f 45 48 187
f 224 63 59
f 217 222 226
f 218 108 107
f 179 8 5
f 196 11 195
f 196 5 11
f 195 52 91
f 195 11 52
f 113 6 7
f 194 113 114
f 230 25 61
f 230 112 25
f 225 61 63
f 225 230 61
f 48 50 187
f 229 27 79
f 229 62 27
f 228 62 229
f 228 64 62
f 227 64 228
f 227 60 64
f 227 114 60
f 227 194 114
f 9 179 178
f 9 8 179
f 179 5 196
f 152 101 153
f 152 164 221
f 227 193 194
f 103 174 93
f 23 212 203
f 213 212 209
f 215 216 172
f 79 112 229
f 167 189 46
f 217 226 218
f 136 135 138
f 133 139 135
f 125 182 133
f 113 194 178
f 119 195 120
f 24 212 23
f 106 105 191
f 226 222 188
f 108 226 188
f 105 108 188
f 188 191 105
f 229 225 228
f 228 224 227
f 202 146 223
f 202 174 146
f 209 223 213
f 209 202 223
f 98 212 76
f 109 192 104
f 107 104 190
f 190 187 50
f 218 107 190
f 50 217 190
f 171 148 210
f 215 171 210
f 210 148 211
f 211 122 219
f 219 121 214
f 93 202 96
f 24 22 92
f 96 209 98
f 76 24 92
f 208 214 121
f 24 76 212
f 169 147 102

