# https://github.com/mikedh/trimesh
v -0.01105445 0.01920007 0.00600000
v -0.01105445 0.01920007 -0.00600000
v -0.01105445 -0.02079993 0.00600000
v -0.01105445 -0.02079993 -0.00600000
v 0.00665788 0.01794590 -0.00600000
v 0.00939006 0.01637740 -0.00600000
v 0.00527671 0.01315148 -0.00600000
v 0.00445753 0.01368967 -0.00600000
v 0.00605620 0.00263711 -0.00600000
v 0.00880742 -0.00087614 -0.00600000
v 0.00539737 0.00194177 -0.00600000
v 0.00694840 -0.00201918 -0.00600000
v 0.00460042 0.00137343 -0.00600000
v 0.01043784 0.00061141 -0.00600000
v 0.01043784 0.00061141 0.00600000
v 0.00965518 -0.00017761 0.00600000
v 0.00965518 -0.00017761 -0.00600000
v 0.01111890 0.00152583 -0.00600000
v 0.01111890 0.00152583 0.00600000
v 0.01171106 0.00254663 -0.00600000
v 0.01171106 0.00254663 0.00600000
v 0.01221273 0.00367537 -0.00600000
v 0.01221273 0.00367537 0.00600000
v 0.01259374 0.00492637 -0.00600000
v 0.01259374 0.00492637 0.00600000
v 0.01282236 0.00631072 0.00600000
v 0.00880742 -0.00087614 0.00600000
v 0.00789776 -0.00148576 0.00600000
v 0.00789776 -0.00148576 -0.00600000
v 0.01588156 -0.02079993 -0.00600000
v 0.01588156 -0.02079993 0.00600000
v 0.00987427 -0.02079993 0.00600000
v 0.00693094 0.01093368 -0.00600000
v 0.00724369 0.00995256 0.00600000
v 0.00693094 0.01093368 0.00600000
v 0.00649595 0.01178936 -0.00600000
v 0.00649595 0.01178936 0.00600000
v 0.00594507 0.01252916 0.00600000
v 0.00594507 0.01252916 -0.00600000
v 0.00257470 0.00053044 -0.00600000
v 0.00136498 0.00026214 0.00600000
v 0.00257470 0.00053044 0.00600000
v 0.00365899 0.00090193 -0.00600000
v 0.00365899 0.00090193 0.00600000
v 0.00460042 0.00137343 0.00600000
v 0.00658168 0.00342930 -0.00600000
v 0.00743737 0.00639962 -0.00600000
v 0.00726273 0.00531215 -0.00600000
v 0.00241436 0.01444217 0.00600000
v 0.00308113 0.01888731 0.00600000
v 0.00119035 0.01466601 0.00600000
v -0.00016702 0.01480095 0.00600000
v -0.00597269 0.00004623 0.00600000
v -0.00597269 0.01484540 0.00600000
v -0.00133545 0.01920007 0.00600000
v -0.00165931 0.01484540 0.00600000
v 0.00308113 0.01888731 -0.00600000
v 0.00665788 0.01794590 0.00600000
v 0.00527671 0.01315148 0.00600000
v 0.00445753 0.01368967 0.00600000
v 0.00350341 0.01411989 0.00600000
v 0.00350341 0.01411989 -0.00600000
v 0.00241436 0.01444217 -0.00600000
v 0.00749452 0.00758711 -0.00600000
v 0.00743737 0.00639962 0.00600000
v 0.00749452 0.00758711 0.00600000
v 0.00743261 0.00883811 -0.00600000
v 0.00743261 0.00883811 0.00600000
v 0.00724369 0.00995256 -0.00600000
v 0.00605620 0.00263711 0.00600000
v 0.00697063 0.00432152 0.00600000
v 0.00726273 0.00531215 0.00600000
v 0.00658168 0.00342930 0.00600000
v 0.00939006 0.01637740 0.00600000
v 0.01133957 0.01417387 0.00600000
v 0.01133957 0.01417387 -0.00600000
v -0.00597269 -0.00426715 0.00600000
v 0.00027751 -0.00426715 0.00600000
v -0.00153707 0.00004623 0.00600000
v -0.00597269 -0.02079993 0.00600000
v -0.00000508 0.00010021 0.00600000
v 0.00499413 -0.00289710 0.00600000
v 0.01282236 0.00631072 -0.00600000
v 0.01289855 0.00783001 -0.00600000
v 0.01289855 0.00783001 0.00600000
v 0.01250801 0.01132421 -0.00600000
v 0.01250801 0.01132421 0.00600000
v 0.00697063 0.00432152 -0.00600000
v 0.00539737 0.00194177 0.00600000
v 0.00027751 -0.00426715 -0.00600000
v 0.00987427 -0.02079993 -0.00600000
v 0.00597999 -0.00248909 -0.00600000
v 0.00597999 -0.00248909 0.00600000
v 0.00499413 -0.00289710 -0.00600000
v 0.00694840 -0.00201918 0.00600000
v -0.00000508 0.00010021 -0.00600000
v -0.00153707 0.00004623 -0.00600000
v -0.00597269 0.00004623 -0.00600000
v -0.00597269 -0.00426715 -0.00600000
v 0.00136498 0.00026214 -0.00600000
v -0.00016702 0.01480095 -0.00600000
v 0.00119035 0.01466601 -0.00600000
v -0.00165931 0.01484540 -0.00600000
v -0.00133545 0.01920007 -0.00600000
v -0.00597269 -0.02079993 -0.00600000
v -0.00597269 0.01484540 -0.00600000
f 1 2 3
f 4 3 2
f 5 6 7
f 8 5 7
f 9 10 11
f 11 12 13
f 14 15 16
f 14 16 17
f 18 19 15
f 18 15 14
f 20 21 19
f 20 19 18
f 22 23 21
f 22 21 20
f 24 25 23
f 24 23 22
f 26 25 24
f 10 27 28
f 10 28 29
f 16 27 10
f 16 10 17
f 30 31 32
f 33 34 35
f 36 33 35
f 36 35 37
f 37 38 36
f 39 36 38
f 40 41 42
f 43 40 42
f 43 42 44
f 13 43 44
f 13 44 45
f 11 13 45
f 46 17 9
f 47 24 48
f 49 50 51
f 51 50 52
f 53 54 1
f 55 1 54
f 55 54 56
f 56 52 55
f 55 52 50
f 57 50 58
f 57 55 50
f 5 57 58
f 39 38 59
f 39 59 7
f 7 59 60
f 7 60 8
f 8 60 61
f 8 61 62
f 62 61 49
f 62 49 63
f 64 47 65
f 64 65 66
f 67 64 66
f 67 66 68
f 69 67 68
f 69 68 34
f 33 69 34
f 27 16 70
f 21 71 19
f 23 71 21
f 26 65 25
f 72 25 65
f 16 15 73
f 19 73 15
f 6 74 75
f 6 75 76
f 77 78 79
f 77 79 53
f 53 3 77
f 1 3 53
f 80 77 3
f 79 78 81
f 78 41 81
f 32 82 78
f 41 82 42
f 6 5 58
f 6 58 74
f 83 26 24
f 84 85 26
f 84 26 83
f 86 87 85
f 86 85 84
f 75 87 86
f 75 86 76
f 84 67 86
f 83 64 84
f 24 47 83
f 67 84 64
f 22 48 24
f 22 20 88
f 46 88 18
f 14 46 18
f 10 9 17
f 11 45 89
f 9 11 89
f 9 89 70
f 46 9 70
f 46 70 73
f 88 46 73
f 88 73 71
f 48 88 71
f 48 71 72
f 72 65 48
f 47 48 65
f 90 91 32
f 92 93 82
f 92 82 94
f 12 95 93
f 12 93 92
f 29 28 95
f 29 95 12
f 48 22 88
f 29 11 10
f 58 59 74
f 37 35 75
f 74 38 75
f 85 66 26
f 68 66 85
f 66 65 26
f 73 70 16
f 96 90 97
f 98 97 99
f 100 90 96
f 40 94 100
f 90 100 94
f 99 97 90
f 101 57 102
f 102 57 63
f 103 104 101
f 57 101 104
f 94 82 30
f 31 30 82
f 3 4 105
f 3 105 80
f 78 77 99
f 78 99 90
f 98 53 79
f 99 77 80
f 99 80 105
f 54 53 98
f 54 98 106
f 78 90 32
f 57 104 55
f 104 2 1
f 104 1 55
f 97 98 79
f 96 97 79
f 96 79 81
f 100 96 81
f 100 81 41
f 40 100 41
f 49 51 102
f 49 102 63
f 102 51 52
f 102 52 101
f 101 52 56
f 101 56 103
f 103 56 54
f 103 54 106
f 76 39 6
f 39 7 6
f 103 106 104
f 2 104 106
f 98 2 106
f 38 74 59
f 60 59 58
f 87 75 35
f 49 61 50
f 58 50 61
f 61 60 58
f 85 87 68
f 34 68 87
f 37 75 38
f 35 34 87
f 44 42 82
f 82 93 44
f 70 89 27
f 28 27 89
f 23 25 72
f 71 23 72
f 73 19 71
f 93 95 45
f 89 45 95
f 95 28 89
f 45 44 93
f 82 41 78
f 31 82 32
f 62 5 8
f 5 62 57
f 63 57 62
f 64 83 47
f 90 94 91
f 99 4 98
f 105 4 99
f 2 98 4
f 30 32 91
f 17 46 14
f 94 43 92
f 12 92 13
f 12 11 29
f 20 18 88
f 43 94 40
f 13 92 43
f 30 91 94
f 76 86 33
f 36 76 33
f 67 69 86
f 39 76 36
f 69 33 86

