# https://github.com/mikedh/trimesh
v 0.00227772 -0.00309687 0.00600000
v 0.00111050 -0.00253179 0.00600000
v 0.00227772 -0.00309687 -0.00600000
v 0.00414278 -0.00423011 -0.00600000
v 0.00414278 -0.00423011 0.00600000
v 0.00327971 -0.00365577 0.00600000
v 0.00327971 -0.00365577 -0.00600000
v 0.00032619 -0.01964620 0.00600000
v 0.00215574 -0.01941153 0.00600000
v 0.00089590 -0.01534945 0.00600000
v -0.00257175 -0.01550230 -0.00600000
v -0.00356605 -0.01967245 -0.00600000
v -0.00346106 -0.01542357 -0.00600000
v -0.00696422 0.00153028 -0.00600000
v -0.00361853 0.00513842 -0.00600000
v -0.00587885 0.00074596 -0.00600000
v -0.00791837 0.00236708 -0.00600000
v -0.00431022 0.00572667 -0.00600000
v 0.01150266 -0.00735038 0.00600000
v 0.01157214 -0.00882329 -0.00600000
v 0.01150266 -0.00735038 -0.00600000
v -0.00289443 0.01522025 0.00600000
v -0.00123472 0.01571741 0.00600000
v -0.00255014 0.01997863 0.00600000
v 0.00070909 0.02027507 0.00600000
v -0.00096917 0.02020096 0.00600000
v 0.00074768 0.01588260 0.00600000
v -0.00180134 -0.00129357 -0.00600000
v -0.00180134 -0.00129357 0.00600000
v -0.00330048 -0.00064821 0.00600000
v -0.00330048 -0.00064821 -0.00600000
v 0.00111050 -0.00253179 -0.00600000
v 0.01146715 -0.01046602 0.00600000
v 0.01157214 -0.00882329 0.00600000
v 0.00659144 -0.00929418 0.00600000
v 0.00608194 0.00039240 -0.00600000
v 0.00481284 0.00106401 -0.00600000
v 0.00721827 -0.00031317 -0.00600000
v 0.00822491 -0.00107123 -0.00600000
v 0.00486533 -0.00482297 -0.00600000
v 0.00341404 0.00171709 -0.00600000
v 0.01146715 -0.01046602 -0.00600000
v -0.00599772 0.01031367 0.00600000
v -0.00580165 0.01191780 0.00600000
v -0.01084719 0.01188229 0.00600000
v -0.01093829 0.01039240 0.00600000
v 0.00910032 -0.00188180 -0.00600000
v -0.00024969 -0.00192966 -0.00600000
v 0.00188555 0.00235318 -0.00600000
v 0.01063034 -0.01341183 -0.00600000
v 0.00636912 -0.01113299 -0.00600000
v 0.01115374 -0.01199451 -0.00600000
v 0.00993712 -0.01470101 -0.00600000
v 0.00545357 -0.00544209 -0.00600000
v -0.01082094 -0.01346278 -0.00600000
v -0.01144778 -0.01317561 0.00600000
v -0.01082094 -0.01346278 0.00600000
v -0.00540949 -0.01951650 -0.00600000
v -0.00164386 -0.01972494 -0.00600000
v -0.00878142 -0.01891437 -0.00600000
v -0.00697812 -0.01478438 -0.00600000
v -0.00717420 -0.01925404 -0.00600000
v -0.00168400 -0.01552854 -0.00600000
v 0.00032619 -0.01964620 -0.00600000
v -0.01042879 0.00639210 -0.00600000
v -0.01042879 0.00639210 0.00600000
v -0.01071133 0.00762106 0.00600000
v -0.00999649 0.00526040 -0.00600000
v -0.00999649 0.00526040 0.00600000
v 0.00227307 0.01582239 -0.00600000
v 0.00273471 0.02020559 -0.00600000
v 0.00376297 0.01563866 -0.00600000
v -0.00943450 0.00421361 0.00600000
v 0.00521889 0.01533451 -0.00600000
v 0.00639536 0.01964823 -0.00600000
v 0.00663004 0.01491919 -0.00600000
v 0.00914046 0.01396196 -0.00600000
v 0.00793774 0.01446219 -0.00600000
v 0.01090516 0.01811821 -0.00600000
v -0.00431022 0.00572667 0.00600000
v -0.00943450 0.00421361 -0.00600000
v -0.00874282 0.00325483 -0.00600000
v -0.00874282 0.00325483 0.00600000
v -0.01144778 -0.01317561 -0.00600000
v -0.00465915 0.00003112 -0.00600000
v -0.00279408 0.00457644 -0.00600000
v -0.00183993 0.00403915 -0.00600000
v -0.01014007 -0.01375150 -0.00600000
v -0.01144778 -0.01792163 -0.00600000
v -0.00940825 -0.01403866 -0.00600000
v -0.00528598 0.00699886 -0.00600000
v -0.00560557 0.00772605 -0.00600000
v -0.00485522 0.00633188 -0.00600000
v -0.00582326 0.00850109 -0.00600000
v -0.01071133 0.00762106 -0.00600000
v -0.00595295 0.00936415 -0.00600000
v -0.01088116 0.00895501 -0.00600000
v -0.01093829 0.01039240 -0.00600000
v -0.00599772 0.01031367 -0.00600000
v -0.01084719 0.01188229 -0.00600000
v -0.01057238 0.01326873 -0.00600000
v -0.01011537 0.01455019 -0.00600000
v -0.00580165 0.01191780 -0.00600000
v 0.00951563 0.01870644 -0.00600000
v 0.00801185 0.01921594 -0.00600000
v -0.01014007 -0.01375150 0.00600000
v -0.00940825 -0.01403866 0.00600000
v -0.00465915 0.00003112 0.00600000
v 0.00643396 -0.00753257 -0.00600000
v 0.00623787 -0.00678376 -0.00600000
v 0.01129269 -0.00601643 -0.00600000
v 0.00659144 -0.00929418 -0.00600000
v 0.00655130 -0.00836938 -0.00600000
v 0.01046051 -0.00376384 -0.00600000
v 0.00591211 -0.00609517 -0.00600000
v 0.00984604 -0.00278345 -0.00600000
v -0.01020646 -0.01846973 -0.00600000
v -0.01020646 -0.01846973 0.00600000
v -0.01144778 -0.01792163 0.00600000
v 0.00376297 0.01563866 0.00600000
v 0.00521889 0.01533451 0.00600000
v 0.00463065 0.01999561 0.00600000
v 0.00188555 0.00235318 0.00600000
v 0.00047750 0.00294142 0.00600000
v -0.00024969 -0.00192966 0.00600000
v -0.00076382 0.00350341 0.00600000
v -0.00717420 -0.01925404 0.00600000
v -0.00878142 -0.01891437 0.00600000
v -0.00863320 -0.01431348 -0.00600000
v -0.00863320 -0.01431348 0.00600000
v -0.00096917 0.02020096 -0.00600000
v -0.00123472 0.01571741 -0.00600000
v -0.00255014 0.01997863 -0.00600000
v -0.00661530 0.01844089 -0.00600000
v -0.00538633 0.01909396 -0.00600000
v -0.00423302 0.01439271 -0.00600000
v -0.00782264 -0.01456205 -0.00600000
v -0.00782264 -0.01456205 0.00600000
v -0.00697812 -0.01478438 0.00600000
v -0.00791837 0.00236708 0.00600000
v 0.00463065 0.01999561 -0.00600000
v -0.00612741 -0.01498046 -0.00600000
v -0.00612741 -0.01498046 0.00600000
v -0.00525200 -0.01515029 -0.00600000
v 0.00591211 -0.00609517 0.00600000
v 0.00623787 -0.00678376 0.00600000
v 0.01046051 -0.00376384 0.00600000
v 0.00984604 -0.00278345 0.00600000
v 0.00545357 -0.00544209 0.00600000
v 0.00481284 0.00106401 0.00600000
v 0.00341404 0.00171709 0.00600000
v 0.00910032 -0.00188180 0.00600000
v 0.00822491 -0.00107123 0.00600000
v 0.00486533 -0.00482297 0.00600000
v 0.00273471 0.02020559 0.00600000
v 0.00227307 0.01582239 0.00600000
v 0.01094376 -0.00482297 0.00600000
v -0.00183993 0.00403915 0.00600000
v -0.00279408 0.00457644 0.00600000
v 0.00384634 -0.01901936 -0.00600000
v 0.00298792 -0.01481371 -0.00600000
v 0.00540571 -0.01844812 -0.00600000
v 0.00089590 -0.01534945 -0.00600000
v 0.00215574 -0.01941153 -0.00600000
v 0.00459052 -0.01392133 -0.00600000
v -0.00164386 -0.01972494 0.00600000
v -0.00257175 -0.01550230 0.00600000
v -0.00356605 -0.01967245 0.00600000
v -0.00076382 0.00350341 -0.00600000
v -0.00528598 0.00699886 0.00600000
v -0.01057238 0.01326873 0.00600000
v -0.00560557 0.00772605 0.00600000
v -0.00595295 0.00936415 0.00600000
v 0.00047750 0.00294142 -0.00600000
v 0.00721827 -0.00031317 0.00600000
v 0.00663004 0.01491919 0.00600000
v 0.00793774 0.01446219 0.00600000
v 0.00951563 0.01870644 0.00600000
v 0.00801185 0.01921594 0.00600000
v 0.00639536 0.01964823 0.00600000
v -0.00435035 -0.01529388 0.00600000
v -0.00525200 -0.01515029 0.00600000
v -0.00540949 -0.01951650 0.00600000
v 0.00608194 0.00039240 0.00600000
v -0.01088116 0.00895501 0.00600000
v -0.00485522 0.00633188 0.00600000
v -0.00772229 0.01764731 -0.00600000
v -0.00866872 0.01674566 0.00600000
v -0.00772229 0.01764731 0.00600000
v 0.00800259 -0.01686250 -0.00600000
v 0.00679215 -0.01772864 -0.00600000
v 0.00570213 -0.01267537 -0.00600000
v -0.00521342 0.01327800 -0.00600000
v -0.00946538 0.01571276 -0.00600000
v -0.01011537 0.01455019 0.00600000
v -0.00946538 0.01571276 0.00600000
v -0.00866872 0.01674566 -0.00600000
v -0.00582326 0.00850109 0.00600000
v -0.00403694 0.01960809 -0.00600000
v -0.00538633 0.01909396 0.00600000
v -0.00403694 0.01960809 0.00600000
v -0.00423302 0.01439271 0.00600000
v -0.00289443 0.01522025 -0.00600000
v 0.00384634 -0.01901936 0.00600000
v 0.00906172 -0.01585124 -0.00600000
v -0.00346106 -0.01542357 0.00600000
v -0.00168400 -0.01552854 0.00600000
v -0.00661530 0.01844089 0.00600000
v 0.00298792 -0.01481371 0.00600000
v -0.00361853 0.00513842 0.00600000
v -0.00521342 0.01327800 0.00600000
v 0.00655130 -0.00836938 0.00600000
v 0.01094376 -0.00482297 -0.00600000
v -0.00587885 0.00074596 0.00600000
v 0.01129269 -0.00601643 0.00600000
v 0.00800259 -0.01686250 0.00600000
v 0.00679215 -0.01772864 0.00600000
v 0.00570213 -0.01267537 0.00600000
v 0.00636912 -0.01113299 0.00600000
v 0.00540571 -0.01844812 0.00600000
v 0.01090516 0.01811821 0.00600000
v 0.00914046 0.01396196 0.00600000
v 0.00459052 -0.01392133 0.00600000
v -0.00696422 0.00153028 0.00600000
v 0.00074768 0.01588260 -0.00600000
v 0.00643396 -0.00753257 0.00600000
v -0.00435035 -0.01529388 -0.00600000
v 0.01115374 -0.01199451 0.00600000
v 0.00993712 -0.01470101 0.00600000
v 0.01063034 -0.01341183 0.00600000
v 0.00906172 -0.01585124 0.00600000
v 0.00070909 0.02027507 -0.00600000
f 1 2 3
f 4 5 6
f 4 6 7
f 7 6 1
f 8 9 10
f 11 12 13
f 14 15 16
f 17 18 14
f 19 20 21
f 22 23 24
f 25 26 27
f 23 27 26
f 7 1 3
f 28 29 30
f 28 30 31
f 32 3 2
f 33 34 35
f 7 36 4
f 3 37 7
f 38 39 40
f 36 38 4
f 32 41 3
f 20 33 42
f 19 34 20
f 43 44 45
f 45 46 43
f 39 47 40
f 40 4 38
f 48 49 32
f 50 51 52
f 53 51 50
f 54 40 47
f 55 56 57
f 58 13 12
f 12 11 59
f 60 61 62
f 59 63 64
f 65 66 67
f 65 68 69
f 70 71 72
f 68 73 69
f 74 75 76
f 77 78 79
f 65 69 66
f 15 18 80
f 81 82 83
f 81 83 73
f 55 84 56
f 85 16 86
f 86 87 85
f 88 89 55
f 90 89 88
f 91 68 92
f 93 81 91
f 15 86 16
f 68 81 73
f 82 93 17
f 94 95 96
f 92 65 94
f 97 96 95
f 98 99 97
f 100 99 98
f 95 94 65
f 101 102 103
f 104 76 105
f 90 88 106
f 90 106 107
f 108 31 30
f 109 110 111
f 52 51 42
f 20 42 112
f 112 113 20
f 88 57 106
f 114 115 116
f 117 118 119
f 120 121 122
f 123 124 125
f 29 125 124
f 124 126 29
f 79 78 104
f 117 119 89
f 31 85 87
f 62 127 128
f 76 104 78
f 129 90 107
f 129 107 130
f 131 132 133
f 88 55 57
f 134 135 136
f 61 137 138
f 61 138 139
f 82 140 83
f 141 72 71
f 105 76 75
f 75 74 141
f 142 139 143
f 84 89 119
f 119 56 84
f 144 142 143
f 145 146 147
f 147 148 145
f 149 145 148
f 1 6 150
f 150 151 1
f 152 153 154
f 155 25 156
f 156 120 155
f 122 155 120
f 157 147 146
f 126 158 30
f 159 108 158
f 30 29 126
f 160 161 162
f 64 163 164
f 165 162 161
f 41 49 123
f 41 123 151
f 47 39 153
f 166 167 168
f 169 87 158
f 112 42 51
f 115 114 110
f 91 170 93
f 100 45 171
f 92 170 91
f 92 172 170
f 99 173 96
f 99 43 173
f 115 110 146
f 115 146 145
f 49 174 124
f 49 124 123
f 40 54 149
f 40 149 154
f 47 153 152
f 39 38 175
f 176 177 178
f 179 180 176
f 121 176 180
f 27 156 25
f 169 158 126
f 181 182 183
f 39 175 153
f 38 36 175
f 153 175 154
f 125 2 123
f 184 150 6
f 49 48 174
f 128 60 62
f 58 183 127
f 54 116 115
f 178 179 176
f 2 1 151
f 151 123 2
f 6 5 184
f 180 122 121
f 26 24 23
f 148 152 149
f 154 149 152
f 5 154 175
f 100 46 45
f 98 97 185
f 98 185 46
f 95 65 67
f 170 186 93
f 93 186 80
f 93 80 18
f 97 95 67
f 187 188 189
f 190 191 165
f 192 190 165
f 63 59 11
f 163 64 63
f 101 100 171
f 44 103 193
f 100 98 46
f 113 109 21
f 103 44 43
f 103 43 99
f 194 102 195
f 194 195 196
f 102 101 171
f 102 171 195
f 187 197 188
f 96 173 198
f 96 198 94
f 94 198 172
f 94 172 92
f 54 115 145
f 54 145 149
f 197 194 196
f 197 196 188
f 64 166 59
f 164 9 8
f 164 8 64
f 101 103 100
f 96 97 99
f 199 135 200
f 199 200 201
f 22 202 136
f 136 193 187
f 194 197 193
f 199 203 135
f 132 203 133
f 133 203 199
f 204 160 162
f 199 201 24
f 64 8 166
f 205 192 53
f 190 192 205
f 162 165 191
f 164 161 160
f 161 164 163
f 99 100 103
f 194 193 102
f 197 187 193
f 97 67 185
f 206 168 167
f 8 207 166
f 174 169 126
f 174 126 124
f 193 103 102
f 187 134 136
f 51 53 192
f 87 159 158
f 168 206 183
f 134 187 189
f 134 189 208
f 161 163 10
f 161 10 209
f 37 151 150
f 128 127 139
f 36 150 184
f 139 138 128
f 210 159 15
f 143 139 127
f 182 143 127
f 127 183 182
f 87 86 159
f 135 208 200
f 116 147 114
f 107 106 119
f 47 152 148
f 47 148 116
f 119 118 107
f 36 184 175
f 118 128 138
f 36 37 150
f 22 136 203
f 136 202 211
f 136 211 193
f 160 204 9
f 160 9 164
f 86 15 159
f 37 41 151
f 116 148 147
f 106 57 119
f 163 207 10
f 28 174 48
f 60 118 117
f 36 7 37
f 41 32 49
f 60 128 118
f 34 19 212
f 114 157 213
f 130 107 118
f 138 130 118
f 108 159 214
f 210 214 159
f 213 157 215
f 213 215 111
f 56 119 57
f 190 216 217
f 192 218 219
f 204 162 220
f 191 217 220
f 191 220 162
f 221 177 222
f 178 177 221
f 114 147 157
f 165 161 209
f 165 209 223
f 192 165 223
f 192 223 218
f 44 193 211
f 135 134 208
f 186 170 73
f 73 83 186
f 178 105 179
f 67 66 198
f 172 198 66
f 83 140 186
f 80 186 140
f 140 224 80
f 210 80 224
f 210 224 214
f 170 172 69
f 78 77 177
f 222 177 77
f 70 27 225
f 225 27 23
f 225 23 132
f 132 23 22
f 132 22 203
f 20 34 33
f 21 111 19
f 215 19 111
f 74 121 120
f 74 120 72
f 66 69 172
f 72 120 156
f 72 156 70
f 212 35 34
f 226 212 19
f 215 226 19
f 175 184 5
f 13 227 181
f 13 181 206
f 11 13 206
f 42 228 52
f 113 112 35
f 48 29 28
f 63 11 167
f 63 167 207
f 163 63 207
f 116 54 47
f 215 157 146
f 229 230 219
f 229 231 53
f 11 206 167
f 109 113 212
f 109 212 226
f 110 109 226
f 110 226 146
f 112 51 219
f 112 219 35
f 71 25 155
f 232 131 26
f 232 26 25
f 113 35 212
f 190 217 191
f 205 231 216
f 205 216 190
f 205 53 231
f 30 158 108
f 69 73 170
f 70 156 27
f 77 221 222
f 24 201 22
f 79 104 178
f 79 178 221
f 201 200 22
f 104 105 178
f 105 75 180
f 105 180 179
f 50 230 229
f 32 2 125
f 32 125 48
f 48 125 29
f 51 192 219
f 9 204 209
f 31 169 28
f 58 127 62
f 12 168 183
f 12 183 58
f 196 211 188
f 77 79 221
f 231 229 218
f 166 168 59
f 204 220 209
f 209 10 9
f 206 181 183
f 167 166 207
f 220 217 223
f 223 209 220
f 10 207 8
f 230 228 219
f 228 33 219
f 146 226 215
f 35 219 33
f 219 218 229
f 41 37 3
f 169 31 87
f 12 59 168
f 211 195 44
f 202 189 211
f 141 71 155
f 141 155 122
f 71 232 25
f 171 45 44
f 131 133 24
f 131 24 26
f 75 141 122
f 75 122 180
f 188 211 189
f 208 189 202
f 200 208 202
f 133 199 24
f 46 185 43
f 173 43 185
f 185 67 173
f 198 173 67
f 202 22 200
f 195 211 196
f 171 44 195
f 218 223 216
f 231 218 216
f 217 216 223
f 50 229 53
f 52 228 230
f 52 230 50
f 42 33 228
f 78 177 176
f 78 176 76
f 76 176 121
f 76 121 74
f 142 61 139
f 227 58 144
f 89 90 117
f 13 58 227
f 144 143 182
f 203 136 135
f 225 232 70
f 132 131 225
f 144 62 142
f 14 140 17
f 16 214 224
f 16 224 14
f 85 108 214
f 227 144 182
f 227 182 181
f 111 21 109
f 4 40 5
f 154 5 40
f 232 225 131
f 71 70 232
f 137 129 130
f 137 130 138
f 84 55 89
f 142 62 61
f 82 17 140
f 15 80 210
f 117 137 60
f 62 144 58
f 18 17 93
f 213 111 110
f 114 213 110
f 21 20 113
f 81 93 82
f 68 91 81
f 15 14 18
f 61 60 137
f 137 117 129
f 129 117 90
f 65 92 68
f 72 141 74
f 85 214 16
f 14 224 140
f 108 85 31
f 174 28 169

