# https://github.com/mikedh/trimesh
v -0.00254044 0.00951829 -0.00600000
v -0.00254044 -0.02596671 -0.00600000
v -0.00254044 -0.02596671 0.00600000
v -0.00254044 0.00951829 0.00600000
v 0.00253973 -0.02596671 -0.00600000
v 0.00253973 -0.02596671 0.00600000
v 0.00253973 0.00951829 0.00600000
v 0.00253973 0.00951829 -0.00600000
v 0.01395265 0.00951829 -0.00600000
v 0.01395265 0.00951829 0.00600000
v 0.01395265 0.01403329 -0.00600000
v 0.01395265 0.01403329 0.00600000
v -0.01395177 0.01403329 -0.00600000
v -0.01395177 0.00951829 0.00600000
v -0.01395177 0.01403329 0.00600000
v -0.01395177 0.00951829 -0.00600000
f 1 2 3
f 1 3 4
f 5 6 3
f 5 3 2
f 7 5 8
f 9 10 7
f 9 7 8
f 9 11 12
f 7 6 5
f 13 14 15
f 16 1 14
f 4 14 1
f 9 12 10
f 11 13 12
f 13 15 12
f 13 16 14
f 6 4 3
f 12 15 7
f 12 7 10
f 6 7 4
f 1 16 13
f 9 8 11
f 13 11 8
f 13 8 1
f 8 5 2
f 8 2 1
f 14 4 15
f 4 7 15

