# https://github.com/mikedh/trimesh
v -0.00281166 -0.01429010 -0.00600000
v -0.00516837 -0.01342998 -0.00600000
v -0.00516837 -0.01342998 0.00600000
v -0.00281166 -0.01429010 0.00600000
v 0.01429523 0.02101368 0.00600000
v 0.00925027 0.02101368 0.00600000
v 0.01429523 -0.00456768 0.00600000
v 0.01269699 -0.01195998 -0.00600000
v 0.00826661 -0.00981907 -0.00600000
v 0.01338039 -0.01028666 -0.00600000
v 0.00869354 -0.00865870 -0.00600000
v 0.01388863 -0.00846947 -0.00600000
v 0.01419359 -0.00656158 -0.00600000
v 0.00900319 -0.00740137 -0.00600000
v 0.00925027 -0.00464744 -0.00600000
v 0.00925027 0.02101368 -0.00600000
v 0.01429523 -0.00456768 -0.00600000
v -0.00930004 -0.00468654 -0.00600000
v -0.01430435 -0.00444883 -0.00600000
v -0.00930004 0.02093393 -0.00600000
v 0.01429523 0.02101368 -0.00600000
v -0.00904358 -0.00759998 -0.00600000
v -0.01420270 -0.00657566 -0.00600000
v -0.01430435 0.02093393 -0.00600000
v 0.00772240 -0.01086528 -0.00600000
v 0.00918772 -0.00606428 -0.00600000
v 0.00161089 -0.01449810 -0.00600000
v 0.00216606 -0.01886748 -0.00600000
v 0.00007364 -0.01457785 -0.00600000
v 0.00625395 -0.01262617 -0.00600000
v 0.00789442 -0.01708000 -0.00600000
v 0.00530000 -0.01331426 -0.00600000
v 0.00619139 -0.01791353 -0.00600000
v 0.00420531 -0.01386161 -0.00600000
v 0.00940509 -0.01606037 -0.00600000
v 0.00706558 -0.01179733 -0.00600000
v 0.01072029 -0.01485465 -0.00600000
v 0.00298708 -0.01425883 -0.00600000
v 0.00428506 -0.01850935 -0.00600000
v 0.01181028 -0.01348316 -0.00600000
v -0.00827573 -0.01003644 -0.00600000
v -0.01339106 -0.01040707 -0.00600000
v -0.00628183 -0.01795419 -0.00600000
v -0.00793638 -0.01716757 -0.00600000
v -0.00441929 -0.01852656 -0.00600000
v -0.01069031 -0.01501416 -0.00600000
v -0.00699650 -0.01199594 -0.00600000
v -0.00940639 -0.01618860 -0.00600000
v -0.01178499 -0.01365518 -0.00600000
v -0.01268577 -0.01211949 -0.00600000
v -0.00238003 -0.01887217 -0.00600000
v -0.01389931 -0.00856174 -0.00600000
v -0.00016407 -0.01898632 -0.00600000
v -0.00441929 -0.01852656 0.00600000
v -0.00016407 -0.01898632 0.00600000
v -0.00238003 -0.01887217 0.00600000
v 0.00216606 -0.01886748 0.00600000
v 0.00428506 -0.01850935 0.00600000
v -0.01069031 -0.01501416 0.00600000
v -0.00793638 -0.01716757 0.00600000
v -0.00940639 -0.01618860 0.00600000
v -0.00628183 -0.01795419 0.00600000
v 0.00007364 -0.01457785 0.00600000
v -0.01178499 -0.01365518 0.00600000
v -0.01268577 -0.01211949 0.00600000
v 0.01419359 -0.00656158 0.00600000
v -0.01430435 -0.00444883 0.00600000
v -0.01430435 0.02093393 0.00600000
v -0.01420270 -0.00657566 0.00600000
v -0.00930004 0.02093393 0.00600000
v -0.00930004 -0.00468654 0.00600000
v 0.01269699 -0.01195998 0.00600000
v 0.01181028 -0.01348316 0.00600000
v 0.01338039 -0.01028666 0.00600000
v 0.01388863 -0.00846947 0.00600000
v 0.00940509 -0.01606037 0.00600000
v 0.00789442 -0.01708000 0.00600000
v -0.00699650 -0.01199594 0.00600000
v 0.00298708 -0.01425883 0.00600000
v 0.00161089 -0.01449810 0.00600000
v -0.00827573 -0.01003644 0.00600000
v -0.01339106 -0.01040707 0.00600000
v -0.00904358 -0.00759998 0.00600000
v 0.00619139 -0.01791353 0.00600000
v 0.00530000 -0.01331426 0.00600000
v 0.00625395 -0.01262617 0.00600000
v 0.01072029 -0.01485465 0.00600000
v 0.00706558 -0.01179733 0.00600000
v -0.01389931 -0.00856174 0.00600000
v 0.00772240 -0.01086528 0.00600000
v 0.00420531 -0.01386161 0.00600000
v 0.00826661 -0.00981907 0.00600000
v 0.00925027 -0.00464744 0.00600000
v 0.00918772 -0.00606428 0.00600000
v 0.00900319 -0.00740137 0.00600000
v 0.00869354 -0.00865870 0.00600000
f 1 2 3
f 1 3 4
f 5 6 7
f 8 9 10
f 10 11 12
f 13 12 14
f 15 16 17
f 18 19 20
f 21 17 16
f 22 23 18
f 24 20 19
f 9 8 25
f 17 13 15
f 14 26 13
f 27 28 29
f 14 12 11
f 11 10 9
f 26 15 13
f 30 31 32
f 32 33 34
f 35 36 37
f 31 30 35
f 38 28 27
f 33 32 31
f 39 34 33
f 36 35 30
f 40 37 36
f 25 40 36
f 40 25 8
f 41 42 22
f 43 44 2
f 1 45 2
f 46 47 48
f 49 47 46
f 47 2 48
f 50 41 49
f 44 48 2
f 29 51 1
f 45 1 51
f 39 28 38
f 38 34 39
f 47 49 41
f 19 18 23
f 52 22 42
f 23 22 52
f 42 41 50
f 43 2 45
f 53 29 28
f 51 29 53
f 51 54 45
f 53 55 56
f 53 56 51
f 28 57 55
f 28 55 53
f 39 58 57
f 39 57 28
f 48 59 46
f 44 60 61
f 44 61 48
f 43 62 60
f 43 60 44
f 45 54 62
f 45 62 43
f 51 56 54
f 1 4 63
f 64 65 49
f 50 49 65
f 49 46 59
f 49 59 64
f 48 61 59
f 66 17 7
f 5 17 21
f 5 7 17
f 24 19 67
f 24 67 68
f 69 67 23
f 19 23 67
f 66 13 17
f 18 20 70
f 20 24 68
f 20 68 70
f 21 16 6
f 21 6 5
f 70 71 18
f 18 71 22
f 8 72 73
f 8 73 40
f 10 74 72
f 10 72 8
f 12 75 74
f 12 74 10
f 13 66 75
f 13 75 12
f 35 76 77
f 35 77 31
f 60 3 61
f 59 61 78
f 62 3 60
f 57 58 79
f 79 80 57
f 54 3 62
f 56 4 54
f 57 63 55
f 65 64 81
f 78 81 64
f 82 65 81
f 81 83 82
f 64 59 78
f 4 56 63
f 3 54 4
f 78 61 3
f 84 77 85
f 86 85 77
f 77 76 86
f 76 87 88
f 73 88 87
f 69 83 71
f 89 82 83
f 69 89 83
f 36 86 88
f 25 36 88
f 25 88 90
f 58 39 84
f 85 91 84
f 92 90 72
f 86 76 88
f 90 88 73
f 38 80 79
f 34 38 79
f 34 79 91
f 32 34 91
f 32 91 85
f 30 32 85
f 30 85 86
f 36 30 86
f 23 89 69
f 52 42 82
f 52 82 89
f 42 50 65
f 42 65 82
f 27 29 63
f 27 63 80
f 38 27 80
f 71 83 22
f 22 83 81
f 22 81 41
f 41 81 78
f 41 78 47
f 2 47 78
f 2 78 3
f 23 52 89
f 80 63 57
f 55 63 56
f 58 84 91
f 79 58 91
f 37 87 76
f 37 76 35
f 37 40 87
f 73 87 40
f 71 67 69
f 93 7 6
f 66 7 93
f 73 72 90
f 72 74 92
f 93 94 66
f 94 95 66
f 96 75 95
f 16 93 6
f 9 25 90
f 9 90 92
f 11 9 92
f 11 92 96
f 14 11 96
f 68 67 70
f 71 70 67
f 16 15 93
f 33 84 39
f 31 77 84
f 31 84 33
f 66 95 75
f 14 96 95
f 26 14 95
f 26 95 94
f 15 26 94
f 15 94 93
f 29 1 63
f 96 92 74
f 75 96 74

