# https://github.com/mikedh/trimesh
v 0.00059208 -0.01323467 0.00600000
v 0.00024282 -0.01467300 0.00600000
v 0.00252731 -0.02153123 0.00600000
v -0.00038426 -0.01467300 -0.00600000
v -0.00259255 -0.02153123 -0.00600000
v -0.00073352 -0.01323467 -0.00600000
v -0.00150507 -0.01016117 0.00600000
v -0.00196070 -0.00856091 0.00600000
v -0.00259255 -0.02153123 0.00600000
v -0.00247189 -0.00693527 0.00600000
v -0.00110183 -0.01173284 0.00600000
v 0.01591515 0.01846877 0.00600000
v 0.00244793 -0.00673364 0.00600000
v -0.00073352 -0.01323467 0.00600000
v -0.00038426 -0.01467300 0.00600000
v -0.01589942 0.01846877 0.00600000
v 0.00190976 -0.00847201 0.00600000
v 0.01047143 0.01846877 0.00600000
v -0.01589942 0.01846877 -0.00600000
v -0.00247189 -0.00693527 -0.00600000
v -0.00005246 -0.01604782 -0.00600000
v -0.01053666 0.01846877 0.00600000
v -0.00150507 -0.01016117 -0.00600000
v 0.00252731 -0.02153123 -0.00600000
v 0.01591515 0.01846877 -0.00600000
v -0.00110183 -0.01173284 -0.00600000
v -0.00196070 -0.00856091 -0.00600000
v 0.00190976 -0.00847201 -0.00600000
v 0.00142555 -0.01013736 -0.00600000
v 0.00142555 -0.01013736 0.00600000
v 0.00099532 -0.01173284 -0.00600000
v 0.00099532 -0.01173284 0.00600000
v -0.00005246 -0.01604782 0.00600000
v 0.01047143 0.01846877 -0.00600000
v 0.00244793 -0.00673364 -0.00600000
v -0.01053666 0.01846877 -0.00600000
v 0.00024282 -0.01467300 -0.00600000
v 0.00059208 -0.01323467 -0.00600000
f 1 2 3
f 4 5 6
f 7 8 9
f 8 10 9
f 11 7 9
f 12 13 3
f 14 11 9
f 15 14 9
f 16 9 10
f 17 3 13
f 12 18 13
f 19 20 5
f 21 5 4
f 10 22 16
f 23 7 11
f 24 25 12
f 24 12 3
f 23 11 26
f 27 8 7
f 27 7 23
f 8 27 20
f 9 16 19
f 28 29 30
f 28 30 17
f 29 31 32
f 6 14 15
f 6 15 4
f 26 11 14
f 26 14 6
f 13 28 17
f 3 33 9
f 30 32 3
f 17 30 3
f 15 9 33
f 32 1 3
f 33 3 2
f 25 34 18
f 25 18 12
f 34 35 13
f 34 13 18
f 20 36 22
f 8 20 10
f 22 10 20
f 29 32 30
f 24 21 37
f 24 5 21
f 28 24 29
f 37 21 33
f 29 24 31
f 31 24 38
f 35 25 24
f 35 34 25
f 20 19 36
f 35 24 28
f 19 5 9
f 5 24 9
f 3 9 24
f 37 33 2
f 24 37 38
f 33 4 15
f 31 38 1
f 31 1 32
f 38 37 2
f 38 2 1
f 33 21 4
f 36 19 16
f 36 16 22
f 13 35 28
f 27 5 20
f 6 5 26
f 26 5 23
f 23 5 27

