# https://github.com/mikedh/trimesh
v -0.01891987 0.01910752 0.00600000
v -0.02432231 0.01910752 0.00600000
v -0.01283002 -0.00524713 0.00600000
v -0.01375715 -0.02089247 0.00600000
v -0.01158537 -0.01143065 0.00600000
v -0.01174096 -0.01053052 0.00600000
v -0.01143614 -0.01230381 0.00600000
v -0.01188542 -0.00964306 0.00600000
v -0.01129803 -0.01315156 0.00600000
v -0.01077890 -0.01392152 0.00600000
v -0.00863570 -0.02089247 0.00600000
v -0.01065189 -0.01307060 0.00600000
v -0.00198385 0.00459093 0.00600000
v -0.00887860 -0.00440097 0.00600000
v -0.00911514 -0.00531064 0.00600000
v -0.00934375 -0.00626475 0.00600000
v -0.00956442 -0.00726332 0.00600000
v -0.01117261 -0.01393898 0.00600000
v -0.01097575 -0.01540906 0.00600000
v -0.01106466 -0.01469148 0.00600000
v -0.01106466 -0.01469148 -0.00600000
v -0.01097575 -0.01540906 -0.00600000
v -0.01375715 -0.02089247 -0.00600000
v -0.01117261 -0.01393898 -0.00600000
v -0.01261887 -0.00609488 0.00600000
v -0.01049155 -0.01216569 0.00600000
v -0.01088526 -0.01470102 0.00600000
v -0.00977398 -0.00825873 0.00600000
v -0.01241725 -0.00696804 0.00600000
v -0.01032962 -0.01122427 0.00600000
v -0.00174096 0.00559110 0.00600000
v -0.00149965 0.00659918 0.00600000
v 0.00036414 0.01138407 0.00600000
v 0.00014982 0.01235089 0.00600000
v 0.00036414 0.01138407 -0.00600000
v 0.00014982 0.01235089 -0.00600000
v 0.00059751 0.01039821 -0.00600000
v 0.00079437 0.00951553 -0.00600000
v 0.00079437 0.00951553 0.00600000
v 0.00059751 0.01039821 0.00600000
v 0.00101027 0.00858839 -0.00600000
v 0.00101027 0.00858839 0.00600000
v 0.00265339 0.01910752 0.00600000
v 0.00890359 -0.00432000 0.00600000
v 0.00148495 0.00665317 0.00600000
v 0.00172626 0.00569745 0.00600000
v 0.00196915 0.00475287 0.00600000
v 0.01023078 -0.00939224 0.00600000
v 0.00997518 -0.00839684 0.00600000
v 0.00890359 -0.02089247 0.00600000
v -0.00104720 0.00860585 0.00600000
v -0.00270937 0.01910752 0.00600000
v -0.00125675 0.00761522 0.00600000
v -0.00084558 0.00953298 0.00600000
v 0.00944177 -0.00636319 0.00600000
v 0.00971006 -0.00738398 0.00600000
v 0.00917347 -0.00534080 0.00600000
v 0.00124205 0.00761522 0.00600000
v -0.00997560 -0.00925253 0.00600000
v 0.01229142 -0.00965101 0.00600000
v 0.01212949 -0.01057019 0.00600000
v 0.01406631 -0.02089247 0.00600000
v -0.00065190 0.01039821 0.00600000
v -0.00024072 0.01236994 0.00600000
v -0.00044234 0.01140154 0.00600000
v 0.01200090 -0.01144811 0.00600000
v 0.01187866 -0.01230857 0.00600000
v 0.01176753 -0.01315156 0.00600000
v 0.01166434 -0.01393898 0.00600000
v 0.01317887 -0.00504552 0.00600000
v 0.02410600 0.01910752 0.00600000
v 0.01866228 0.01910752 0.00600000
v -0.00004704 0.01330183 0.00600000
v -0.00044234 0.01140154 -0.00600000
v -0.00065190 0.01039821 -0.00600000
v -0.00270937 0.01910752 -0.00600000
v -0.00125675 0.00761522 -0.00600000
v -0.00149965 0.00659918 -0.00600000
v 0.00265339 0.01910752 -0.00600000
v -0.00004704 0.01330183 -0.00600000
v 0.01047685 -0.01036858 -0.00600000
v 0.01068800 -0.01131317 -0.00600000
v 0.00890359 -0.02089247 -0.00600000
v -0.00887860 -0.00440097 -0.00600000
v -0.01188542 -0.00964306 -0.00600000
v -0.01174096 -0.01053052 -0.00600000
v -0.01204577 -0.00875563 -0.00600000
v -0.01204577 -0.00875563 0.00600000
v -0.01158537 -0.01143065 -0.00600000
v -0.01143614 -0.01230381 -0.00600000
v -0.02432231 0.01910752 -0.00600000
v -0.00863570 -0.02089247 -0.00600000
v 0.00944177 -0.00636319 -0.00600000
v 0.00196915 0.00475287 -0.00600000
v 0.00917347 -0.00534080 -0.00600000
v 0.00971006 -0.00738398 -0.00600000
v 0.00890359 -0.00432000 -0.00600000
v -0.01065189 -0.01307060 -0.00600000
v -0.01077890 -0.01392152 -0.00600000
v -0.01088526 -0.01470102 -0.00600000
v -0.00198385 0.00459093 -0.00600000
v -0.01129803 -0.01315156 -0.00600000
v -0.01049155 -0.01216569 -0.00600000
v -0.01032962 -0.01122427 -0.00600000
v -0.01261887 -0.00609488 -0.00600000
v -0.01241725 -0.00696804 -0.00600000
v 0.01148495 -0.01540906 0.00600000
v 0.01157068 -0.01469148 0.00600000
v 0.01148495 -0.01540906 -0.00600000
v 0.01157068 -0.01469148 -0.00600000
v 0.01406631 -0.02089247 -0.00600000
v 0.02410600 0.01910752 -0.00600000
v 0.01108171 -0.01307060 -0.00600000
v 0.01123411 -0.01390407 0.00600000
v 0.01123411 -0.01390407 -0.00600000
v -0.00174096 0.00559110 -0.00600000
v -0.01891987 0.01910752 -0.00600000
v -0.00956442 -0.00726332 -0.00600000
v -0.00934375 -0.00626475 -0.00600000
v -0.01283002 -0.00524713 -0.00600000
v 0.01166434 -0.01393898 -0.00600000
v 0.01136906 -0.01468355 -0.00600000
v 0.01136906 -0.01468355 0.00600000
v 0.01108171 -0.01307060 0.00600000
v -0.01222516 -0.00786819 -0.00600000
v -0.01016928 -0.01024793 -0.00600000
v -0.00997560 -0.00925253 -0.00600000
v -0.00977398 -0.00825873 -0.00600000
v 0.01280262 -0.00685533 -0.00600000
v 0.01261370 -0.00778722 -0.00600000
v 0.01261370 -0.00778722 0.00600000
v 0.01229142 -0.00965101 -0.00600000
v 0.01212949 -0.01057019 -0.00600000
v 0.01245336 -0.00872388 -0.00600000
v 0.01245336 -0.00872388 0.00600000
v 0.01200090 -0.01144811 -0.00600000
v 0.01187866 -0.01230857 -0.00600000
v 0.01176753 -0.01315156 -0.00600000
v 0.00997518 -0.00839684 -0.00600000
v 0.01866228 0.01910752 -0.00600000
v 0.01317887 -0.00504552 -0.00600000
v -0.01222516 -0.00786819 0.00600000
v 0.01023078 -0.00939224 -0.00600000
v 0.01298995 -0.00594249 -0.00600000
v 0.01280262 -0.00685533 0.00600000
v 0.01298995 -0.00594249 0.00600000
v 0.01088961 -0.01221490 -0.00600000
v 0.01047685 -0.01036858 0.00600000
v 0.01068800 -0.01131317 0.00600000
v 0.01088961 -0.01221490 0.00600000
v -0.00084558 0.00953298 -0.00600000
v -0.00024072 0.01236994 -0.00600000
v -0.00104720 0.00860585 -0.00600000
v 0.00148495 0.00665317 -0.00600000
v 0.00172626 0.00569745 -0.00600000
v 0.00124205 0.00761522 -0.00600000
v -0.01016928 -0.01024793 0.00600000
v -0.00911514 -0.00531064 -0.00600000
f 1 2 3
f 2 4 3
f 5 6 4
f 7 5 4
f 6 8 4
f 9 7 4
f 10 11 12
f 13 14 15
f 13 15 16
f 17 13 16
f 18 9 4
f 19 20 4
f 21 22 23
f 21 23 24
f 25 3 4
f 12 11 26
f 19 11 27
f 17 28 13
f 29 25 4
f 13 30 11
f 11 19 4
f 31 32 14
f 13 31 14
f 33 34 35
f 36 35 34
f 37 38 39
f 37 39 40
f 38 41 42
f 38 42 39
f 20 18 4
f 33 40 43
f 40 39 43
f 39 42 43
f 44 43 45
f 44 45 46
f 44 46 47
f 48 49 50
f 51 52 53
f 51 54 52
f 55 47 56
f 44 47 57
f 55 57 47
f 47 50 56
f 58 45 43
f 34 33 43
f 28 59 13
f 26 11 30
f 60 61 62
f 63 52 54
f 64 52 65
f 62 66 67
f 62 67 68
f 62 68 69
f 70 71 72
f 73 43 52
f 34 43 73
f 73 52 64
f 27 11 10
f 74 75 76
f 77 78 76
f 79 80 76
f 81 82 83
f 84 14 52
f 85 8 6
f 85 6 86
f 87 88 8
f 89 7 90
f 89 86 5
f 23 4 91
f 92 11 4
f 92 4 23
f 93 94 95
f 96 94 93
f 97 95 94
f 98 10 12
f 99 100 10
f 101 13 92
f 102 9 18
f 102 18 24
f 90 7 9
f 90 9 102
f 89 5 7
f 20 19 21
f 100 22 19
f 6 5 86
f 103 98 12
f 103 12 26
f 104 103 26
f 104 26 30
f 98 99 10
f 105 29 106
f 107 108 109
f 110 109 108
f 50 47 83
f 94 83 47
f 111 62 50
f 111 50 83
f 112 62 111
f 113 114 115
f 78 31 116
f 32 78 77
f 79 76 52
f 76 84 52
f 117 91 2
f 117 2 1
f 105 25 29
f 118 119 101
f 120 3 25
f 121 108 69
f 122 123 107
f 122 107 109
f 115 114 123
f 115 123 122
f 113 124 114
f 87 8 85
f 116 101 84
f 85 23 87
f 86 23 85
f 87 23 125
f 126 127 101
f 127 128 101
f 128 118 101
f 121 110 108
f 129 130 131
f 132 133 61
f 132 61 60
f 66 61 133
f 134 132 60
f 134 60 135
f 133 136 66
f 99 98 92
f 130 135 131
f 136 137 67
f 136 67 66
f 137 138 68
f 137 68 67
f 138 121 69
f 138 69 68
f 49 139 96
f 140 141 70
f 23 22 92
f 22 100 92
f 100 99 92
f 78 32 31
f 88 87 142
f 125 142 87
f 125 106 142
f 29 142 106
f 28 17 128
f 139 49 48
f 139 48 143
f 144 129 145
f 144 145 146
f 101 92 104
f 126 101 104
f 91 120 23
f 125 23 106
f 89 23 86
f 90 23 89
f 84 76 78
f 82 147 83
f 143 81 83
f 122 83 115
f 115 83 113
f 109 83 122
f 141 144 146
f 141 146 70
f 143 48 81
f 139 143 83
f 96 139 83
f 110 121 111
f 83 109 111
f 94 96 83
f 109 110 111
f 78 116 84
f 130 134 135
f 81 148 149
f 81 149 82
f 82 149 150
f 82 150 147
f 147 150 124
f 147 124 113
f 148 81 48
f 97 44 57
f 32 77 53
f 75 63 54
f 75 54 151
f 131 145 129
f 49 96 56
f 95 57 55
f 95 55 93
f 64 65 74
f 64 74 152
f 153 51 53
f 153 53 77
f 93 55 56
f 93 56 96
f 35 37 40
f 35 40 33
f 45 58 154
f 151 54 51
f 151 51 153
f 63 75 65
f 74 65 75
f 102 23 90
f 24 23 102
f 103 104 92
f 98 103 92
f 155 94 47
f 62 112 71
f 41 156 58
f 41 58 42
f 112 140 72
f 112 72 71
f 70 72 140
f 52 43 79
f 34 73 36
f 80 36 73
f 134 130 111
f 121 138 111
f 80 64 152
f 130 129 111
f 129 144 111
f 147 113 83
f 155 154 97
f 144 141 111
f 112 111 141
f 112 141 140
f 132 134 111
f 57 95 97
f 138 137 111
f 137 136 111
f 136 133 111
f 133 132 111
f 62 71 70
f 62 70 146
f 62 146 145
f 62 145 131
f 153 77 76
f 66 62 61
f 80 152 76
f 36 80 79
f 152 74 76
f 37 79 38
f 38 79 41
f 41 79 156
f 44 97 43
f 154 156 79
f 36 79 35
f 37 35 79
f 79 97 154
f 94 155 97
f 151 153 76
f 75 151 76
f 80 73 64
f 156 154 58
f 154 155 46
f 154 46 45
f 155 47 46
f 79 43 97
f 127 157 59
f 24 18 21
f 30 157 104
f 126 104 157
f 18 20 21
f 2 91 4
f 100 27 10
f 22 21 19
f 158 16 15
f 119 118 17
f 100 19 27
f 11 92 13
f 118 128 17
f 128 127 59
f 128 59 28
f 127 126 157
f 119 158 101
f 158 84 101
f 120 25 105
f 120 117 3
f 1 3 117
f 14 84 158
f 14 158 15
f 158 119 16
f 63 65 52
f 42 58 43
f 119 17 16
f 101 116 13
f 31 13 116
f 106 23 105
f 105 23 120
f 120 91 117
f 135 60 62
f 131 135 62
f 88 142 4
f 8 88 4
f 142 29 4
f 30 13 157
f 59 157 13
f 149 148 50
f 114 124 50
f 49 56 50
f 123 114 50
f 108 107 62
f 107 123 50
f 62 107 50
f 150 149 50
f 52 14 32
f 32 53 52
f 124 150 50
f 148 48 50
f 62 69 108

