# https://github.com/mikedh/trimesh
v 0.00283469 0.00112599 0.00600000
v 0.01533508 -0.01992179 -0.00600000
v 0.00283469 0.00112599 -0.00600000
v -0.00014832 -0.00258253 -0.00600000
v 0.00956909 -0.01992179 0.00600000
v -0.00014832 -0.00258253 0.00600000
v -0.01018960 -0.01992179 0.00600000
v -0.01018960 -0.01992179 -0.00600000
v 0.01533508 -0.01992179 0.00600000
v 0.01440795 0.02007821 -0.00600000
v 0.01440795 0.02007821 0.00600000
v -0.00906085 0.02007821 0.00600000
v -0.00906085 0.02007821 -0.00600000
v -0.01450456 0.02007821 -0.00600000
v 0.00001202 0.00475514 -0.00600000
v 0.00920554 0.02007821 -0.00600000
v -0.00293131 0.00096565 0.00600000
v 0.00001202 0.00475514 0.00600000
v -0.01531105 -0.01992179 -0.00600000
v -0.00293131 0.00096565 -0.00600000
v 0.00920554 0.02007821 0.00600000
v 0.00956909 -0.01992179 -0.00600000
v -0.01531105 -0.01992179 0.00600000
v -0.01450456 0.02007821 0.00600000
f 1 2 3
f 4 5 6
f 4 6 7
f 4 7 8
f 9 1 5
f 1 3 10
f 1 10 11
f 12 13 14
f 15 16 3
f 7 6 17
f 6 1 17
f 18 17 1
f 19 20 8
f 21 18 1
f 5 1 6
f 11 21 1
f 2 22 3
f 4 3 22
f 4 20 3
f 15 20 13
f 2 9 5
f 8 7 23
f 8 23 19
f 4 22 5
f 12 15 13
f 20 19 23
f 20 23 17
f 14 17 24
f 21 11 10
f 21 10 16
f 12 18 15
f 4 8 20
f 16 15 18
f 16 18 21
f 1 9 2
f 2 5 22
f 10 3 16
f 15 3 20
f 14 13 20
f 12 14 24
f 14 20 17
f 24 17 12
f 18 12 17
f 23 7 17

