# https://github.com/mikedh/trimesh
v 0.01477320 0.01623280 0.00600000
v 0.00255539 -0.00820283 0.00600000
v 0.01477320 0.01623280 -0.00600000
v 0.00255539 -0.02376720 0.00600000
v -0.00252637 -0.00848540 0.00600000
v 0.00928979 0.01623280 -0.00600000
v 0.00928979 0.01623280 0.00600000
v 0.00255539 -0.00820283 -0.00600000
v -0.00917981 0.01623280 0.00600000
v -0.00917981 0.01623280 -0.00600000
v -0.01470290 0.01623280 -0.00600000
v 0.00255539 -0.02376720 -0.00600000
v -0.00252637 -0.02376720 0.00600000
v -0.01470290 0.01623280 0.00600000
v -0.00252637 -0.00848540 -0.00600000
v -0.00252637 -0.02376720 -0.00600000
v -0.00002598 -0.00400850 0.00600000
v -0.00002598 -0.00400850 -0.00600000
f 1 2 3
f 4 2 5
f 3 6 7
f 8 3 2
f 3 7 1
f 9 10 11
f 12 4 13
f 9 11 14
f 15 13 5
f 15 16 13
f 12 13 16
f 9 14 17
f 6 18 7
f 17 5 2
f 5 17 14
f 11 15 5
f 9 17 18
f 9 18 10
f 17 7 18
f 8 2 4
f 7 17 1
f 12 16 15
f 15 11 18
f 8 4 12
f 2 1 17
f 5 13 4
f 8 18 3
f 15 8 12
f 6 3 18
f 10 18 11
f 11 5 14
f 15 18 8

