# https://github.com/mikedh/trimesh
v 0.01295313 -0.01531188 -0.00600000
v 0.01295313 -0.01531188 0.00600000
v 0.01295313 -0.01978719 0.00600000
v 0.01238796 0.02021281 0.00600000
v 0.00666166 0.01569781 0.00600000
v 0.01238796 0.01626138 0.00600000
v -0.00704845 -0.01531188 0.00600000
v 0.01295313 -0.01978719 -0.00600000
v 0.01238796 0.02021281 -0.00600000
v 0.01238796 0.01626138 -0.00600000
v 0.00666166 0.01569781 -0.00600000
v -0.00704845 -0.01531188 -0.00600000
v -0.01216831 0.01569781 0.00600000
v -0.01216831 0.02021281 0.00600000
v -0.01273348 -0.01587704 0.00600000
v -0.01273348 -0.01978719 0.00600000
v -0.01273348 -0.01587704 -0.00600000
v -0.01273348 -0.01978719 -0.00600000
v -0.01216831 0.02021281 -0.00600000
v -0.01216831 0.01569781 -0.00600000
f 1 2 3
f 4 5 6
f 7 6 5
f 1 3 8
f 9 10 11
f 8 12 1
f 13 5 14
f 15 16 7
f 10 12 11
f 17 18 16
f 17 16 15
f 18 8 16
f 7 12 10
f 14 4 19
f 9 19 4
f 11 17 5
f 15 5 17
f 19 20 13
f 3 16 8
f 7 2 12
f 1 12 2
f 11 13 20
f 7 10 6
f 2 7 3
f 16 3 7
f 5 15 7
f 10 4 6
f 19 13 14
f 10 9 4
f 11 5 13
f 9 11 19
f 17 12 18
f 11 12 17
f 8 18 12
f 4 14 5
f 20 19 11

